%TF.GenerationSoftware,KiCad,Pcbnew,6.0.4-6f826c9f35~116~ubuntu18.04.1*%
%TF.CreationDate,2022-03-30T21:42:36+05:30*%
%TF.ProjectId,dg Monitor,6467204d-6f6e-4697-946f-722e6b696361,rev?*%
%TF.SameCoordinates,Original*%
%TF.FileFunction,Legend,Top*%
%TF.FilePolarity,Positive*%
%FSLAX46Y46*%
G04 Gerber Fmt 4.6, Leading zero omitted, Abs format (unit mm)*
G04 Created by KiCad (PCBNEW 6.0.4-6f826c9f35~116~ubuntu18.04.1) date 2022-03-30 21:42:36*
%MOMM*%
%LPD*%
G01*
G04 APERTURE LIST*
%ADD10C,0.123000*%
%ADD11C,0.254000*%
%ADD12C,0.150000*%
%ADD13C,0.120000*%
%ADD14C,0.127000*%
%ADD15C,0.200000*%
G04 APERTURE END LIST*
D10*
X140282571Y-28900380D02*
X140282571Y-27900380D01*
X140399714Y-28995619D02*
X140774571Y-28995619D01*
X141172857Y-28900380D02*
X141008857Y-28424190D01*
X140891714Y-28900380D02*
X140891714Y-27900380D01*
X141079142Y-27900380D01*
X141126000Y-27948000D01*
X141149428Y-27995619D01*
X141172857Y-28090857D01*
X141172857Y-28233714D01*
X141149428Y-28328952D01*
X141126000Y-28376571D01*
X141079142Y-28424190D01*
X140891714Y-28424190D01*
X162380571Y-28900380D02*
X162380571Y-27900380D01*
X162497714Y-28995619D02*
X162872571Y-28995619D01*
X163153714Y-28376571D02*
X163224000Y-28424190D01*
X163247428Y-28471809D01*
X163270857Y-28567047D01*
X163270857Y-28709904D01*
X163247428Y-28805142D01*
X163224000Y-28852761D01*
X163177142Y-28900380D01*
X162989714Y-28900380D01*
X162989714Y-27900380D01*
X163153714Y-27900380D01*
X163200571Y-27948000D01*
X163224000Y-27995619D01*
X163247428Y-28090857D01*
X163247428Y-28186095D01*
X163224000Y-28281333D01*
X163200571Y-28328952D01*
X163153714Y-28376571D01*
X162989714Y-28376571D01*
X170442571Y-26360380D02*
X170442571Y-25360380D01*
X170559714Y-25360380D01*
X170630000Y-25408000D01*
X170676857Y-25503238D01*
X170700285Y-25598476D01*
X170723714Y-25788952D01*
X170723714Y-25931809D01*
X170700285Y-26122285D01*
X170676857Y-26217523D01*
X170630000Y-26312761D01*
X170559714Y-26360380D01*
X170442571Y-26360380D01*
X171215714Y-26265142D02*
X171192285Y-26312761D01*
X171122000Y-26360380D01*
X171075142Y-26360380D01*
X171004857Y-26312761D01*
X170958000Y-26217523D01*
X170934571Y-26122285D01*
X170911142Y-25931809D01*
X170911142Y-25788952D01*
X170934571Y-25598476D01*
X170958000Y-25503238D01*
X171004857Y-25408000D01*
X171075142Y-25360380D01*
X171122000Y-25360380D01*
X171192285Y-25408000D01*
X171215714Y-25455619D01*
X171731142Y-25360380D02*
X171895142Y-26360380D01*
X172059142Y-25360380D01*
X172480857Y-26360380D02*
X172199714Y-26360380D01*
X172340285Y-26360380D02*
X172340285Y-25360380D01*
X172293428Y-25503238D01*
X172246571Y-25598476D01*
X172199714Y-25646095D01*
X65223714Y-120610380D02*
X65387714Y-121610380D01*
X65551714Y-120610380D01*
X65598571Y-121705619D02*
X65973428Y-121705619D01*
X66184285Y-121134190D02*
X66184285Y-121610380D01*
X66020285Y-120610380D02*
X66184285Y-121134190D01*
X66348285Y-120610380D01*
X62902571Y-152106380D02*
X63066571Y-153106380D01*
X63230571Y-152106380D01*
X63277428Y-153201619D02*
X63652285Y-153201619D01*
X63933428Y-152582571D02*
X64003714Y-152630190D01*
X64027142Y-152677809D01*
X64050571Y-152773047D01*
X64050571Y-152915904D01*
X64027142Y-153011142D01*
X64003714Y-153058761D01*
X63956857Y-153106380D01*
X63769428Y-153106380D01*
X63769428Y-152106380D01*
X63933428Y-152106380D01*
X63980285Y-152154000D01*
X64003714Y-152201619D01*
X64027142Y-152296857D01*
X64027142Y-152392095D01*
X64003714Y-152487333D01*
X63980285Y-152534952D01*
X63933428Y-152582571D01*
X63769428Y-152582571D01*
X197651619Y-51441714D02*
X197651619Y-51722857D01*
X196651619Y-51582285D02*
X197651619Y-51582285D01*
X196699238Y-52074285D02*
X196651619Y-52027428D01*
X196651619Y-51933714D01*
X196699238Y-51886857D01*
X196794476Y-51863428D01*
X197175428Y-51863428D01*
X197270666Y-51886857D01*
X197318285Y-51933714D01*
X197318285Y-52027428D01*
X197270666Y-52074285D01*
X197175428Y-52097714D01*
X197080190Y-52097714D01*
X196984952Y-51863428D01*
X196651619Y-52308571D02*
X197318285Y-52308571D01*
X197223047Y-52308571D02*
X197270666Y-52332000D01*
X197318285Y-52378857D01*
X197318285Y-52449142D01*
X197270666Y-52496000D01*
X197175428Y-52519428D01*
X196651619Y-52519428D01*
X197175428Y-52519428D02*
X197270666Y-52542857D01*
X197318285Y-52589714D01*
X197318285Y-52660000D01*
X197270666Y-52706857D01*
X197175428Y-52730285D01*
X196651619Y-52730285D01*
X197318285Y-52964571D02*
X196318285Y-52964571D01*
X197270666Y-52964571D02*
X197318285Y-53011428D01*
X197318285Y-53105142D01*
X197270666Y-53152000D01*
X197223047Y-53175428D01*
X197127809Y-53198857D01*
X196842095Y-53198857D01*
X196746857Y-53175428D01*
X196699238Y-53152000D01*
X196651619Y-53105142D01*
X196651619Y-53011428D01*
X196699238Y-52964571D01*
X197556380Y-53386285D02*
X197604000Y-53409714D01*
X197651619Y-53456571D01*
X197651619Y-53573714D01*
X197604000Y-53620571D01*
X197556380Y-53644000D01*
X197461142Y-53667428D01*
X197365904Y-53667428D01*
X197223047Y-53644000D01*
X196651619Y-53362857D01*
X196651619Y-53667428D01*
X186081428Y-26519142D02*
X186058000Y-26566761D01*
X185987714Y-26614380D01*
X185940857Y-26614380D01*
X185870571Y-26566761D01*
X185823714Y-26471523D01*
X185800285Y-26376285D01*
X185776857Y-26185809D01*
X185776857Y-26042952D01*
X185800285Y-25852476D01*
X185823714Y-25757238D01*
X185870571Y-25662000D01*
X185940857Y-25614380D01*
X185987714Y-25614380D01*
X186058000Y-25662000D01*
X186081428Y-25709619D01*
X186386000Y-25614380D02*
X186479714Y-25614380D01*
X186526571Y-25662000D01*
X186573428Y-25757238D01*
X186596857Y-25947714D01*
X186596857Y-26281047D01*
X186573428Y-26471523D01*
X186526571Y-26566761D01*
X186479714Y-26614380D01*
X186386000Y-26614380D01*
X186339142Y-26566761D01*
X186292285Y-26471523D01*
X186268857Y-26281047D01*
X186268857Y-25947714D01*
X186292285Y-25757238D01*
X186339142Y-25662000D01*
X186386000Y-25614380D01*
X187159142Y-26566761D02*
X187229428Y-26614380D01*
X187346571Y-26614380D01*
X187393428Y-26566761D01*
X187416857Y-26519142D01*
X187440285Y-26423904D01*
X187440285Y-26328666D01*
X187416857Y-26233428D01*
X187393428Y-26185809D01*
X187346571Y-26138190D01*
X187252857Y-26090571D01*
X187206000Y-26042952D01*
X187182571Y-25995333D01*
X187159142Y-25900095D01*
X187159142Y-25804857D01*
X187182571Y-25709619D01*
X187206000Y-25662000D01*
X187252857Y-25614380D01*
X187370000Y-25614380D01*
X187440285Y-25662000D01*
X187838571Y-26566761D02*
X187791714Y-26614380D01*
X187698000Y-26614380D01*
X187651142Y-26566761D01*
X187627714Y-26471523D01*
X187627714Y-26090571D01*
X187651142Y-25995333D01*
X187698000Y-25947714D01*
X187791714Y-25947714D01*
X187838571Y-25995333D01*
X187862000Y-26090571D01*
X187862000Y-26185809D01*
X187627714Y-26281047D01*
X188072857Y-25947714D02*
X188072857Y-26614380D01*
X188072857Y-26042952D02*
X188096285Y-25995333D01*
X188143142Y-25947714D01*
X188213428Y-25947714D01*
X188260285Y-25995333D01*
X188283714Y-26090571D01*
X188283714Y-26614380D01*
X188494571Y-26566761D02*
X188541428Y-26614380D01*
X188635142Y-26614380D01*
X188682000Y-26566761D01*
X188705428Y-26471523D01*
X188705428Y-26423904D01*
X188682000Y-26328666D01*
X188635142Y-26281047D01*
X188564857Y-26281047D01*
X188518000Y-26233428D01*
X188494571Y-26138190D01*
X188494571Y-26090571D01*
X188518000Y-25995333D01*
X188564857Y-25947714D01*
X188635142Y-25947714D01*
X188682000Y-25995333D01*
X189103714Y-26566761D02*
X189056857Y-26614380D01*
X188963142Y-26614380D01*
X188916285Y-26566761D01*
X188892857Y-26471523D01*
X188892857Y-26090571D01*
X188916285Y-25995333D01*
X188963142Y-25947714D01*
X189056857Y-25947714D01*
X189103714Y-25995333D01*
X189127142Y-26090571D01*
X189127142Y-26185809D01*
X188892857Y-26281047D01*
D11*
X169526857Y-55142190D02*
X169526857Y-44982190D01*
X170131619Y-44982190D01*
X170494476Y-45466000D01*
X170736380Y-46433619D01*
X170857333Y-47401238D01*
X170978285Y-49336476D01*
X170978285Y-50787904D01*
X170857333Y-52723142D01*
X170736380Y-53690761D01*
X170494476Y-54658380D01*
X170131619Y-55142190D01*
X169526857Y-55142190D01*
X173397333Y-45466000D02*
X173155428Y-44982190D01*
X172792571Y-44982190D01*
X172429714Y-45466000D01*
X172187809Y-46433619D01*
X172066857Y-47401238D01*
X171945904Y-49336476D01*
X171945904Y-50787904D01*
X172066857Y-52723142D01*
X172187809Y-53690761D01*
X172429714Y-54658380D01*
X172792571Y-55142190D01*
X173034476Y-55142190D01*
X173397333Y-54658380D01*
X173518285Y-54174571D01*
X173518285Y-50787904D01*
X173034476Y-50787904D01*
X174606857Y-51271714D02*
X176542095Y-51271714D01*
X177751619Y-55142190D02*
X177751619Y-44982190D01*
X178598285Y-52239333D01*
X179444952Y-44982190D01*
X179444952Y-55142190D01*
X181017333Y-55142190D02*
X180775428Y-54658380D01*
X180654476Y-54174571D01*
X180533523Y-53206952D01*
X180533523Y-50304095D01*
X180654476Y-49336476D01*
X180775428Y-48852666D01*
X181017333Y-48368857D01*
X181380190Y-48368857D01*
X181622095Y-48852666D01*
X181743047Y-49336476D01*
X181864000Y-50304095D01*
X181864000Y-53206952D01*
X181743047Y-54174571D01*
X181622095Y-54658380D01*
X181380190Y-55142190D01*
X181017333Y-55142190D01*
X182952571Y-48368857D02*
X182952571Y-55142190D01*
X182952571Y-49336476D02*
X183073523Y-48852666D01*
X183315428Y-48368857D01*
X183678285Y-48368857D01*
X183920190Y-48852666D01*
X184041142Y-49820285D01*
X184041142Y-55142190D01*
D10*
X195889619Y-29766000D02*
X196889619Y-29766000D01*
X196889619Y-29953428D01*
X196842000Y-30000285D01*
X196794380Y-30023714D01*
X196699142Y-30047142D01*
X196556285Y-30047142D01*
X196461047Y-30023714D01*
X196413428Y-30000285D01*
X196365809Y-29953428D01*
X196365809Y-29766000D01*
X195889619Y-30258000D02*
X196556285Y-30258000D01*
X196365809Y-30258000D02*
X196461047Y-30281428D01*
X196508666Y-30304857D01*
X196556285Y-30351714D01*
X196556285Y-30398571D01*
X195937238Y-30750000D02*
X195889619Y-30703142D01*
X195889619Y-30609428D01*
X195937238Y-30562571D01*
X196032476Y-30539142D01*
X196413428Y-30539142D01*
X196508666Y-30562571D01*
X196556285Y-30609428D01*
X196556285Y-30703142D01*
X196508666Y-30750000D01*
X196413428Y-30773428D01*
X196318190Y-30773428D01*
X196222952Y-30539142D01*
X195937238Y-30960857D02*
X195889619Y-31007714D01*
X195889619Y-31101428D01*
X195937238Y-31148285D01*
X196032476Y-31171714D01*
X196080095Y-31171714D01*
X196175333Y-31148285D01*
X196222952Y-31101428D01*
X196222952Y-31031142D01*
X196270571Y-30984285D01*
X196365809Y-30960857D01*
X196413428Y-30960857D01*
X196508666Y-30984285D01*
X196556285Y-31031142D01*
X196556285Y-31101428D01*
X196508666Y-31148285D01*
X195937238Y-31359142D02*
X195889619Y-31406000D01*
X195889619Y-31499714D01*
X195937238Y-31546571D01*
X196032476Y-31570000D01*
X196080095Y-31570000D01*
X196175333Y-31546571D01*
X196222952Y-31499714D01*
X196222952Y-31429428D01*
X196270571Y-31382571D01*
X196365809Y-31359142D01*
X196413428Y-31359142D01*
X196508666Y-31382571D01*
X196556285Y-31429428D01*
X196556285Y-31499714D01*
X196508666Y-31546571D01*
X196556285Y-31991714D02*
X195889619Y-31991714D01*
X196556285Y-31780857D02*
X196032476Y-31780857D01*
X195937238Y-31804285D01*
X195889619Y-31851142D01*
X195889619Y-31921428D01*
X195937238Y-31968285D01*
X195984857Y-31991714D01*
X195889619Y-32226000D02*
X196556285Y-32226000D01*
X196365809Y-32226000D02*
X196461047Y-32249428D01*
X196508666Y-32272857D01*
X196556285Y-32319714D01*
X196556285Y-32366571D01*
X195937238Y-32718000D02*
X195889619Y-32671142D01*
X195889619Y-32577428D01*
X195937238Y-32530571D01*
X196032476Y-32507142D01*
X196413428Y-32507142D01*
X196508666Y-32530571D01*
X196556285Y-32577428D01*
X196556285Y-32671142D01*
X196508666Y-32718000D01*
X196413428Y-32741428D01*
X196318190Y-32741428D01*
X196222952Y-32507142D01*
X64156365Y-90097877D02*
X64320365Y-91097877D01*
X64484365Y-90097877D01*
X64531222Y-91193116D02*
X64906079Y-91193116D01*
X65304365Y-91097877D02*
X65140365Y-90621687D01*
X65023222Y-91097877D02*
X65023222Y-90097877D01*
X65210651Y-90097877D01*
X65257508Y-90145497D01*
X65280936Y-90193116D01*
X65304365Y-90288354D01*
X65304365Y-90431211D01*
X65280936Y-90526449D01*
X65257508Y-90574068D01*
X65210651Y-90621687D01*
X65023222Y-90621687D01*
X197905619Y-74364571D02*
X196905619Y-74528571D01*
X197905619Y-74692571D01*
X196905619Y-74856571D02*
X197572285Y-74856571D01*
X197905619Y-74856571D02*
X197858000Y-74833142D01*
X197810380Y-74856571D01*
X197858000Y-74880000D01*
X197905619Y-74856571D01*
X197810380Y-74856571D01*
X196905619Y-75090857D02*
X197905619Y-75090857D01*
X197524666Y-75090857D02*
X197572285Y-75137714D01*
X197572285Y-75231428D01*
X197524666Y-75278285D01*
X197477047Y-75301714D01*
X197381809Y-75325142D01*
X197096095Y-75325142D01*
X197000857Y-75301714D01*
X196953238Y-75278285D01*
X196905619Y-75231428D01*
X196905619Y-75137714D01*
X196953238Y-75090857D01*
X196905619Y-75536000D02*
X197572285Y-75536000D01*
X197381809Y-75536000D02*
X197477047Y-75559428D01*
X197524666Y-75582857D01*
X197572285Y-75629714D01*
X197572285Y-75676571D01*
X196905619Y-76051428D02*
X197429428Y-76051428D01*
X197524666Y-76028000D01*
X197572285Y-75981142D01*
X197572285Y-75887428D01*
X197524666Y-75840571D01*
X196953238Y-76051428D02*
X196905619Y-76004571D01*
X196905619Y-75887428D01*
X196953238Y-75840571D01*
X197048476Y-75817142D01*
X197143714Y-75817142D01*
X197238952Y-75840571D01*
X197286571Y-75887428D01*
X197286571Y-76004571D01*
X197334190Y-76051428D01*
X197572285Y-76215428D02*
X197572285Y-76402857D01*
X197905619Y-76285714D02*
X197048476Y-76285714D01*
X196953238Y-76309142D01*
X196905619Y-76356000D01*
X196905619Y-76402857D01*
X196905619Y-76566857D02*
X197572285Y-76566857D01*
X197905619Y-76566857D02*
X197858000Y-76543428D01*
X197810380Y-76566857D01*
X197858000Y-76590285D01*
X197905619Y-76566857D01*
X197810380Y-76566857D01*
X196905619Y-76871428D02*
X196953238Y-76824571D01*
X197000857Y-76801142D01*
X197096095Y-76777714D01*
X197381809Y-76777714D01*
X197477047Y-76801142D01*
X197524666Y-76824571D01*
X197572285Y-76871428D01*
X197572285Y-76941714D01*
X197524666Y-76988571D01*
X197477047Y-77012000D01*
X197381809Y-77035428D01*
X197096095Y-77035428D01*
X197000857Y-77012000D01*
X196953238Y-76988571D01*
X196905619Y-76941714D01*
X196905619Y-76871428D01*
X197572285Y-77246285D02*
X196905619Y-77246285D01*
X197477047Y-77246285D02*
X197524666Y-77269714D01*
X197572285Y-77316571D01*
X197572285Y-77386857D01*
X197524666Y-77433714D01*
X197429428Y-77457142D01*
X196905619Y-77457142D01*
X196667428Y-93887428D02*
X196667428Y-93723428D01*
X196143619Y-93723428D02*
X197143619Y-93723428D01*
X197143619Y-93957714D01*
X196810285Y-94356000D02*
X196143619Y-94356000D01*
X196810285Y-94145142D02*
X196286476Y-94145142D01*
X196191238Y-94168571D01*
X196143619Y-94215428D01*
X196143619Y-94285714D01*
X196191238Y-94332571D01*
X196238857Y-94356000D01*
X196191238Y-94777714D02*
X196143619Y-94730857D01*
X196143619Y-94637142D01*
X196191238Y-94590285D01*
X196286476Y-94566857D01*
X196667428Y-94566857D01*
X196762666Y-94590285D01*
X196810285Y-94637142D01*
X196810285Y-94730857D01*
X196762666Y-94777714D01*
X196667428Y-94801142D01*
X196572190Y-94801142D01*
X196476952Y-94566857D01*
X196143619Y-95082285D02*
X196191238Y-95035428D01*
X196286476Y-95012000D01*
X197143619Y-95012000D01*
X196143619Y-95878857D02*
X196143619Y-95644571D01*
X197143619Y-95644571D01*
X196191238Y-96230285D02*
X196143619Y-96183428D01*
X196143619Y-96089714D01*
X196191238Y-96042857D01*
X196286476Y-96019428D01*
X196667428Y-96019428D01*
X196762666Y-96042857D01*
X196810285Y-96089714D01*
X196810285Y-96183428D01*
X196762666Y-96230285D01*
X196667428Y-96253714D01*
X196572190Y-96253714D01*
X196476952Y-96019428D01*
X196810285Y-96417714D02*
X196143619Y-96534857D01*
X196810285Y-96652000D01*
X196191238Y-97026857D02*
X196143619Y-96980000D01*
X196143619Y-96886285D01*
X196191238Y-96839428D01*
X196286476Y-96816000D01*
X196667428Y-96816000D01*
X196762666Y-96839428D01*
X196810285Y-96886285D01*
X196810285Y-96980000D01*
X196762666Y-97026857D01*
X196667428Y-97050285D01*
X196572190Y-97050285D01*
X196476952Y-96816000D01*
X196143619Y-97331428D02*
X196191238Y-97284571D01*
X196286476Y-97261142D01*
X197143619Y-97261142D01*
X148953714Y-28646380D02*
X148953714Y-27646380D01*
X149070857Y-28741619D02*
X149445714Y-28741619D01*
X149656571Y-28170190D02*
X149656571Y-28646380D01*
X149492571Y-27646380D02*
X149656571Y-28170190D01*
X149820571Y-27646380D01*
X197143619Y-62363714D02*
X197143619Y-62644857D01*
X196143619Y-62504285D02*
X197143619Y-62504285D01*
X196191238Y-62996285D02*
X196143619Y-62949428D01*
X196143619Y-62855714D01*
X196191238Y-62808857D01*
X196286476Y-62785428D01*
X196667428Y-62785428D01*
X196762666Y-62808857D01*
X196810285Y-62855714D01*
X196810285Y-62949428D01*
X196762666Y-62996285D01*
X196667428Y-63019714D01*
X196572190Y-63019714D01*
X196476952Y-62785428D01*
X196143619Y-63230571D02*
X196810285Y-63230571D01*
X196715047Y-63230571D02*
X196762666Y-63254000D01*
X196810285Y-63300857D01*
X196810285Y-63371142D01*
X196762666Y-63418000D01*
X196667428Y-63441428D01*
X196143619Y-63441428D01*
X196667428Y-63441428D02*
X196762666Y-63464857D01*
X196810285Y-63511714D01*
X196810285Y-63582000D01*
X196762666Y-63628857D01*
X196667428Y-63652285D01*
X196143619Y-63652285D01*
X196810285Y-63886571D02*
X195810285Y-63886571D01*
X196762666Y-63886571D02*
X196810285Y-63933428D01*
X196810285Y-64027142D01*
X196762666Y-64074000D01*
X196715047Y-64097428D01*
X196619809Y-64120857D01*
X196334095Y-64120857D01*
X196238857Y-64097428D01*
X196191238Y-64074000D01*
X196143619Y-64027142D01*
X196143619Y-63933428D01*
X196191238Y-63886571D01*
X197143619Y-64284857D02*
X197143619Y-64589428D01*
X196762666Y-64425428D01*
X196762666Y-64495714D01*
X196715047Y-64542571D01*
X196667428Y-64566000D01*
X196572190Y-64589428D01*
X196334095Y-64589428D01*
X196238857Y-64566000D01*
X196191238Y-64542571D01*
X196143619Y-64495714D01*
X196143619Y-64355142D01*
X196191238Y-64308285D01*
X196238857Y-64284857D01*
X196889619Y-40265714D02*
X196889619Y-40546857D01*
X195889619Y-40406285D02*
X196889619Y-40406285D01*
X195937238Y-40898285D02*
X195889619Y-40851428D01*
X195889619Y-40757714D01*
X195937238Y-40710857D01*
X196032476Y-40687428D01*
X196413428Y-40687428D01*
X196508666Y-40710857D01*
X196556285Y-40757714D01*
X196556285Y-40851428D01*
X196508666Y-40898285D01*
X196413428Y-40921714D01*
X196318190Y-40921714D01*
X196222952Y-40687428D01*
X195889619Y-41132571D02*
X196556285Y-41132571D01*
X196461047Y-41132571D02*
X196508666Y-41156000D01*
X196556285Y-41202857D01*
X196556285Y-41273142D01*
X196508666Y-41320000D01*
X196413428Y-41343428D01*
X195889619Y-41343428D01*
X196413428Y-41343428D02*
X196508666Y-41366857D01*
X196556285Y-41413714D01*
X196556285Y-41484000D01*
X196508666Y-41530857D01*
X196413428Y-41554285D01*
X195889619Y-41554285D01*
X196556285Y-41788571D02*
X195556285Y-41788571D01*
X196508666Y-41788571D02*
X196556285Y-41835428D01*
X196556285Y-41929142D01*
X196508666Y-41976000D01*
X196461047Y-41999428D01*
X196365809Y-42022857D01*
X196080095Y-42022857D01*
X195984857Y-41999428D01*
X195937238Y-41976000D01*
X195889619Y-41929142D01*
X195889619Y-41835428D01*
X195937238Y-41788571D01*
X195889619Y-42491428D02*
X195889619Y-42210285D01*
X195889619Y-42350857D02*
X196889619Y-42350857D01*
X196746761Y-42304000D01*
X196651523Y-42257142D01*
X196603904Y-42210285D01*
X179586571Y-26614380D02*
X179586571Y-25614380D01*
X179703714Y-25614380D01*
X179774000Y-25662000D01*
X179820857Y-25757238D01*
X179844285Y-25852476D01*
X179867714Y-26042952D01*
X179867714Y-26185809D01*
X179844285Y-26376285D01*
X179820857Y-26471523D01*
X179774000Y-26566761D01*
X179703714Y-26614380D01*
X179586571Y-26614380D01*
X180359714Y-26519142D02*
X180336285Y-26566761D01*
X180266000Y-26614380D01*
X180219142Y-26614380D01*
X180148857Y-26566761D01*
X180102000Y-26471523D01*
X180078571Y-26376285D01*
X180055142Y-26185809D01*
X180055142Y-26042952D01*
X180078571Y-25852476D01*
X180102000Y-25757238D01*
X180148857Y-25662000D01*
X180219142Y-25614380D01*
X180266000Y-25614380D01*
X180336285Y-25662000D01*
X180359714Y-25709619D01*
X180875142Y-25614380D02*
X181039142Y-26614380D01*
X181203142Y-25614380D01*
X181343714Y-25709619D02*
X181367142Y-25662000D01*
X181414000Y-25614380D01*
X181531142Y-25614380D01*
X181578000Y-25662000D01*
X181601428Y-25709619D01*
X181624857Y-25804857D01*
X181624857Y-25900095D01*
X181601428Y-26042952D01*
X181320285Y-26614380D01*
X181624857Y-26614380D01*
D12*
%TO.C,H3*%
X190738095Y-37152380D02*
X190738095Y-36152380D01*
X190738095Y-36628571D02*
X191309523Y-36628571D01*
X191309523Y-37152380D02*
X191309523Y-36152380D01*
X191690476Y-36152380D02*
X192309523Y-36152380D01*
X191976190Y-36533333D01*
X192119047Y-36533333D01*
X192214285Y-36580952D01*
X192261904Y-36628571D01*
X192309523Y-36723809D01*
X192309523Y-36961904D01*
X192261904Y-37057142D01*
X192214285Y-37104761D01*
X192119047Y-37152380D01*
X191833333Y-37152380D01*
X191738095Y-37104761D01*
X191690476Y-37057142D01*
%TO.C,H4*%
X174238095Y-157652380D02*
X174238095Y-156652380D01*
X174238095Y-157128571D02*
X174809523Y-157128571D01*
X174809523Y-157652380D02*
X174809523Y-156652380D01*
X175714285Y-156985714D02*
X175714285Y-157652380D01*
X175476190Y-156604761D02*
X175238095Y-157319047D01*
X175857142Y-157319047D01*
%TO.C,H2*%
X41238095Y-157152380D02*
X41238095Y-156152380D01*
X41238095Y-156628571D02*
X41809523Y-156628571D01*
X41809523Y-157152380D02*
X41809523Y-156152380D01*
X42238095Y-156247619D02*
X42285714Y-156200000D01*
X42380952Y-156152380D01*
X42619047Y-156152380D01*
X42714285Y-156200000D01*
X42761904Y-156247619D01*
X42809523Y-156342857D01*
X42809523Y-156438095D01*
X42761904Y-156580952D01*
X42190476Y-157152380D01*
X42809523Y-157152380D01*
%TO.C,H1*%
X42238095Y-37152380D02*
X42238095Y-36152380D01*
X42238095Y-36628571D02*
X42809523Y-36628571D01*
X42809523Y-37152380D02*
X42809523Y-36152380D01*
X43809523Y-37152380D02*
X43238095Y-37152380D01*
X43523809Y-37152380D02*
X43523809Y-36152380D01*
X43428571Y-36295238D01*
X43333333Y-36390476D01*
X43238095Y-36438095D01*
%TO.C,J11*%
X185382380Y-19799523D02*
X186096666Y-19799523D01*
X186239523Y-19847142D01*
X186334761Y-19942380D01*
X186382380Y-20085238D01*
X186382380Y-20180476D01*
X186382380Y-18799523D02*
X186382380Y-19370952D01*
X186382380Y-19085238D02*
X185382380Y-19085238D01*
X185525238Y-19180476D01*
X185620476Y-19275714D01*
X185668095Y-19370952D01*
X186382380Y-17847142D02*
X186382380Y-18418571D01*
X186382380Y-18132857D02*
X185382380Y-18132857D01*
X185525238Y-18228095D01*
X185620476Y-18323333D01*
X185668095Y-18418571D01*
%TO.C,J14*%
X62302380Y-84904023D02*
X63016666Y-84904023D01*
X63159523Y-84951642D01*
X63254761Y-85046880D01*
X63302380Y-85189738D01*
X63302380Y-85284976D01*
X63302380Y-83904023D02*
X63302380Y-84475452D01*
X63302380Y-84189738D02*
X62302380Y-84189738D01*
X62445238Y-84284976D01*
X62540476Y-84380214D01*
X62588095Y-84475452D01*
X62635714Y-83046880D02*
X63302380Y-83046880D01*
X62254761Y-83284976D02*
X62969047Y-83523071D01*
X62969047Y-82904023D01*
%TO.C,J1*%
X183386166Y-144527880D02*
X183386166Y-145242166D01*
X183338547Y-145385023D01*
X183243309Y-145480261D01*
X183100452Y-145527880D01*
X183005214Y-145527880D01*
X184386166Y-145527880D02*
X183814738Y-145527880D01*
X184100452Y-145527880D02*
X184100452Y-144527880D01*
X184005214Y-144670738D01*
X183909976Y-144765976D01*
X183814738Y-144813595D01*
%TO.C,R9*%
X125833333Y-115882380D02*
X125500000Y-115406190D01*
X125261904Y-115882380D02*
X125261904Y-114882380D01*
X125642857Y-114882380D01*
X125738095Y-114930000D01*
X125785714Y-114977619D01*
X125833333Y-115072857D01*
X125833333Y-115215714D01*
X125785714Y-115310952D01*
X125738095Y-115358571D01*
X125642857Y-115406190D01*
X125261904Y-115406190D01*
X126309523Y-115882380D02*
X126500000Y-115882380D01*
X126595238Y-115834761D01*
X126642857Y-115787142D01*
X126738095Y-115644285D01*
X126785714Y-115453809D01*
X126785714Y-115072857D01*
X126738095Y-114977619D01*
X126690476Y-114930000D01*
X126595238Y-114882380D01*
X126404761Y-114882380D01*
X126309523Y-114930000D01*
X126261904Y-114977619D01*
X126214285Y-115072857D01*
X126214285Y-115310952D01*
X126261904Y-115406190D01*
X126309523Y-115453809D01*
X126404761Y-115501428D01*
X126595238Y-115501428D01*
X126690476Y-115453809D01*
X126738095Y-115406190D01*
X126785714Y-115310952D01*
%TO.C,J5*%
X204051666Y-37182380D02*
X204051666Y-37896666D01*
X204004047Y-38039523D01*
X203908809Y-38134761D01*
X203765952Y-38182380D01*
X203670714Y-38182380D01*
X205004047Y-37182380D02*
X204527857Y-37182380D01*
X204480238Y-37658571D01*
X204527857Y-37610952D01*
X204623095Y-37563333D01*
X204861190Y-37563333D01*
X204956428Y-37610952D01*
X205004047Y-37658571D01*
X205051666Y-37753809D01*
X205051666Y-37991904D01*
X205004047Y-38087142D01*
X204956428Y-38134761D01*
X204861190Y-38182380D01*
X204623095Y-38182380D01*
X204527857Y-38134761D01*
X204480238Y-38087142D01*
%TO.C,R8*%
X123833333Y-147022380D02*
X123500000Y-146546190D01*
X123261904Y-147022380D02*
X123261904Y-146022380D01*
X123642857Y-146022380D01*
X123738095Y-146070000D01*
X123785714Y-146117619D01*
X123833333Y-146212857D01*
X123833333Y-146355714D01*
X123785714Y-146450952D01*
X123738095Y-146498571D01*
X123642857Y-146546190D01*
X123261904Y-146546190D01*
X124404761Y-146450952D02*
X124309523Y-146403333D01*
X124261904Y-146355714D01*
X124214285Y-146260476D01*
X124214285Y-146212857D01*
X124261904Y-146117619D01*
X124309523Y-146070000D01*
X124404761Y-146022380D01*
X124595238Y-146022380D01*
X124690476Y-146070000D01*
X124738095Y-146117619D01*
X124785714Y-146212857D01*
X124785714Y-146260476D01*
X124738095Y-146355714D01*
X124690476Y-146403333D01*
X124595238Y-146450952D01*
X124404761Y-146450952D01*
X124309523Y-146498571D01*
X124261904Y-146546190D01*
X124214285Y-146641428D01*
X124214285Y-146831904D01*
X124261904Y-146927142D01*
X124309523Y-146974761D01*
X124404761Y-147022380D01*
X124595238Y-147022380D01*
X124690476Y-146974761D01*
X124738095Y-146927142D01*
X124785714Y-146831904D01*
X124785714Y-146641428D01*
X124738095Y-146546190D01*
X124690476Y-146498571D01*
X124595238Y-146450952D01*
%TO.C,R3*%
X120833333Y-85022380D02*
X120500000Y-84546190D01*
X120261904Y-85022380D02*
X120261904Y-84022380D01*
X120642857Y-84022380D01*
X120738095Y-84070000D01*
X120785714Y-84117619D01*
X120833333Y-84212857D01*
X120833333Y-84355714D01*
X120785714Y-84450952D01*
X120738095Y-84498571D01*
X120642857Y-84546190D01*
X120261904Y-84546190D01*
X121166666Y-84022380D02*
X121785714Y-84022380D01*
X121452380Y-84403333D01*
X121595238Y-84403333D01*
X121690476Y-84450952D01*
X121738095Y-84498571D01*
X121785714Y-84593809D01*
X121785714Y-84831904D01*
X121738095Y-84927142D01*
X121690476Y-84974761D01*
X121595238Y-85022380D01*
X121309523Y-85022380D01*
X121214285Y-84974761D01*
X121166666Y-84927142D01*
%TO.C,A1*%
X77506214Y-21341166D02*
X77982404Y-21341166D01*
X77410976Y-21626880D02*
X77744309Y-20626880D01*
X78077642Y-21626880D01*
X78934785Y-21626880D02*
X78363357Y-21626880D01*
X78649071Y-21626880D02*
X78649071Y-20626880D01*
X78553833Y-20769738D01*
X78458595Y-20864976D01*
X78363357Y-20912595D01*
%TO.C,R12*%
X116357142Y-85022380D02*
X116023809Y-84546190D01*
X115785714Y-85022380D02*
X115785714Y-84022380D01*
X116166666Y-84022380D01*
X116261904Y-84070000D01*
X116309523Y-84117619D01*
X116357142Y-84212857D01*
X116357142Y-84355714D01*
X116309523Y-84450952D01*
X116261904Y-84498571D01*
X116166666Y-84546190D01*
X115785714Y-84546190D01*
X117309523Y-85022380D02*
X116738095Y-85022380D01*
X117023809Y-85022380D02*
X117023809Y-84022380D01*
X116928571Y-84165238D01*
X116833333Y-84260476D01*
X116738095Y-84308095D01*
X117690476Y-84117619D02*
X117738095Y-84070000D01*
X117833333Y-84022380D01*
X118071428Y-84022380D01*
X118166666Y-84070000D01*
X118214285Y-84117619D01*
X118261904Y-84212857D01*
X118261904Y-84308095D01*
X118214285Y-84450952D01*
X117642857Y-85022380D01*
X118261904Y-85022380D01*
%TO.C,R11*%
X150357142Y-89022380D02*
X150023809Y-88546190D01*
X149785714Y-89022380D02*
X149785714Y-88022380D01*
X150166666Y-88022380D01*
X150261904Y-88070000D01*
X150309523Y-88117619D01*
X150357142Y-88212857D01*
X150357142Y-88355714D01*
X150309523Y-88450952D01*
X150261904Y-88498571D01*
X150166666Y-88546190D01*
X149785714Y-88546190D01*
X151309523Y-89022380D02*
X150738095Y-89022380D01*
X151023809Y-89022380D02*
X151023809Y-88022380D01*
X150928571Y-88165238D01*
X150833333Y-88260476D01*
X150738095Y-88308095D01*
X152261904Y-89022380D02*
X151690476Y-89022380D01*
X151976190Y-89022380D02*
X151976190Y-88022380D01*
X151880952Y-88165238D01*
X151785714Y-88260476D01*
X151690476Y-88308095D01*
%TO.C,RV3*%
X158803738Y-92430627D02*
X158325508Y-92765388D01*
X158803738Y-93004503D02*
X157799455Y-93004503D01*
X157799455Y-92621919D01*
X157847278Y-92526273D01*
X157895101Y-92478450D01*
X157990747Y-92430627D01*
X158134216Y-92430627D01*
X158229862Y-92478450D01*
X158277685Y-92526273D01*
X158325508Y-92621919D01*
X158325508Y-93004503D01*
X157799455Y-92143689D02*
X158803738Y-91808928D01*
X157799455Y-91474167D01*
X157799455Y-91235052D02*
X157799455Y-90613353D01*
X158182039Y-90948114D01*
X158182039Y-90804645D01*
X158229862Y-90708999D01*
X158277685Y-90661176D01*
X158373331Y-90613353D01*
X158612446Y-90613353D01*
X158708092Y-90661176D01*
X158755915Y-90708999D01*
X158803738Y-90804645D01*
X158803738Y-91091583D01*
X158755915Y-91187229D01*
X158708092Y-91235052D01*
%TO.C,T3*%
X94742095Y-122642380D02*
X95313523Y-122642380D01*
X95027809Y-123642380D02*
X95027809Y-122642380D01*
X95551619Y-122642380D02*
X96170666Y-122642380D01*
X95837333Y-123023333D01*
X95980190Y-123023333D01*
X96075428Y-123070952D01*
X96123047Y-123118571D01*
X96170666Y-123213809D01*
X96170666Y-123451904D01*
X96123047Y-123547142D01*
X96075428Y-123594761D01*
X95980190Y-123642380D01*
X95694476Y-123642380D01*
X95599238Y-123594761D01*
X95551619Y-123547142D01*
%TO.C,R10*%
X127611866Y-144452380D02*
X127278533Y-143976190D01*
X127040438Y-144452380D02*
X127040438Y-143452380D01*
X127421390Y-143452380D01*
X127516628Y-143500000D01*
X127564247Y-143547619D01*
X127611866Y-143642857D01*
X127611866Y-143785714D01*
X127564247Y-143880952D01*
X127516628Y-143928571D01*
X127421390Y-143976190D01*
X127040438Y-143976190D01*
X128564247Y-144452380D02*
X127992819Y-144452380D01*
X128278533Y-144452380D02*
X128278533Y-143452380D01*
X128183295Y-143595238D01*
X128088057Y-143690476D01*
X127992819Y-143738095D01*
X129183295Y-143452380D02*
X129278533Y-143452380D01*
X129373771Y-143500000D01*
X129421390Y-143547619D01*
X129469009Y-143642857D01*
X129516628Y-143833333D01*
X129516628Y-144071428D01*
X129469009Y-144261904D01*
X129421390Y-144357142D01*
X129373771Y-144404761D01*
X129278533Y-144452380D01*
X129183295Y-144452380D01*
X129088057Y-144404761D01*
X129040438Y-144357142D01*
X128992819Y-144261904D01*
X128945200Y-144071428D01*
X128945200Y-143833333D01*
X128992819Y-143642857D01*
X129040438Y-143547619D01*
X129088057Y-143500000D01*
X129183295Y-143452380D01*
%TO.C,J15*%
X62176880Y-146904023D02*
X62891166Y-146904023D01*
X63034023Y-146951642D01*
X63129261Y-147046880D01*
X63176880Y-147189738D01*
X63176880Y-147284976D01*
X63176880Y-145904023D02*
X63176880Y-146475452D01*
X63176880Y-146189738D02*
X62176880Y-146189738D01*
X62319738Y-146284976D01*
X62414976Y-146380214D01*
X62462595Y-146475452D01*
X62176880Y-144999261D02*
X62176880Y-145475452D01*
X62653071Y-145523071D01*
X62605452Y-145475452D01*
X62557833Y-145380214D01*
X62557833Y-145142119D01*
X62605452Y-145046880D01*
X62653071Y-144999261D01*
X62748309Y-144951642D01*
X62986404Y-144951642D01*
X63081642Y-144999261D01*
X63129261Y-145046880D01*
X63176880Y-145142119D01*
X63176880Y-145380214D01*
X63129261Y-145475452D01*
X63081642Y-145523071D01*
%TO.C,J10*%
X203200476Y-86382380D02*
X203200476Y-87096666D01*
X203152857Y-87239523D01*
X203057619Y-87334761D01*
X202914761Y-87382380D01*
X202819523Y-87382380D01*
X204200476Y-87382380D02*
X203629047Y-87382380D01*
X203914761Y-87382380D02*
X203914761Y-86382380D01*
X203819523Y-86525238D01*
X203724285Y-86620476D01*
X203629047Y-86668095D01*
X204819523Y-86382380D02*
X204914761Y-86382380D01*
X205010000Y-86430000D01*
X205057619Y-86477619D01*
X205105238Y-86572857D01*
X205152857Y-86763333D01*
X205152857Y-87001428D01*
X205105238Y-87191904D01*
X205057619Y-87287142D01*
X205010000Y-87334761D01*
X204914761Y-87382380D01*
X204819523Y-87382380D01*
X204724285Y-87334761D01*
X204676666Y-87287142D01*
X204629047Y-87191904D01*
X204581428Y-87001428D01*
X204581428Y-86763333D01*
X204629047Y-86572857D01*
X204676666Y-86477619D01*
X204724285Y-86430000D01*
X204819523Y-86382380D01*
%TO.C,R13*%
X149357142Y-118022380D02*
X149023809Y-117546190D01*
X148785714Y-118022380D02*
X148785714Y-117022380D01*
X149166666Y-117022380D01*
X149261904Y-117070000D01*
X149309523Y-117117619D01*
X149357142Y-117212857D01*
X149357142Y-117355714D01*
X149309523Y-117450952D01*
X149261904Y-117498571D01*
X149166666Y-117546190D01*
X148785714Y-117546190D01*
X150309523Y-118022380D02*
X149738095Y-118022380D01*
X150023809Y-118022380D02*
X150023809Y-117022380D01*
X149928571Y-117165238D01*
X149833333Y-117260476D01*
X149738095Y-117308095D01*
X150642857Y-117022380D02*
X151261904Y-117022380D01*
X150928571Y-117403333D01*
X151071428Y-117403333D01*
X151166666Y-117450952D01*
X151214285Y-117498571D01*
X151261904Y-117593809D01*
X151261904Y-117831904D01*
X151214285Y-117927142D01*
X151166666Y-117974761D01*
X151071428Y-118022380D01*
X150785714Y-118022380D01*
X150690476Y-117974761D01*
X150642857Y-117927142D01*
%TO.C,J20*%
X143517380Y-24809523D02*
X144231666Y-24809523D01*
X144374523Y-24857142D01*
X144469761Y-24952380D01*
X144517380Y-25095238D01*
X144517380Y-25190476D01*
X143612619Y-24380952D02*
X143565000Y-24333333D01*
X143517380Y-24238095D01*
X143517380Y-24000000D01*
X143565000Y-23904761D01*
X143612619Y-23857142D01*
X143707857Y-23809523D01*
X143803095Y-23809523D01*
X143945952Y-23857142D01*
X144517380Y-24428571D01*
X144517380Y-23809523D01*
X143517380Y-23190476D02*
X143517380Y-23095238D01*
X143565000Y-23000000D01*
X143612619Y-22952380D01*
X143707857Y-22904761D01*
X143898333Y-22857142D01*
X144136428Y-22857142D01*
X144326904Y-22904761D01*
X144422142Y-22952380D01*
X144469761Y-23000000D01*
X144517380Y-23095238D01*
X144517380Y-23190476D01*
X144469761Y-23285714D01*
X144422142Y-23333333D01*
X144326904Y-23380952D01*
X144136428Y-23428571D01*
X143898333Y-23428571D01*
X143707857Y-23380952D01*
X143612619Y-23333333D01*
X143565000Y-23285714D01*
X143517380Y-23190476D01*
%TO.C,RV1*%
X157803738Y-120430627D02*
X157325508Y-120765388D01*
X157803738Y-121004503D02*
X156799455Y-121004503D01*
X156799455Y-120621919D01*
X156847278Y-120526273D01*
X156895101Y-120478450D01*
X156990747Y-120430627D01*
X157134216Y-120430627D01*
X157229862Y-120478450D01*
X157277685Y-120526273D01*
X157325508Y-120621919D01*
X157325508Y-121004503D01*
X156799455Y-120143689D02*
X157803738Y-119808928D01*
X156799455Y-119474167D01*
X157803738Y-118613353D02*
X157803738Y-119187229D01*
X157803738Y-118900291D02*
X156799455Y-118900291D01*
X156942924Y-118995937D01*
X157038570Y-119091583D01*
X157086393Y-119187229D01*
%TO.C,J13*%
X203575476Y-72182380D02*
X203575476Y-72896666D01*
X203527857Y-73039523D01*
X203432619Y-73134761D01*
X203289761Y-73182380D01*
X203194523Y-73182380D01*
X204575476Y-73182380D02*
X204004047Y-73182380D01*
X204289761Y-73182380D02*
X204289761Y-72182380D01*
X204194523Y-72325238D01*
X204099285Y-72420476D01*
X204004047Y-72468095D01*
X204908809Y-72182380D02*
X205527857Y-72182380D01*
X205194523Y-72563333D01*
X205337380Y-72563333D01*
X205432619Y-72610952D01*
X205480238Y-72658571D01*
X205527857Y-72753809D01*
X205527857Y-72991904D01*
X205480238Y-73087142D01*
X205432619Y-73134761D01*
X205337380Y-73182380D01*
X205051666Y-73182380D01*
X204956428Y-73134761D01*
X204908809Y-73087142D01*
%TO.C,R1*%
X192111333Y-55570380D02*
X191778000Y-55094190D01*
X191539904Y-55570380D02*
X191539904Y-54570380D01*
X191920857Y-54570380D01*
X192016095Y-54618000D01*
X192063714Y-54665619D01*
X192111333Y-54760857D01*
X192111333Y-54903714D01*
X192063714Y-54998952D01*
X192016095Y-55046571D01*
X191920857Y-55094190D01*
X191539904Y-55094190D01*
X193063714Y-55570380D02*
X192492285Y-55570380D01*
X192778000Y-55570380D02*
X192778000Y-54570380D01*
X192682761Y-54713238D01*
X192587523Y-54808476D01*
X192492285Y-54856095D01*
%TO.C,J21*%
X155597380Y-24809523D02*
X156311666Y-24809523D01*
X156454523Y-24857142D01*
X156549761Y-24952380D01*
X156597380Y-25095238D01*
X156597380Y-25190476D01*
X155692619Y-24380952D02*
X155645000Y-24333333D01*
X155597380Y-24238095D01*
X155597380Y-24000000D01*
X155645000Y-23904761D01*
X155692619Y-23857142D01*
X155787857Y-23809523D01*
X155883095Y-23809523D01*
X156025952Y-23857142D01*
X156597380Y-24428571D01*
X156597380Y-23809523D01*
X156597380Y-22857142D02*
X156597380Y-23428571D01*
X156597380Y-23142857D02*
X155597380Y-23142857D01*
X155740238Y-23238095D01*
X155835476Y-23333333D01*
X155883095Y-23428571D01*
%TO.C,D3*%
X138745172Y-120702454D02*
X138745172Y-120061323D01*
X138897822Y-120061323D01*
X138989412Y-120091853D01*
X139050472Y-120152913D01*
X139081002Y-120213973D01*
X139111532Y-120336093D01*
X139111532Y-120427684D01*
X139081002Y-120549804D01*
X139050472Y-120610864D01*
X138989412Y-120671924D01*
X138897822Y-120702454D01*
X138745172Y-120702454D01*
X139325243Y-120061323D02*
X139722133Y-120061323D01*
X139508423Y-120305563D01*
X139600013Y-120305563D01*
X139661073Y-120336093D01*
X139691603Y-120366623D01*
X139722133Y-120427684D01*
X139722133Y-120580334D01*
X139691603Y-120641394D01*
X139661073Y-120671924D01*
X139600013Y-120702454D01*
X139416833Y-120702454D01*
X139355773Y-120671924D01*
X139325243Y-120641394D01*
%TO.C,J16*%
X62176880Y-114904023D02*
X62891166Y-114904023D01*
X63034023Y-114951642D01*
X63129261Y-115046880D01*
X63176880Y-115189738D01*
X63176880Y-115284976D01*
X63176880Y-113904023D02*
X63176880Y-114475452D01*
X63176880Y-114189738D02*
X62176880Y-114189738D01*
X62319738Y-114284976D01*
X62414976Y-114380214D01*
X62462595Y-114475452D01*
X62176880Y-113046880D02*
X62176880Y-113237357D01*
X62224500Y-113332595D01*
X62272119Y-113380214D01*
X62414976Y-113475452D01*
X62605452Y-113523071D01*
X62986404Y-113523071D01*
X63081642Y-113475452D01*
X63129261Y-113427833D01*
X63176880Y-113332595D01*
X63176880Y-113142119D01*
X63129261Y-113046880D01*
X63081642Y-112999261D01*
X62986404Y-112951642D01*
X62748309Y-112951642D01*
X62653071Y-112999261D01*
X62605452Y-113046880D01*
X62557833Y-113142119D01*
X62557833Y-113332595D01*
X62605452Y-113427833D01*
X62653071Y-113475452D01*
X62748309Y-113523071D01*
%TO.C,T1*%
X94742095Y-149566380D02*
X95313523Y-149566380D01*
X95027809Y-150566380D02*
X95027809Y-149566380D01*
X96170666Y-150566380D02*
X95599238Y-150566380D01*
X95884952Y-150566380D02*
X95884952Y-149566380D01*
X95789714Y-149709238D01*
X95694476Y-149804476D01*
X95599238Y-149852095D01*
%TO.C,R2*%
X123833333Y-32022380D02*
X123500000Y-31546190D01*
X123261904Y-32022380D02*
X123261904Y-31022380D01*
X123642857Y-31022380D01*
X123738095Y-31070000D01*
X123785714Y-31117619D01*
X123833333Y-31212857D01*
X123833333Y-31355714D01*
X123785714Y-31450952D01*
X123738095Y-31498571D01*
X123642857Y-31546190D01*
X123261904Y-31546190D01*
X124214285Y-31117619D02*
X124261904Y-31070000D01*
X124357142Y-31022380D01*
X124595238Y-31022380D01*
X124690476Y-31070000D01*
X124738095Y-31117619D01*
X124785714Y-31212857D01*
X124785714Y-31308095D01*
X124738095Y-31450952D01*
X124166666Y-32022380D01*
X124785714Y-32022380D01*
%TO.C,J6*%
X204051666Y-48657380D02*
X204051666Y-49371666D01*
X204004047Y-49514523D01*
X203908809Y-49609761D01*
X203765952Y-49657380D01*
X203670714Y-49657380D01*
X204956428Y-48657380D02*
X204765952Y-48657380D01*
X204670714Y-48705000D01*
X204623095Y-48752619D01*
X204527857Y-48895476D01*
X204480238Y-49085952D01*
X204480238Y-49466904D01*
X204527857Y-49562142D01*
X204575476Y-49609761D01*
X204670714Y-49657380D01*
X204861190Y-49657380D01*
X204956428Y-49609761D01*
X205004047Y-49562142D01*
X205051666Y-49466904D01*
X205051666Y-49228809D01*
X205004047Y-49133571D01*
X204956428Y-49085952D01*
X204861190Y-49038333D01*
X204670714Y-49038333D01*
X204575476Y-49085952D01*
X204527857Y-49133571D01*
X204480238Y-49228809D01*
%TO.C,U2*%
X153663095Y-63287380D02*
X153663095Y-64096904D01*
X153710714Y-64192142D01*
X153758333Y-64239761D01*
X153853571Y-64287380D01*
X154044047Y-64287380D01*
X154139285Y-64239761D01*
X154186904Y-64192142D01*
X154234523Y-64096904D01*
X154234523Y-63287380D01*
X154663095Y-63382619D02*
X154710714Y-63335000D01*
X154805952Y-63287380D01*
X155044047Y-63287380D01*
X155139285Y-63335000D01*
X155186904Y-63382619D01*
X155234523Y-63477857D01*
X155234523Y-63573095D01*
X155186904Y-63715952D01*
X154615476Y-64287380D01*
X155234523Y-64287380D01*
%TO.C,D2*%
X138745172Y-92702454D02*
X138745172Y-92061323D01*
X138897822Y-92061323D01*
X138989412Y-92091853D01*
X139050472Y-92152913D01*
X139081002Y-92213973D01*
X139111532Y-92336093D01*
X139111532Y-92427684D01*
X139081002Y-92549804D01*
X139050472Y-92610864D01*
X138989412Y-92671924D01*
X138897822Y-92702454D01*
X138745172Y-92702454D01*
X139355773Y-92122383D02*
X139386303Y-92091853D01*
X139447363Y-92061323D01*
X139600013Y-92061323D01*
X139661073Y-92091853D01*
X139691603Y-92122383D01*
X139722133Y-92183443D01*
X139722133Y-92244503D01*
X139691603Y-92336093D01*
X139325243Y-92702454D01*
X139722133Y-92702454D01*
%TO.C,R4*%
X124833333Y-85882380D02*
X124500000Y-85406190D01*
X124261904Y-85882380D02*
X124261904Y-84882380D01*
X124642857Y-84882380D01*
X124738095Y-84930000D01*
X124785714Y-84977619D01*
X124833333Y-85072857D01*
X124833333Y-85215714D01*
X124785714Y-85310952D01*
X124738095Y-85358571D01*
X124642857Y-85406190D01*
X124261904Y-85406190D01*
X125690476Y-85215714D02*
X125690476Y-85882380D01*
X125452380Y-84834761D02*
X125214285Y-85549047D01*
X125833333Y-85549047D01*
%TO.C,R14*%
X150357142Y-150022380D02*
X150023809Y-149546190D01*
X149785714Y-150022380D02*
X149785714Y-149022380D01*
X150166666Y-149022380D01*
X150261904Y-149070000D01*
X150309523Y-149117619D01*
X150357142Y-149212857D01*
X150357142Y-149355714D01*
X150309523Y-149450952D01*
X150261904Y-149498571D01*
X150166666Y-149546190D01*
X149785714Y-149546190D01*
X151309523Y-150022380D02*
X150738095Y-150022380D01*
X151023809Y-150022380D02*
X151023809Y-149022380D01*
X150928571Y-149165238D01*
X150833333Y-149260476D01*
X150738095Y-149308095D01*
X152166666Y-149355714D02*
X152166666Y-150022380D01*
X151928571Y-148974761D02*
X151690476Y-149689047D01*
X152309523Y-149689047D01*
%TO.C,J12*%
X203575476Y-25182380D02*
X203575476Y-25896666D01*
X203527857Y-26039523D01*
X203432619Y-26134761D01*
X203289761Y-26182380D01*
X203194523Y-26182380D01*
X204575476Y-26182380D02*
X204004047Y-26182380D01*
X204289761Y-26182380D02*
X204289761Y-25182380D01*
X204194523Y-25325238D01*
X204099285Y-25420476D01*
X204004047Y-25468095D01*
X204956428Y-25277619D02*
X205004047Y-25230000D01*
X205099285Y-25182380D01*
X205337380Y-25182380D01*
X205432619Y-25230000D01*
X205480238Y-25277619D01*
X205527857Y-25372857D01*
X205527857Y-25468095D01*
X205480238Y-25610952D01*
X204908809Y-26182380D01*
X205527857Y-26182380D01*
%TO.C,PS1*%
X175742380Y-139889285D02*
X174742380Y-139889285D01*
X174742380Y-139508333D01*
X174790000Y-139413095D01*
X174837619Y-139365476D01*
X174932857Y-139317857D01*
X175075714Y-139317857D01*
X175170952Y-139365476D01*
X175218571Y-139413095D01*
X175266190Y-139508333D01*
X175266190Y-139889285D01*
X175694761Y-138936904D02*
X175742380Y-138794047D01*
X175742380Y-138555952D01*
X175694761Y-138460714D01*
X175647142Y-138413095D01*
X175551904Y-138365476D01*
X175456666Y-138365476D01*
X175361428Y-138413095D01*
X175313809Y-138460714D01*
X175266190Y-138555952D01*
X175218571Y-138746428D01*
X175170952Y-138841666D01*
X175123333Y-138889285D01*
X175028095Y-138936904D01*
X174932857Y-138936904D01*
X174837619Y-138889285D01*
X174790000Y-138841666D01*
X174742380Y-138746428D01*
X174742380Y-138508333D01*
X174790000Y-138365476D01*
X175742380Y-137413095D02*
X175742380Y-137984523D01*
X175742380Y-137698809D02*
X174742380Y-137698809D01*
X174885238Y-137794047D01*
X174980476Y-137889285D01*
X175028095Y-137984523D01*
%TO.C,J8*%
X118657380Y-23323333D02*
X119371666Y-23323333D01*
X119514523Y-23370952D01*
X119609761Y-23466190D01*
X119657380Y-23609047D01*
X119657380Y-23704285D01*
X119085952Y-22704285D02*
X119038333Y-22799523D01*
X118990714Y-22847142D01*
X118895476Y-22894761D01*
X118847857Y-22894761D01*
X118752619Y-22847142D01*
X118705000Y-22799523D01*
X118657380Y-22704285D01*
X118657380Y-22513809D01*
X118705000Y-22418571D01*
X118752619Y-22370952D01*
X118847857Y-22323333D01*
X118895476Y-22323333D01*
X118990714Y-22370952D01*
X119038333Y-22418571D01*
X119085952Y-22513809D01*
X119085952Y-22704285D01*
X119133571Y-22799523D01*
X119181190Y-22847142D01*
X119276428Y-22894761D01*
X119466904Y-22894761D01*
X119562142Y-22847142D01*
X119609761Y-22799523D01*
X119657380Y-22704285D01*
X119657380Y-22513809D01*
X119609761Y-22418571D01*
X119562142Y-22370952D01*
X119466904Y-22323333D01*
X119276428Y-22323333D01*
X119181190Y-22370952D01*
X119133571Y-22418571D01*
X119085952Y-22513809D01*
%TO.C,T2*%
X95238095Y-91452380D02*
X95809523Y-91452380D01*
X95523809Y-92452380D02*
X95523809Y-91452380D01*
X96095238Y-91547619D02*
X96142857Y-91500000D01*
X96238095Y-91452380D01*
X96476190Y-91452380D01*
X96571428Y-91500000D01*
X96619047Y-91547619D01*
X96666666Y-91642857D01*
X96666666Y-91738095D01*
X96619047Y-91880952D01*
X96047619Y-92452380D01*
X96666666Y-92452380D01*
%TO.C,R6*%
X119833333Y-147022380D02*
X119500000Y-146546190D01*
X119261904Y-147022380D02*
X119261904Y-146022380D01*
X119642857Y-146022380D01*
X119738095Y-146070000D01*
X119785714Y-146117619D01*
X119833333Y-146212857D01*
X119833333Y-146355714D01*
X119785714Y-146450952D01*
X119738095Y-146498571D01*
X119642857Y-146546190D01*
X119261904Y-146546190D01*
X120690476Y-146022380D02*
X120500000Y-146022380D01*
X120404761Y-146070000D01*
X120357142Y-146117619D01*
X120261904Y-146260476D01*
X120214285Y-146450952D01*
X120214285Y-146831904D01*
X120261904Y-146927142D01*
X120309523Y-146974761D01*
X120404761Y-147022380D01*
X120595238Y-147022380D01*
X120690476Y-146974761D01*
X120738095Y-146927142D01*
X120785714Y-146831904D01*
X120785714Y-146593809D01*
X120738095Y-146498571D01*
X120690476Y-146450952D01*
X120595238Y-146403333D01*
X120404761Y-146403333D01*
X120309523Y-146450952D01*
X120261904Y-146498571D01*
X120214285Y-146593809D01*
%TO.C,J17*%
X131597380Y-24809523D02*
X132311666Y-24809523D01*
X132454523Y-24857142D01*
X132549761Y-24952380D01*
X132597380Y-25095238D01*
X132597380Y-25190476D01*
X132597380Y-23809523D02*
X132597380Y-24380952D01*
X132597380Y-24095238D02*
X131597380Y-24095238D01*
X131740238Y-24190476D01*
X131835476Y-24285714D01*
X131883095Y-24380952D01*
X131597380Y-23476190D02*
X131597380Y-22809523D01*
X132597380Y-23238095D01*
%TO.C,R7*%
X121833333Y-115022380D02*
X121500000Y-114546190D01*
X121261904Y-115022380D02*
X121261904Y-114022380D01*
X121642857Y-114022380D01*
X121738095Y-114070000D01*
X121785714Y-114117619D01*
X121833333Y-114212857D01*
X121833333Y-114355714D01*
X121785714Y-114450952D01*
X121738095Y-114498571D01*
X121642857Y-114546190D01*
X121261904Y-114546190D01*
X122166666Y-114022380D02*
X122833333Y-114022380D01*
X122404761Y-115022380D01*
%TO.C,RV2*%
X158803738Y-151430627D02*
X158325508Y-151765388D01*
X158803738Y-152004503D02*
X157799455Y-152004503D01*
X157799455Y-151621919D01*
X157847278Y-151526273D01*
X157895101Y-151478450D01*
X157990747Y-151430627D01*
X158134216Y-151430627D01*
X158229862Y-151478450D01*
X158277685Y-151526273D01*
X158325508Y-151621919D01*
X158325508Y-152004503D01*
X157799455Y-151143689D02*
X158803738Y-150808928D01*
X157799455Y-150474167D01*
X157895101Y-150187229D02*
X157847278Y-150139406D01*
X157799455Y-150043760D01*
X157799455Y-149804645D01*
X157847278Y-149708999D01*
X157895101Y-149661176D01*
X157990747Y-149613353D01*
X158086393Y-149613353D01*
X158229862Y-149661176D01*
X158803738Y-150235052D01*
X158803738Y-149613353D01*
%TO.C,J7*%
X204051666Y-60182380D02*
X204051666Y-60896666D01*
X204004047Y-61039523D01*
X203908809Y-61134761D01*
X203765952Y-61182380D01*
X203670714Y-61182380D01*
X204432619Y-60182380D02*
X205099285Y-60182380D01*
X204670714Y-61182380D01*
%TO.C,D4*%
X138845172Y-153927454D02*
X138845172Y-153286323D01*
X138997822Y-153286323D01*
X139089412Y-153316853D01*
X139150472Y-153377913D01*
X139181002Y-153438973D01*
X139211532Y-153561093D01*
X139211532Y-153652684D01*
X139181002Y-153774804D01*
X139150472Y-153835864D01*
X139089412Y-153896924D01*
X138997822Y-153927454D01*
X138845172Y-153927454D01*
X139761073Y-153500033D02*
X139761073Y-153927454D01*
X139608423Y-153255793D02*
X139455773Y-153713744D01*
X139852663Y-153713744D01*
%TO.C,R5*%
X117833333Y-115022380D02*
X117500000Y-114546190D01*
X117261904Y-115022380D02*
X117261904Y-114022380D01*
X117642857Y-114022380D01*
X117738095Y-114070000D01*
X117785714Y-114117619D01*
X117833333Y-114212857D01*
X117833333Y-114355714D01*
X117785714Y-114450952D01*
X117738095Y-114498571D01*
X117642857Y-114546190D01*
X117261904Y-114546190D01*
X118738095Y-114022380D02*
X118261904Y-114022380D01*
X118214285Y-114498571D01*
X118261904Y-114450952D01*
X118357142Y-114403333D01*
X118595238Y-114403333D01*
X118690476Y-114450952D01*
X118738095Y-114498571D01*
X118785714Y-114593809D01*
X118785714Y-114831904D01*
X118738095Y-114927142D01*
X118690476Y-114974761D01*
X118595238Y-115022380D01*
X118357142Y-115022380D01*
X118261904Y-114974761D01*
X118214285Y-114927142D01*
%TO.C,J9*%
X164922380Y-19323333D02*
X165636666Y-19323333D01*
X165779523Y-19370952D01*
X165874761Y-19466190D01*
X165922380Y-19609047D01*
X165922380Y-19704285D01*
X165922380Y-18799523D02*
X165922380Y-18609047D01*
X165874761Y-18513809D01*
X165827142Y-18466190D01*
X165684285Y-18370952D01*
X165493809Y-18323333D01*
X165112857Y-18323333D01*
X165017619Y-18370952D01*
X164970000Y-18418571D01*
X164922380Y-18513809D01*
X164922380Y-18704285D01*
X164970000Y-18799523D01*
X165017619Y-18847142D01*
X165112857Y-18894761D01*
X165350952Y-18894761D01*
X165446190Y-18847142D01*
X165493809Y-18799523D01*
X165541428Y-18704285D01*
X165541428Y-18513809D01*
X165493809Y-18418571D01*
X165446190Y-18370952D01*
X165350952Y-18323333D01*
%TO.C,J19*%
X175102380Y-19424523D02*
X175816666Y-19424523D01*
X175959523Y-19472142D01*
X176054761Y-19567380D01*
X176102380Y-19710238D01*
X176102380Y-19805476D01*
X176102380Y-18424523D02*
X176102380Y-18995952D01*
X176102380Y-18710238D02*
X175102380Y-18710238D01*
X175245238Y-18805476D01*
X175340476Y-18900714D01*
X175388095Y-18995952D01*
X176102380Y-17948333D02*
X176102380Y-17757857D01*
X176054761Y-17662619D01*
X176007142Y-17615000D01*
X175864285Y-17519761D01*
X175673809Y-17472142D01*
X175292857Y-17472142D01*
X175197619Y-17519761D01*
X175150000Y-17567380D01*
X175102380Y-17662619D01*
X175102380Y-17853095D01*
X175150000Y-17948333D01*
X175197619Y-17995952D01*
X175292857Y-18043571D01*
X175530952Y-18043571D01*
X175626190Y-17995952D01*
X175673809Y-17948333D01*
X175721428Y-17853095D01*
X175721428Y-17662619D01*
X175673809Y-17567380D01*
X175626190Y-17519761D01*
X175530952Y-17472142D01*
D13*
%TO.C,J11*%
X188480000Y-19275000D02*
X188480000Y-13275000D01*
X191120000Y-22332071D02*
X191120000Y-21935000D01*
X192010000Y-21935000D02*
X192010000Y-19275000D01*
X197150000Y-21935000D02*
X197150000Y-19275000D01*
X195440000Y-22332071D02*
X195440000Y-21935000D01*
X188200000Y-24645000D02*
X186930000Y-24645000D01*
X187820000Y-13275000D02*
X188580000Y-13275000D01*
X188000000Y-19275000D02*
X188000000Y-13275000D01*
X187820000Y-22265000D02*
X187820000Y-21935000D01*
X190360000Y-13275000D02*
X191120000Y-13275000D01*
X187820000Y-19275000D02*
X187820000Y-13275000D01*
X186870000Y-21935000D02*
X197150000Y-21935000D01*
X193660000Y-22332071D02*
X193660000Y-21935000D01*
X192900000Y-13275000D02*
X193660000Y-13275000D01*
X188120000Y-19275000D02*
X188120000Y-13275000D01*
X188580000Y-13275000D02*
X188580000Y-19275000D01*
X186930000Y-24645000D02*
X186930000Y-23375000D01*
X196200000Y-13275000D02*
X196200000Y-19275000D01*
X192900000Y-19275000D02*
X192900000Y-13275000D01*
X188360000Y-19275000D02*
X188360000Y-13275000D01*
X193660000Y-13275000D02*
X193660000Y-19275000D01*
X197150000Y-19275000D02*
X186870000Y-19275000D01*
X186870000Y-19275000D02*
X186870000Y-21935000D01*
X194550000Y-21935000D02*
X194550000Y-19275000D01*
X188240000Y-19275000D02*
X188240000Y-13275000D01*
X187880000Y-19275000D02*
X187880000Y-13275000D01*
X190360000Y-22332071D02*
X190360000Y-21935000D01*
X196200000Y-22332071D02*
X196200000Y-21935000D01*
X188580000Y-22265000D02*
X188580000Y-21935000D01*
X189470000Y-21935000D02*
X189470000Y-19275000D01*
X195440000Y-19275000D02*
X195440000Y-13275000D01*
X191120000Y-13275000D02*
X191120000Y-19275000D01*
X190360000Y-19275000D02*
X190360000Y-13275000D01*
X195440000Y-13275000D02*
X196200000Y-13275000D01*
X192900000Y-22332071D02*
X192900000Y-21935000D01*
D14*
%TO.C,J14*%
X61211000Y-100080500D02*
X48511000Y-100080500D01*
X61211000Y-81919500D02*
X61211000Y-100080500D01*
X48511000Y-81919500D02*
X61211000Y-81919500D01*
X48511000Y-100080500D02*
X48511000Y-81919500D01*
D15*
X61915000Y-86999500D02*
G75*
G03*
X61915000Y-86999500I-100000J0D01*
G01*
D14*
%TO.C,J1*%
X181544500Y-159414500D02*
X181544500Y-146714500D01*
X181544500Y-146714500D02*
X199705500Y-146714500D01*
X199705500Y-146714500D02*
X199705500Y-159414500D01*
X199705500Y-159414500D02*
X181544500Y-159414500D01*
D15*
X186724500Y-146110500D02*
G75*
G03*
X186724500Y-146110500I-100000J0D01*
G01*
D13*
%TO.C,R9*%
X126254724Y-114522500D02*
X125745276Y-114522500D01*
X126254724Y-113477500D02*
X125745276Y-113477500D01*
%TO.C,J5*%
X201042929Y-44700000D02*
X201440000Y-44700000D01*
X204100000Y-40160000D02*
X210100000Y-40160000D01*
X204100000Y-44700000D02*
X210100000Y-44700000D01*
X198730000Y-38730000D02*
X200000000Y-38730000D01*
X198730000Y-40000000D02*
X198730000Y-38730000D01*
X201042929Y-42920000D02*
X201440000Y-42920000D01*
X204100000Y-39800000D02*
X210100000Y-39800000D01*
X204100000Y-40040000D02*
X210100000Y-40040000D01*
X204100000Y-40280000D02*
X210100000Y-40280000D01*
X201042929Y-45460000D02*
X201440000Y-45460000D01*
X201440000Y-38670000D02*
X201440000Y-46410000D01*
X204100000Y-39680000D02*
X210100000Y-39680000D01*
X210100000Y-42920000D02*
X204100000Y-42920000D01*
X204100000Y-39620000D02*
X210100000Y-39620000D01*
X201110000Y-39620000D02*
X201440000Y-39620000D01*
X210100000Y-45460000D02*
X204100000Y-45460000D01*
X201440000Y-46410000D02*
X204100000Y-46410000D01*
X201110000Y-40380000D02*
X201440000Y-40380000D01*
X210100000Y-39620000D02*
X210100000Y-40380000D01*
X210100000Y-44700000D02*
X210100000Y-45460000D01*
X204100000Y-46410000D02*
X204100000Y-38670000D01*
X201440000Y-43810000D02*
X204100000Y-43810000D01*
X204100000Y-38670000D02*
X201440000Y-38670000D01*
X210100000Y-42160000D02*
X210100000Y-42920000D01*
X204100000Y-39920000D02*
X210100000Y-39920000D01*
X201440000Y-41270000D02*
X204100000Y-41270000D01*
X204100000Y-42160000D02*
X210100000Y-42160000D01*
X210100000Y-40380000D02*
X204100000Y-40380000D01*
X201042929Y-42160000D02*
X201440000Y-42160000D01*
%TO.C,R8*%
X123745276Y-147477500D02*
X124254724Y-147477500D01*
X123745276Y-148522500D02*
X124254724Y-148522500D01*
%TO.C,R3*%
X120745276Y-86522500D02*
X121254724Y-86522500D01*
X120745276Y-85477500D02*
X121254724Y-85477500D01*
%TO.C,A1*%
X113530500Y-75914500D02*
X115180500Y-74264500D01*
X46980500Y-34634500D02*
X48880500Y-34634500D01*
X48880500Y-34634500D02*
X48880500Y-54704500D01*
X48880500Y-75914500D02*
X113530500Y-75914500D01*
X42530500Y-66384500D02*
X48880500Y-66384500D01*
X115180500Y-74264500D02*
X115180500Y-62834500D01*
X115180500Y-24984500D02*
X115180500Y-22314500D01*
X117720500Y-60294500D02*
X117720500Y-27524500D01*
X117720500Y-27524500D02*
X115180500Y-24984500D01*
X48880500Y-25494500D02*
X46980500Y-25494500D01*
X115180500Y-22314500D02*
X48880500Y-22314500D01*
X48880500Y-22314500D02*
X48880500Y-25494500D01*
X48880500Y-66384500D02*
X48880500Y-75914500D01*
X42530500Y-54704500D02*
X42530500Y-66384500D01*
X46980500Y-25494500D02*
X46980500Y-34634500D01*
X115180500Y-62834500D02*
X117720500Y-60294500D01*
X48880500Y-54704500D02*
X42530500Y-54704500D01*
%TO.C,R12*%
X116745276Y-86522500D02*
X117254724Y-86522500D01*
X116745276Y-85477500D02*
X117254724Y-85477500D01*
%TO.C,R11*%
X150745276Y-90522500D02*
X151254724Y-90522500D01*
X150745276Y-89477500D02*
X151254724Y-89477500D01*
D14*
%TO.C,RV3*%
X164410000Y-94765000D02*
X159580000Y-94765000D01*
X164410000Y-85235000D02*
X164410000Y-94765000D01*
X159580000Y-85235000D02*
X164410000Y-85235000D01*
X159580000Y-94765000D02*
X159580000Y-85235000D01*
D15*
X162100000Y-95250000D02*
G75*
G03*
X162100000Y-95250000I-100000J0D01*
G01*
D13*
%TO.C,R10*%
X128254724Y-145477500D02*
X127745276Y-145477500D01*
X128254724Y-146522500D02*
X127745276Y-146522500D01*
D14*
%TO.C,J15*%
X61085500Y-143919500D02*
X61085500Y-162080500D01*
X61085500Y-162080500D02*
X48385500Y-162080500D01*
X48385500Y-143919500D02*
X61085500Y-143919500D01*
X48385500Y-162080500D02*
X48385500Y-143919500D01*
D15*
X61789500Y-148999500D02*
G75*
G03*
X61789500Y-148999500I-100000J0D01*
G01*
D13*
%TO.C,J10*%
X198355000Y-87930000D02*
X199625000Y-87930000D01*
X203725000Y-89240000D02*
X209725000Y-89240000D01*
X209725000Y-94660000D02*
X203725000Y-94660000D01*
X203725000Y-89120000D02*
X209725000Y-89120000D01*
X198355000Y-89200000D02*
X198355000Y-87930000D01*
X203725000Y-89360000D02*
X209725000Y-89360000D01*
X200667929Y-97200000D02*
X201065000Y-97200000D01*
X201065000Y-93010000D02*
X203725000Y-93010000D01*
X209725000Y-97200000D02*
X203725000Y-97200000D01*
X203725000Y-89480000D02*
X209725000Y-89480000D01*
X203725000Y-88880000D02*
X209725000Y-88880000D01*
X209725000Y-91360000D02*
X209725000Y-92120000D01*
X203725000Y-87870000D02*
X201065000Y-87870000D01*
X200667929Y-92120000D02*
X201065000Y-92120000D01*
X201065000Y-98150000D02*
X203725000Y-98150000D01*
X200667929Y-94660000D02*
X201065000Y-94660000D01*
X203725000Y-96440000D02*
X209725000Y-96440000D01*
X201065000Y-87870000D02*
X201065000Y-98150000D01*
X203725000Y-98150000D02*
X203725000Y-87870000D01*
X200667929Y-93900000D02*
X201065000Y-93900000D01*
X209725000Y-88820000D02*
X209725000Y-89580000D01*
X200667929Y-91360000D02*
X201065000Y-91360000D01*
X200667929Y-96440000D02*
X201065000Y-96440000D01*
X209725000Y-93900000D02*
X209725000Y-94660000D01*
X201065000Y-90470000D02*
X203725000Y-90470000D01*
X200735000Y-88820000D02*
X201065000Y-88820000D01*
X209725000Y-96440000D02*
X209725000Y-97200000D01*
X203725000Y-89000000D02*
X209725000Y-89000000D01*
X203725000Y-88820000D02*
X209725000Y-88820000D01*
X203725000Y-91360000D02*
X209725000Y-91360000D01*
X209725000Y-89580000D02*
X203725000Y-89580000D01*
X203725000Y-93900000D02*
X209725000Y-93900000D01*
X209725000Y-92120000D02*
X203725000Y-92120000D01*
X200735000Y-89580000D02*
X201065000Y-89580000D01*
X201065000Y-95550000D02*
X203725000Y-95550000D01*
%TO.C,R13*%
X149745276Y-118477500D02*
X150254724Y-118477500D01*
X149745276Y-119522500D02*
X150254724Y-119522500D01*
%TO.C,J20*%
X147665000Y-25330000D02*
X152805000Y-25330000D01*
X146395000Y-25330000D02*
X145065000Y-25330000D01*
X147665000Y-25330000D02*
X147665000Y-22670000D01*
X147665000Y-22670000D02*
X152805000Y-22670000D01*
X145065000Y-25330000D02*
X145065000Y-24000000D01*
X152805000Y-25330000D02*
X152805000Y-22670000D01*
D14*
%TO.C,RV1*%
X158580000Y-113235000D02*
X163410000Y-113235000D01*
X163410000Y-113235000D02*
X163410000Y-122765000D01*
X158580000Y-122765000D02*
X158580000Y-113235000D01*
X163410000Y-122765000D02*
X158580000Y-122765000D01*
D15*
X161100000Y-123250000D02*
G75*
G03*
X161100000Y-123250000I-100000J0D01*
G01*
D13*
%TO.C,J13*%
X201042929Y-77920000D02*
X201440000Y-77920000D01*
X204100000Y-75040000D02*
X210100000Y-75040000D01*
X204100000Y-74620000D02*
X210100000Y-74620000D01*
X198730000Y-73730000D02*
X200000000Y-73730000D01*
X198730000Y-75000000D02*
X198730000Y-73730000D01*
X201110000Y-75380000D02*
X201440000Y-75380000D01*
X210100000Y-75380000D02*
X204100000Y-75380000D01*
X210100000Y-77920000D02*
X204100000Y-77920000D01*
X204100000Y-79700000D02*
X210100000Y-79700000D01*
X201042929Y-77160000D02*
X201440000Y-77160000D01*
X201440000Y-73670000D02*
X201440000Y-81410000D01*
X204100000Y-74680000D02*
X210100000Y-74680000D01*
X201440000Y-81410000D02*
X204100000Y-81410000D01*
X204100000Y-74920000D02*
X210100000Y-74920000D01*
X201440000Y-78810000D02*
X204100000Y-78810000D01*
X204100000Y-75280000D02*
X210100000Y-75280000D01*
X201440000Y-76270000D02*
X204100000Y-76270000D01*
X204100000Y-75160000D02*
X210100000Y-75160000D01*
X210100000Y-79700000D02*
X210100000Y-80460000D01*
X204100000Y-73670000D02*
X201440000Y-73670000D01*
X210100000Y-77160000D02*
X210100000Y-77920000D01*
X204100000Y-81410000D02*
X204100000Y-73670000D01*
X201042929Y-79700000D02*
X201440000Y-79700000D01*
X210100000Y-74620000D02*
X210100000Y-75380000D01*
X204100000Y-74800000D02*
X210100000Y-74800000D01*
X201042929Y-80460000D02*
X201440000Y-80460000D01*
X204100000Y-77160000D02*
X210100000Y-77160000D01*
X210100000Y-80460000D02*
X204100000Y-80460000D01*
X201110000Y-74620000D02*
X201440000Y-74620000D01*
%TO.C,R1*%
X195522500Y-54745276D02*
X195522500Y-55254724D01*
X194477500Y-54745276D02*
X194477500Y-55254724D01*
%TO.C,J21*%
X159745000Y-25330000D02*
X164885000Y-25330000D01*
X159745000Y-25330000D02*
X159745000Y-22670000D01*
X158475000Y-25330000D02*
X157145000Y-25330000D01*
X159745000Y-22670000D02*
X164885000Y-22670000D01*
X164885000Y-25330000D02*
X164885000Y-22670000D01*
X157145000Y-25330000D02*
X157145000Y-24000000D01*
D14*
%TO.C,D3*%
X136900000Y-114520000D02*
X136900000Y-115100000D01*
X141100000Y-119480000D02*
X136900000Y-119480000D01*
X141100000Y-115100000D02*
X141100000Y-114520000D01*
X141100000Y-114520000D02*
X136900000Y-114520000D01*
X136900000Y-119480000D02*
X136900000Y-118900000D01*
X141100000Y-118950000D02*
X141100000Y-119480000D01*
D15*
X143600000Y-118250000D02*
G75*
G03*
X143600000Y-118250000I-100000J0D01*
G01*
D14*
%TO.C,J16*%
X61085500Y-111919500D02*
X61085500Y-130080500D01*
X48385500Y-111919500D02*
X61085500Y-111919500D01*
X48385500Y-130080500D02*
X48385500Y-111919500D01*
X61085500Y-130080500D02*
X48385500Y-130080500D01*
D15*
X61789500Y-116999500D02*
G75*
G03*
X61789500Y-116999500I-100000J0D01*
G01*
D13*
%TO.C,R2*%
X123745276Y-32477500D02*
X124254724Y-32477500D01*
X123745276Y-33522500D02*
X124254724Y-33522500D01*
%TO.C,J6*%
X204100000Y-50145000D02*
X201440000Y-50145000D01*
X201440000Y-52745000D02*
X204100000Y-52745000D01*
X204100000Y-51095000D02*
X210100000Y-51095000D01*
X210100000Y-56935000D02*
X204100000Y-56935000D01*
X201440000Y-57885000D02*
X204100000Y-57885000D01*
X204100000Y-51635000D02*
X210100000Y-51635000D01*
X201110000Y-51855000D02*
X201440000Y-51855000D01*
X201042929Y-56935000D02*
X201440000Y-56935000D01*
X204100000Y-51395000D02*
X210100000Y-51395000D01*
X204100000Y-51515000D02*
X210100000Y-51515000D01*
X210100000Y-54395000D02*
X204100000Y-54395000D01*
X210100000Y-53635000D02*
X210100000Y-54395000D01*
X210100000Y-51095000D02*
X210100000Y-51855000D01*
X204100000Y-51155000D02*
X210100000Y-51155000D01*
X201042929Y-53635000D02*
X201440000Y-53635000D01*
X210100000Y-56175000D02*
X210100000Y-56935000D01*
X201042929Y-54395000D02*
X201440000Y-54395000D01*
X204100000Y-53635000D02*
X210100000Y-53635000D01*
X201042929Y-56175000D02*
X201440000Y-56175000D01*
X198730000Y-51475000D02*
X198730000Y-50205000D01*
X204100000Y-57885000D02*
X204100000Y-50145000D01*
X201110000Y-51095000D02*
X201440000Y-51095000D01*
X204100000Y-51755000D02*
X210100000Y-51755000D01*
X204100000Y-56175000D02*
X210100000Y-56175000D01*
X201440000Y-55285000D02*
X204100000Y-55285000D01*
X201440000Y-50145000D02*
X201440000Y-57885000D01*
X204100000Y-51275000D02*
X210100000Y-51275000D01*
X210100000Y-51855000D02*
X204100000Y-51855000D01*
X198730000Y-50205000D02*
X200000000Y-50205000D01*
D14*
%TO.C,U2*%
X156175000Y-62775000D02*
X149825000Y-62775000D01*
X156175000Y-43225000D02*
X149825000Y-43225000D01*
D15*
X158135000Y-61890000D02*
G75*
G03*
X158135000Y-61890000I-100000J0D01*
G01*
D14*
%TO.C,D2*%
X141100000Y-90950000D02*
X141100000Y-91480000D01*
X141100000Y-91480000D02*
X136900000Y-91480000D01*
X136900000Y-91480000D02*
X136900000Y-90900000D01*
X136900000Y-86520000D02*
X136900000Y-87100000D01*
X141100000Y-86520000D02*
X136900000Y-86520000D01*
X141100000Y-87100000D02*
X141100000Y-86520000D01*
D15*
X143600000Y-90250000D02*
G75*
G03*
X143600000Y-90250000I-100000J0D01*
G01*
D13*
%TO.C,R4*%
X125254724Y-84522500D02*
X124745276Y-84522500D01*
X125254724Y-83477500D02*
X124745276Y-83477500D01*
%TO.C,R14*%
X150745276Y-151522500D02*
X151254724Y-151522500D01*
X150745276Y-150477500D02*
X151254724Y-150477500D01*
%TO.C,J12*%
X201440000Y-29270000D02*
X204100000Y-29270000D01*
X201110000Y-27620000D02*
X201440000Y-27620000D01*
X210100000Y-30160000D02*
X210100000Y-30920000D01*
X204100000Y-32700000D02*
X210100000Y-32700000D01*
X204100000Y-27680000D02*
X210100000Y-27680000D01*
X201440000Y-26670000D02*
X201440000Y-34410000D01*
X210100000Y-28380000D02*
X204100000Y-28380000D01*
X204100000Y-27920000D02*
X210100000Y-27920000D01*
X201042929Y-32700000D02*
X201440000Y-32700000D01*
X210100000Y-30920000D02*
X204100000Y-30920000D01*
X201440000Y-31810000D02*
X204100000Y-31810000D01*
X204100000Y-27800000D02*
X210100000Y-27800000D01*
X204100000Y-26670000D02*
X201440000Y-26670000D01*
X204100000Y-28040000D02*
X210100000Y-28040000D01*
X201042929Y-30920000D02*
X201440000Y-30920000D01*
X198730000Y-28000000D02*
X198730000Y-26730000D01*
X201042929Y-30160000D02*
X201440000Y-30160000D01*
X210100000Y-33460000D02*
X204100000Y-33460000D01*
X204100000Y-34410000D02*
X204100000Y-26670000D01*
X210100000Y-27620000D02*
X210100000Y-28380000D01*
X210100000Y-32700000D02*
X210100000Y-33460000D01*
X201440000Y-34410000D02*
X204100000Y-34410000D01*
X204100000Y-27620000D02*
X210100000Y-27620000D01*
X201042929Y-33460000D02*
X201440000Y-33460000D01*
X204100000Y-28280000D02*
X210100000Y-28280000D01*
X198730000Y-26730000D02*
X200000000Y-26730000D01*
X201110000Y-28380000D02*
X201440000Y-28380000D01*
X204100000Y-30160000D02*
X210100000Y-30160000D01*
X204100000Y-28160000D02*
X210100000Y-28160000D01*
D14*
%TO.C,PS1*%
X200125000Y-141800000D02*
X200125000Y-103800000D01*
X177125000Y-141800000D02*
X200125000Y-141800000D01*
X200125000Y-103800000D02*
X177125000Y-103800000D01*
X177125000Y-103800000D02*
X177125000Y-141800000D01*
D15*
X185525000Y-142600000D02*
G75*
G03*
X185525000Y-142600000I-100000J0D01*
G01*
D13*
%TO.C,J8*%
X122745000Y-25935000D02*
X122745000Y-23275000D01*
X127885000Y-23275000D02*
X120145000Y-23275000D01*
X120205000Y-28645000D02*
X120205000Y-27375000D01*
X121095000Y-23275000D02*
X121095000Y-17275000D01*
X121635000Y-23275000D02*
X121635000Y-17275000D01*
X121475000Y-28645000D02*
X120205000Y-28645000D01*
X121395000Y-23275000D02*
X121395000Y-17275000D01*
X123635000Y-23275000D02*
X123635000Y-17275000D01*
X123635000Y-26332071D02*
X123635000Y-25935000D01*
X126935000Y-17275000D02*
X126935000Y-23275000D01*
X120145000Y-25935000D02*
X127885000Y-25935000D01*
X125285000Y-25935000D02*
X125285000Y-23275000D01*
X127885000Y-25935000D02*
X127885000Y-23275000D01*
X120145000Y-23275000D02*
X120145000Y-25935000D01*
X121855000Y-26265000D02*
X121855000Y-25935000D01*
X124395000Y-17275000D02*
X124395000Y-23275000D01*
X121275000Y-23275000D02*
X121275000Y-17275000D01*
X123635000Y-17275000D02*
X124395000Y-17275000D01*
X124395000Y-26332071D02*
X124395000Y-25935000D01*
X121855000Y-17275000D02*
X121855000Y-23275000D01*
X121155000Y-23275000D02*
X121155000Y-17275000D01*
X126175000Y-23275000D02*
X126175000Y-17275000D01*
X121095000Y-26265000D02*
X121095000Y-25935000D01*
X121755000Y-23275000D02*
X121755000Y-17275000D01*
X121515000Y-23275000D02*
X121515000Y-17275000D01*
X126175000Y-17275000D02*
X126935000Y-17275000D01*
X126935000Y-26332071D02*
X126935000Y-25935000D01*
X121095000Y-17275000D02*
X121855000Y-17275000D01*
X126175000Y-26332071D02*
X126175000Y-25935000D01*
%TO.C,R6*%
X119745276Y-148522500D02*
X120254724Y-148522500D01*
X119745276Y-147477500D02*
X120254724Y-147477500D01*
%TO.C,J17*%
X135745000Y-22670000D02*
X140885000Y-22670000D01*
X140885000Y-25330000D02*
X140885000Y-22670000D01*
X135745000Y-25330000D02*
X140885000Y-25330000D01*
X133145000Y-25330000D02*
X133145000Y-24000000D01*
X134475000Y-25330000D02*
X133145000Y-25330000D01*
X135745000Y-25330000D02*
X135745000Y-22670000D01*
%TO.C,R7*%
X121745276Y-115477500D02*
X122254724Y-115477500D01*
X121745276Y-116522500D02*
X122254724Y-116522500D01*
D14*
%TO.C,RV2*%
X164410000Y-144235000D02*
X164410000Y-153765000D01*
X164410000Y-153765000D02*
X159580000Y-153765000D01*
X159580000Y-144235000D02*
X164410000Y-144235000D01*
X159580000Y-153765000D02*
X159580000Y-144235000D01*
D15*
X162100000Y-154250000D02*
G75*
G03*
X162100000Y-154250000I-100000J0D01*
G01*
%TO.C,G\u002A\u002A\u002A*%
G36*
X89804400Y-52505880D02*
G01*
X90212334Y-53280428D01*
X90236677Y-52505880D01*
X90261021Y-51731333D01*
X90847334Y-51731333D01*
X90847334Y-54440666D01*
X90527775Y-54440666D01*
X90385650Y-54436140D01*
X90278159Y-54405008D01*
X90181669Y-54320938D01*
X90072550Y-54157599D01*
X89927172Y-53888660D01*
X89786942Y-53615166D01*
X89365667Y-52789666D01*
X89341434Y-53615166D01*
X89317202Y-54440666D01*
X89080379Y-54440666D01*
X88887610Y-54422306D01*
X88787111Y-54384222D01*
X88767581Y-54284098D01*
X88750979Y-54045296D01*
X88738584Y-53698462D01*
X88731671Y-53274245D01*
X88730667Y-53029555D01*
X88730667Y-51731333D01*
X89396467Y-51731333D01*
X89804400Y-52505880D01*
G37*
G36*
X91799834Y-47598468D02*
G01*
X92075000Y-47625000D01*
X92098317Y-48958500D01*
X92121633Y-50292000D01*
X91446958Y-50292000D01*
X90596008Y-48725666D01*
X90593334Y-50292000D01*
X90000667Y-50292000D01*
X90000667Y-47582666D01*
X90639464Y-47582666D01*
X91077126Y-48450500D01*
X91514789Y-49318333D01*
X91524667Y-47571937D01*
X91799834Y-47598468D01*
G37*
G36*
X61718002Y-48993868D02*
G01*
X62092884Y-49018812D01*
X62580326Y-49054123D01*
X63161623Y-49098250D01*
X63818075Y-49149642D01*
X64530978Y-49206750D01*
X65281631Y-49268023D01*
X66051330Y-49331911D01*
X66821374Y-49396864D01*
X67573060Y-49461331D01*
X68287685Y-49523762D01*
X68946548Y-49582607D01*
X69530945Y-49636315D01*
X70022175Y-49683337D01*
X70401535Y-49722122D01*
X70618641Y-49747022D01*
X71006281Y-49795894D01*
X70801708Y-50192113D01*
X70698373Y-50414222D01*
X70641630Y-50617685D01*
X70622709Y-50860965D01*
X70632844Y-51202527D01*
X70637532Y-51286833D01*
X70650806Y-51665581D01*
X70636658Y-51891145D01*
X70593946Y-51977620D01*
X70581464Y-51979442D01*
X70484317Y-51955588D01*
X70239359Y-51889063D01*
X69861497Y-51784078D01*
X69365635Y-51644841D01*
X68766678Y-51475562D01*
X68079532Y-51280449D01*
X67319100Y-51063711D01*
X66500289Y-50829559D01*
X65891834Y-50655095D01*
X64892879Y-50367670D01*
X64045309Y-50122088D01*
X63337428Y-49914602D01*
X62757537Y-49741466D01*
X62293939Y-49598936D01*
X61934940Y-49483266D01*
X61668840Y-49390710D01*
X61483943Y-49317523D01*
X61368553Y-49259959D01*
X61310973Y-49214274D01*
X61298667Y-49184316D01*
X61339105Y-49028188D01*
X61380724Y-48981279D01*
X61474381Y-48980840D01*
X61718002Y-48993868D01*
G37*
G36*
X86783334Y-52747333D02*
G01*
X87714667Y-52747333D01*
X87714667Y-51731333D01*
X88307334Y-51731333D01*
X88307334Y-54440666D01*
X87714667Y-54440666D01*
X87714667Y-53255333D01*
X86783334Y-53255333D01*
X86783334Y-54440666D01*
X86190667Y-54440666D01*
X86190667Y-51731333D01*
X86783334Y-51731333D01*
X86783334Y-52747333D01*
G37*
G36*
X81872667Y-51985333D02*
G01*
X81861622Y-52141521D01*
X81797852Y-52215497D01*
X81635403Y-52237897D01*
X81491667Y-52239333D01*
X81110667Y-52239333D01*
X81110667Y-54440666D01*
X80870778Y-54440666D01*
X80676870Y-54422533D01*
X80574445Y-54384222D01*
X80552808Y-54282373D01*
X80535007Y-54045843D01*
X80522817Y-53709273D01*
X80518015Y-53307301D01*
X80518000Y-53283555D01*
X80518000Y-52239333D01*
X80179334Y-52239333D01*
X79962178Y-52229303D01*
X79865643Y-52174948D01*
X79841201Y-52039874D01*
X79840667Y-51985333D01*
X79840667Y-51731333D01*
X81872667Y-51731333D01*
X81872667Y-51985333D01*
G37*
G36*
X113482656Y-52760626D02*
G01*
X113504616Y-53196342D01*
X113522452Y-53602216D01*
X113534215Y-53930361D01*
X113538000Y-54120657D01*
X113529247Y-54333146D01*
X113475682Y-54421626D01*
X113336349Y-54431374D01*
X113262834Y-54424864D01*
X112987667Y-54398333D01*
X112945334Y-53551666D01*
X112903000Y-52705000D01*
X112688192Y-53382333D01*
X112581170Y-53712022D01*
X112500958Y-53912407D01*
X112423449Y-54015682D01*
X112324536Y-54054037D01*
X112180963Y-54059666D01*
X112030693Y-54053557D01*
X111932239Y-54012283D01*
X111859773Y-53901427D01*
X111787473Y-53686571D01*
X111720384Y-53445833D01*
X111632228Y-53151962D01*
X111552505Y-52934792D01*
X111496306Y-52834529D01*
X111489957Y-52832000D01*
X111460434Y-52910448D01*
X111432762Y-53120949D01*
X111411060Y-53426238D01*
X111403344Y-53615166D01*
X111379000Y-54398333D01*
X111093998Y-54425597D01*
X110808996Y-54452862D01*
X110867203Y-53240264D01*
X110893654Y-52699129D01*
X110918252Y-52304549D01*
X110948428Y-52033999D01*
X110991609Y-51864955D01*
X111055223Y-51774892D01*
X111146700Y-51741286D01*
X111273468Y-51741613D01*
X111359365Y-51747980D01*
X111706451Y-51773666D01*
X111922129Y-52556833D01*
X112019504Y-52892423D01*
X112105455Y-53156129D01*
X112167898Y-53312476D01*
X112188877Y-53340000D01*
X112232805Y-53264283D01*
X112310109Y-53060292D01*
X112408324Y-52762762D01*
X112477473Y-52535666D01*
X112715000Y-51731333D01*
X113427311Y-51731333D01*
X113482656Y-52760626D01*
G37*
G36*
X83333167Y-47598468D02*
G01*
X83608334Y-47625000D01*
X83631675Y-48963474D01*
X83655017Y-50301948D01*
X82936273Y-50249666D01*
X82533292Y-49487666D01*
X82130310Y-48725666D01*
X82128489Y-49508833D01*
X82126667Y-50292000D01*
X81534000Y-50292000D01*
X81534000Y-47582666D01*
X82172798Y-47582666D01*
X82610460Y-48450500D01*
X83048122Y-49318333D01*
X83058000Y-47571937D01*
X83333167Y-47598468D01*
G37*
G36*
X57527639Y-49867096D02*
G01*
X57536310Y-49873073D01*
X57639706Y-49993072D01*
X57658000Y-50046148D01*
X57596300Y-50113386D01*
X57424468Y-50272099D01*
X57162412Y-50505299D01*
X56830036Y-50795999D01*
X56447246Y-51127210D01*
X56033947Y-51481945D01*
X55610045Y-51843214D01*
X55195446Y-52194031D01*
X54810054Y-52517407D01*
X54473776Y-52796353D01*
X54206516Y-53013882D01*
X54028181Y-53153006D01*
X53972195Y-53191749D01*
X53868516Y-53165846D01*
X53709977Y-52993598D01*
X53526932Y-52726083D01*
X53368594Y-52463433D01*
X53260174Y-52256946D01*
X53222138Y-52146150D01*
X53223685Y-52140366D01*
X53303528Y-52086074D01*
X53512486Y-51960950D01*
X53831417Y-51775984D01*
X54241181Y-51542161D01*
X54722637Y-51270472D01*
X55256645Y-50971903D01*
X55335730Y-50927906D01*
X55966651Y-50579183D01*
X56466358Y-50308307D01*
X56850020Y-50108005D01*
X57132809Y-49971004D01*
X57329894Y-49890034D01*
X57456448Y-49857822D01*
X57527639Y-49867096D01*
G37*
G36*
X91273118Y-52447853D02*
G01*
X91393405Y-52191621D01*
X91666025Y-51914938D01*
X92022128Y-51746411D01*
X92412000Y-51697098D01*
X92785928Y-51778059D01*
X92922911Y-51851363D01*
X93183691Y-52112604D01*
X93355776Y-52469634D01*
X93439827Y-52882625D01*
X93436504Y-53311750D01*
X93346468Y-53717183D01*
X93170378Y-54059095D01*
X92908896Y-54297661D01*
X92882105Y-54312233D01*
X92502284Y-54424666D01*
X92091464Y-54412564D01*
X91724907Y-54278184D01*
X91484995Y-54041491D01*
X91312417Y-53693261D01*
X91214616Y-53280344D01*
X91206766Y-53063312D01*
X91863334Y-53063312D01*
X91903832Y-53490868D01*
X92023588Y-53777452D01*
X92219993Y-53918196D01*
X92329000Y-53932666D01*
X92532039Y-53865239D01*
X92662866Y-53744494D01*
X92743964Y-53531842D01*
X92787237Y-53223988D01*
X92790148Y-52891341D01*
X92750160Y-52604316D01*
X92708060Y-52489707D01*
X92560728Y-52314710D01*
X92453493Y-52237991D01*
X92312102Y-52199337D01*
X92170776Y-52270228D01*
X92074434Y-52359202D01*
X91948871Y-52514735D01*
X91884970Y-52697645D01*
X91864042Y-52970266D01*
X91863334Y-53063312D01*
X91206766Y-53063312D01*
X91199035Y-52849591D01*
X91273118Y-52447853D01*
G37*
G36*
X54457980Y-48652577D02*
G01*
X55103702Y-48664807D01*
X55696762Y-48677926D01*
X56215422Y-48691305D01*
X56637944Y-48704312D01*
X56942587Y-48716319D01*
X57107615Y-48726695D01*
X57128834Y-48729963D01*
X57228326Y-48827355D01*
X57223903Y-48976571D01*
X57129676Y-49108008D01*
X57044167Y-49147623D01*
X56914215Y-49172970D01*
X56640159Y-49222984D01*
X56244777Y-49293627D01*
X55750846Y-49380861D01*
X55181145Y-49480648D01*
X54558452Y-49588949D01*
X54398334Y-49616679D01*
X53767937Y-49726028D01*
X53186588Y-49827371D01*
X52676701Y-49916762D01*
X52260685Y-49990254D01*
X51960953Y-50043901D01*
X51799916Y-50073756D01*
X51783643Y-50077109D01*
X51697713Y-50082000D01*
X51655676Y-50023681D01*
X51649218Y-49866733D01*
X51668933Y-49588499D01*
X51707710Y-49266653D01*
X51761404Y-48980919D01*
X51803270Y-48836123D01*
X51892960Y-48607914D01*
X54457980Y-48652577D01*
G37*
G36*
X73496655Y-46388381D02*
G01*
X73464399Y-46607951D01*
X73400512Y-46896012D01*
X73316316Y-47206612D01*
X73223136Y-47493796D01*
X73135595Y-47705099D01*
X72987379Y-47963101D01*
X72783426Y-48272991D01*
X72624047Y-48492833D01*
X72284741Y-48937333D01*
X69818537Y-48921668D01*
X69082438Y-48915993D01*
X68225323Y-48907727D01*
X67295478Y-48897438D01*
X66341191Y-48885696D01*
X65410750Y-48873072D01*
X64552441Y-48860134D01*
X64416996Y-48857942D01*
X63728924Y-48845522D01*
X63095826Y-48831878D01*
X62537313Y-48817604D01*
X62072994Y-48803294D01*
X61722479Y-48789541D01*
X61505378Y-48776941D01*
X61440545Y-48767773D01*
X61367334Y-48606815D01*
X61398736Y-48442978D01*
X61510334Y-48357312D01*
X61706636Y-48318885D01*
X62041891Y-48256860D01*
X62500003Y-48174023D01*
X63064872Y-48073164D01*
X63720401Y-47957070D01*
X64450493Y-47828528D01*
X65239048Y-47690328D01*
X66069970Y-47545257D01*
X66927161Y-47396102D01*
X67794522Y-47245653D01*
X68655956Y-47096697D01*
X69495365Y-46952021D01*
X70296651Y-46814415D01*
X71043715Y-46686665D01*
X71720462Y-46571560D01*
X72310791Y-46471888D01*
X72798606Y-46390437D01*
X73167809Y-46329995D01*
X73402302Y-46293350D01*
X73485956Y-46283255D01*
X73496655Y-46388381D01*
G37*
G36*
X59550328Y-50811261D02*
G01*
X59609793Y-50861804D01*
X59662651Y-50976768D01*
X59717163Y-51181292D01*
X59781589Y-51500515D01*
X59864188Y-51959576D01*
X59872426Y-52006500D01*
X59967169Y-52591601D01*
X60017834Y-53015851D01*
X60024674Y-53281828D01*
X60005793Y-53370947D01*
X59957759Y-53522736D01*
X59895933Y-53794035D01*
X59830802Y-54136773D01*
X59804469Y-54293668D01*
X59705441Y-54813884D01*
X59594817Y-55192387D01*
X59462406Y-55456794D01*
X59314583Y-55621366D01*
X59271574Y-55643550D01*
X59238945Y-55616744D01*
X59215300Y-55522078D01*
X59199242Y-55340682D01*
X59189376Y-55053685D01*
X59184306Y-54642215D01*
X59182636Y-54087402D01*
X59182602Y-53837200D01*
X59185241Y-53246977D01*
X59192272Y-52676945D01*
X59202931Y-52161718D01*
X59216449Y-51735915D01*
X59232061Y-51434152D01*
X59237179Y-51371500D01*
X59271334Y-51066845D01*
X59311678Y-50894538D01*
X59373562Y-50817839D01*
X59472339Y-50800009D01*
X59475996Y-50800000D01*
X59550328Y-50811261D01*
G37*
G36*
X95750382Y-48403251D02*
G01*
X96172679Y-49233666D01*
X96177006Y-48408166D01*
X96181334Y-47582666D01*
X96774000Y-47582666D01*
X96774000Y-50292000D01*
X96098314Y-50292000D01*
X95678485Y-49466500D01*
X95258655Y-48641000D01*
X95254328Y-49466500D01*
X95250000Y-50292000D01*
X94653034Y-50292000D01*
X94676350Y-48958500D01*
X94699667Y-47625000D01*
X95013876Y-47598918D01*
X95328085Y-47572837D01*
X95750382Y-48403251D01*
G37*
G36*
X64729811Y-60036410D02*
G01*
X64948232Y-59954003D01*
X65076700Y-59944000D01*
X65291734Y-59914353D01*
X65362608Y-59820888D01*
X65362667Y-59817000D01*
X65320560Y-59740119D01*
X65172975Y-59700715D01*
X64901040Y-59690000D01*
X64439414Y-59690000D01*
X64414207Y-60212446D01*
X64382098Y-60531494D01*
X64325975Y-60725068D01*
X64283167Y-60769835D01*
X64191946Y-60734703D01*
X64177334Y-60672838D01*
X64137316Y-60585200D01*
X63991424Y-60579641D01*
X63923544Y-60591657D01*
X63673085Y-60599988D01*
X63516776Y-60493182D01*
X63440835Y-60254815D01*
X63428116Y-60001197D01*
X63455370Y-59652659D01*
X63538925Y-59445509D01*
X63690195Y-59357860D01*
X63767024Y-59351333D01*
X63934267Y-59408744D01*
X63986047Y-59547695D01*
X63913626Y-59718259D01*
X63843406Y-59787854D01*
X63726681Y-59898406D01*
X63745938Y-59941088D01*
X63786954Y-59944000D01*
X63908278Y-59987688D01*
X63895670Y-60079291D01*
X63796334Y-60143951D01*
X63684208Y-60234856D01*
X63692142Y-60331122D01*
X63794382Y-60367333D01*
X63957300Y-60292222D01*
X64083886Y-60104758D01*
X64145551Y-59861744D01*
X64135087Y-59690397D01*
X64077875Y-59429912D01*
X64946228Y-59454123D01*
X65395620Y-59475267D01*
X65686942Y-59510073D01*
X65831025Y-59560098D01*
X65849680Y-59584166D01*
X65814376Y-59674975D01*
X65750722Y-59690000D01*
X65676756Y-59721238D01*
X65635350Y-59837286D01*
X65618447Y-60071643D01*
X65616667Y-60247388D01*
X65607049Y-60562818D01*
X65575385Y-60730688D01*
X65517455Y-60771828D01*
X65510834Y-60770035D01*
X65430845Y-60670014D01*
X65379616Y-60473945D01*
X65377716Y-60456542D01*
X65354595Y-60273385D01*
X65317234Y-60240929D01*
X65235970Y-60341244D01*
X65221374Y-60362046D01*
X65040661Y-60500676D01*
X64832705Y-60498814D01*
X64659195Y-60357417D01*
X64656557Y-60353263D01*
X64632088Y-60226222D01*
X64882889Y-60226222D01*
X64894511Y-60276556D01*
X64939334Y-60282666D01*
X65009024Y-60251688D01*
X64995778Y-60226222D01*
X64895298Y-60216089D01*
X64882889Y-60226222D01*
X64632088Y-60226222D01*
X64622967Y-60178867D01*
X64729811Y-60036410D01*
G37*
G36*
X55756958Y-46621110D02*
G01*
X56178654Y-46874992D01*
X56569255Y-47110031D01*
X56896835Y-47307026D01*
X57129469Y-47446773D01*
X57207280Y-47493413D01*
X57391217Y-47635029D01*
X57439515Y-47775770D01*
X57430239Y-47830141D01*
X57337941Y-47967219D01*
X57245959Y-47997117D01*
X57126380Y-47965920D01*
X56875265Y-47884291D01*
X56519525Y-47761534D01*
X56086071Y-47606951D01*
X55601814Y-47429845D01*
X55557293Y-47413354D01*
X55078586Y-47234812D01*
X54657451Y-47075763D01*
X54318469Y-46945654D01*
X54086220Y-46853931D01*
X53985285Y-46810041D01*
X53983138Y-46808404D01*
X54015640Y-46729660D01*
X54123944Y-46554010D01*
X54267469Y-46344004D01*
X54575583Y-45909676D01*
X55756958Y-46621110D01*
G37*
G36*
X101938667Y-50292000D02*
G01*
X101346000Y-50292000D01*
X101346000Y-47582666D01*
X101938667Y-47582666D01*
X101938667Y-50292000D01*
G37*
G36*
X87968667Y-44131978D02*
G01*
X88041029Y-43845138D01*
X88255518Y-43646573D01*
X88608241Y-43538814D01*
X88911418Y-43518666D01*
X89189011Y-43513939D01*
X89337508Y-43488335D01*
X89397106Y-43424720D01*
X89408000Y-43307000D01*
X89408000Y-43095333D01*
X87630000Y-43095333D01*
X87630000Y-45127333D01*
X87122000Y-45127333D01*
X87122000Y-43095333D01*
X86444667Y-43095333D01*
X86444667Y-45127333D01*
X86233000Y-45127333D01*
X86071878Y-45092363D01*
X86022227Y-44954673D01*
X86021334Y-44915666D01*
X85984057Y-44746723D01*
X85895920Y-44707515D01*
X85809667Y-44788666D01*
X85682072Y-44855664D01*
X85460420Y-44869229D01*
X85209618Y-44834272D01*
X84994574Y-44755703D01*
X84945351Y-44723284D01*
X84784328Y-44544639D01*
X84641951Y-44304867D01*
X84631165Y-44280666D01*
X84552076Y-44129750D01*
X84505518Y-44104911D01*
X84500648Y-44132500D01*
X84444074Y-44244541D01*
X84260867Y-44280537D01*
X84243334Y-44280666D01*
X84061268Y-44257360D01*
X83994891Y-44160559D01*
X83989334Y-44077313D01*
X84004812Y-43962456D01*
X84077325Y-43892907D01*
X84245988Y-43848473D01*
X84497485Y-43814982D01*
X84774807Y-43771886D01*
X84977945Y-43719998D01*
X85052816Y-43679669D01*
X85029639Y-43613454D01*
X84972798Y-43603333D01*
X84824290Y-43532150D01*
X84681360Y-43361739D01*
X84592007Y-43156805D01*
X84589000Y-43132669D01*
X85090000Y-43132669D01*
X85117903Y-43254998D01*
X85191215Y-43218328D01*
X85213384Y-43185850D01*
X85202767Y-43077110D01*
X85176048Y-43053853D01*
X85102418Y-43072248D01*
X85090000Y-43132669D01*
X84589000Y-43132669D01*
X84582000Y-43076494D01*
X84654594Y-42850701D01*
X84837595Y-42688472D01*
X85078836Y-42606011D01*
X85326147Y-42619526D01*
X85527360Y-42745225D01*
X85550866Y-42775505D01*
X85652981Y-43024992D01*
X85673258Y-43323862D01*
X85623227Y-43626821D01*
X85514415Y-43888573D01*
X85358353Y-44063824D01*
X85210855Y-44111333D01*
X85101410Y-44157319D01*
X85125542Y-44270323D01*
X85208902Y-44358612D01*
X85397735Y-44417954D01*
X85631082Y-44369820D01*
X85840800Y-44233156D01*
X85896309Y-44167486D01*
X85973768Y-43982414D01*
X86016259Y-43732781D01*
X86023876Y-43470173D01*
X85996716Y-43246179D01*
X85934872Y-43112386D01*
X85894334Y-43095333D01*
X85792190Y-43021732D01*
X85767334Y-42883666D01*
X85767334Y-42672000D01*
X90254667Y-42672000D01*
X90254667Y-42883666D01*
X90214980Y-43049647D01*
X90085334Y-43095333D01*
X90013853Y-43105301D01*
X89965917Y-43153913D01*
X89936847Y-43269230D01*
X89921968Y-43479312D01*
X89916602Y-43812222D01*
X89916000Y-44111333D01*
X89916000Y-45127333D01*
X89408000Y-45127333D01*
X89408000Y-44577000D01*
X89399522Y-44268309D01*
X89369226Y-44096738D01*
X89309823Y-44030696D01*
X89281000Y-44026666D01*
X89178420Y-44099518D01*
X89154000Y-44225211D01*
X89078313Y-44467424D01*
X88873246Y-44635573D01*
X88571788Y-44703653D01*
X88546622Y-44704000D01*
X88238288Y-44637339D01*
X88041050Y-44446497D01*
X87975042Y-44171357D01*
X88407560Y-44171357D01*
X88450209Y-44225986D01*
X88576227Y-44258203D01*
X88692147Y-44168989D01*
X88711264Y-44127208D01*
X88669531Y-44047320D01*
X88568389Y-44026666D01*
X88416081Y-44067626D01*
X88407560Y-44171357D01*
X87975042Y-44171357D01*
X87968764Y-44145188D01*
X87968667Y-44131978D01*
G37*
G36*
X101092000Y-47836666D02*
G01*
X101078626Y-47999533D01*
X101006154Y-48071934D01*
X100826055Y-48090265D01*
X100753334Y-48090666D01*
X100414667Y-48090666D01*
X100414667Y-50292000D01*
X99737334Y-50292000D01*
X99737334Y-48090666D01*
X99398667Y-48090666D01*
X99181511Y-48080636D01*
X99084976Y-48026281D01*
X99060534Y-47891208D01*
X99060000Y-47836666D01*
X99060000Y-47582666D01*
X101092000Y-47582666D01*
X101092000Y-47836666D01*
G37*
G36*
X108796667Y-47831798D02*
G01*
X108782340Y-47989477D01*
X108708020Y-48066828D01*
X108526695Y-48099801D01*
X108436834Y-48106965D01*
X108077000Y-48133000D01*
X108029608Y-50292000D01*
X107442000Y-50292000D01*
X107442000Y-48090666D01*
X107103334Y-48090666D01*
X106886178Y-48080636D01*
X106789643Y-48026281D01*
X106765201Y-47891208D01*
X106764667Y-47836666D01*
X106764667Y-47582666D01*
X108796667Y-47582666D01*
X108796667Y-47831798D01*
G37*
G36*
X60243529Y-38979783D02*
G01*
X60434422Y-39066328D01*
X60692210Y-39198455D01*
X60977952Y-39355039D01*
X61252710Y-39514957D01*
X61477543Y-39657083D01*
X61579923Y-39731081D01*
X61818846Y-39922570D01*
X60851626Y-43308118D01*
X60610689Y-44148778D01*
X60410299Y-44840509D01*
X60245697Y-45397544D01*
X60112121Y-45834114D01*
X60004813Y-46164450D01*
X59919012Y-46402783D01*
X59849957Y-46563345D01*
X59792888Y-46660368D01*
X59743047Y-46708082D01*
X59710526Y-46719675D01*
X59552282Y-46712146D01*
X59496444Y-46677341D01*
X59496506Y-46583972D01*
X59510287Y-46342720D01*
X59536021Y-45974187D01*
X59571941Y-45498977D01*
X59616278Y-44937692D01*
X59667267Y-44310936D01*
X59723138Y-43639311D01*
X59782125Y-42943420D01*
X59842461Y-42243867D01*
X59902377Y-41561253D01*
X59960108Y-40916183D01*
X60013884Y-40329258D01*
X60061940Y-39821083D01*
X60102507Y-39412259D01*
X60133818Y-39123390D01*
X60154105Y-38975079D01*
X60158471Y-38959946D01*
X60243529Y-38979783D01*
G37*
G36*
X94487662Y-43547023D02*
G01*
X94488000Y-43508299D01*
X94488000Y-43095333D01*
X93810667Y-43095333D01*
X93810667Y-45127333D01*
X93302667Y-45127333D01*
X93302667Y-44534666D01*
X93297404Y-44221472D01*
X93275419Y-44041959D01*
X93227417Y-43960636D01*
X93147445Y-43942000D01*
X93034363Y-43986586D01*
X92993703Y-44146134D01*
X92992222Y-44209399D01*
X92919836Y-44470071D01*
X92737035Y-44699532D01*
X92495358Y-44845116D01*
X92345446Y-44870333D01*
X92035371Y-44788400D01*
X91753294Y-44582325D01*
X91541692Y-44296678D01*
X91443041Y-43976032D01*
X91440558Y-43920833D01*
X91468026Y-43749315D01*
X91582492Y-43691077D01*
X91651667Y-43688000D01*
X91818571Y-43728563D01*
X91863334Y-43852612D01*
X91918233Y-44044742D01*
X92052371Y-44237685D01*
X92219906Y-44382622D01*
X92374998Y-44430732D01*
X92400325Y-44424502D01*
X92519204Y-44307014D01*
X92531295Y-44139566D01*
X92441495Y-43999481D01*
X92371334Y-43966532D01*
X92237387Y-43867706D01*
X92202000Y-43678125D01*
X92208429Y-43546997D01*
X92253279Y-43473974D01*
X92374896Y-43442047D01*
X92611628Y-43434203D01*
X92752334Y-43434000D01*
X93050165Y-43428722D01*
X93216213Y-43405214D01*
X93287895Y-43351962D01*
X93302667Y-43264666D01*
X93292699Y-43193186D01*
X93244087Y-43145249D01*
X93128770Y-43116180D01*
X92918687Y-43101301D01*
X92585778Y-43095935D01*
X92286667Y-43095333D01*
X91270667Y-43095333D01*
X91270667Y-42672000D01*
X97705334Y-42672000D01*
X97705334Y-42883666D01*
X97670364Y-43044788D01*
X97532674Y-43094439D01*
X97493667Y-43095333D01*
X97282000Y-43095333D01*
X97282000Y-45061992D01*
X97626815Y-45369829D01*
X97855368Y-45606306D01*
X97975494Y-45832995D01*
X98018963Y-46037500D01*
X98039810Y-46263361D01*
X98012247Y-46368080D01*
X97920088Y-46396752D01*
X97889794Y-46397333D01*
X97749643Y-46346156D01*
X97652722Y-46169812D01*
X97628706Y-46090986D01*
X97480672Y-45742255D01*
X97273635Y-45528758D01*
X97054554Y-45466000D01*
X96860626Y-45530198D01*
X96783022Y-45698407D01*
X96813322Y-45868166D01*
X96866100Y-45967244D01*
X96931569Y-45930407D01*
X96987646Y-45857547D01*
X97142368Y-45745755D01*
X97245235Y-45752754D01*
X97327619Y-45843213D01*
X97289319Y-45971970D01*
X97160870Y-46101121D01*
X96972807Y-46192762D01*
X96875437Y-46211808D01*
X96629531Y-46170510D01*
X96464143Y-46018569D01*
X96388954Y-45799145D01*
X96413646Y-45555401D01*
X96547899Y-45330498D01*
X96657399Y-45239734D01*
X96784247Y-45124857D01*
X96843996Y-44960257D01*
X96858667Y-44694262D01*
X96852955Y-44447388D01*
X96817180Y-44325631D01*
X96723385Y-44284789D01*
X96597072Y-44280666D01*
X96311922Y-44356404D01*
X96178259Y-44471166D01*
X96064491Y-44592649D01*
X95963146Y-44612968D01*
X95802190Y-44539338D01*
X95755659Y-44513500D01*
X95415851Y-44385779D01*
X95116797Y-44392369D01*
X94890521Y-44532490D01*
X94888645Y-44534666D01*
X94689934Y-44684359D01*
X94490966Y-44665228D01*
X94367048Y-44570952D01*
X94247390Y-44358565D01*
X94270856Y-44141476D01*
X94361000Y-44026666D01*
X94405468Y-43942000D01*
X94996000Y-43942000D01*
X95285409Y-43942000D01*
X95525098Y-43927390D01*
X95704760Y-43892090D01*
X95708742Y-43890608D01*
X95803785Y-43783851D01*
X95841354Y-43544451D01*
X95842513Y-43476333D01*
X96266000Y-43476333D01*
X96272326Y-43710436D01*
X96315200Y-43821291D01*
X96430464Y-43854983D01*
X96562334Y-43857333D01*
X96744414Y-43849199D01*
X96830634Y-43794076D01*
X96856839Y-43645879D01*
X96858667Y-43476333D01*
X96852341Y-43242230D01*
X96809467Y-43131375D01*
X96694203Y-43097683D01*
X96562334Y-43095333D01*
X96380253Y-43103466D01*
X96294033Y-43158589D01*
X96267828Y-43306786D01*
X96266000Y-43476333D01*
X95842513Y-43476333D01*
X95842667Y-43467274D01*
X95842667Y-43095333D01*
X94996000Y-43095333D01*
X94996000Y-43942000D01*
X94405468Y-43942000D01*
X94451628Y-43854114D01*
X94487662Y-43547023D01*
G37*
G36*
X87775158Y-48821585D02*
G01*
X87915728Y-48436449D01*
X88042778Y-48095061D01*
X88144256Y-47831179D01*
X88150482Y-47815500D01*
X88255708Y-47646257D01*
X88428046Y-47586121D01*
X88519000Y-47582666D01*
X88732185Y-47614598D01*
X88853307Y-47739874D01*
X88887519Y-47815500D01*
X88986600Y-48072229D01*
X89112154Y-48408988D01*
X89252130Y-48792021D01*
X89394475Y-49187569D01*
X89527137Y-49561873D01*
X89638064Y-49881177D01*
X89715203Y-50111721D01*
X89746503Y-50219749D01*
X89746667Y-50221966D01*
X89672312Y-50268683D01*
X89490007Y-50291542D01*
X89456900Y-50292000D01*
X89254995Y-50271154D01*
X89143071Y-50175688D01*
X89069334Y-49995666D01*
X89003563Y-49824107D01*
X88918687Y-49736119D01*
X88762929Y-49703824D01*
X88519000Y-49699333D01*
X88255032Y-49705325D01*
X88108598Y-49741889D01*
X88027922Y-49836905D01*
X87968667Y-49995666D01*
X87882461Y-50195110D01*
X87761969Y-50277350D01*
X87581101Y-50292000D01*
X87387806Y-50274029D01*
X87293227Y-50229968D01*
X87291334Y-50221966D01*
X87318721Y-50124456D01*
X87392850Y-49901905D01*
X87501667Y-49588071D01*
X87621679Y-49249033D01*
X88222667Y-49249033D01*
X88297249Y-49266831D01*
X88480722Y-49275757D01*
X88520613Y-49276000D01*
X88716809Y-49265464D01*
X88785274Y-49207335D01*
X88767433Y-49061827D01*
X88763029Y-49043166D01*
X88687951Y-48787260D01*
X88604254Y-48556333D01*
X88501008Y-48302333D01*
X88361838Y-48762200D01*
X88286229Y-49016394D01*
X88235684Y-49194664D01*
X88222667Y-49249033D01*
X87621679Y-49249033D01*
X87633120Y-49216712D01*
X87775158Y-48821585D01*
G37*
G36*
X57889569Y-50302217D02*
G01*
X57943010Y-50336522D01*
X57982081Y-50377491D01*
X57993280Y-50437705D01*
X57967446Y-50532713D01*
X57895418Y-50678059D01*
X57768035Y-50889290D01*
X57576136Y-51181953D01*
X57310560Y-51571593D01*
X56962146Y-52073756D01*
X56687917Y-52466437D01*
X56324663Y-52981853D01*
X55989115Y-53450225D01*
X55694330Y-53853936D01*
X55453365Y-54175369D01*
X55279279Y-54396908D01*
X55185128Y-54500937D01*
X55175827Y-54506473D01*
X55068873Y-54462088D01*
X54887045Y-54323152D01*
X54672590Y-54122565D01*
X54470196Y-53909091D01*
X54325992Y-53741742D01*
X54271334Y-53657046D01*
X54329142Y-53585563D01*
X54489813Y-53415504D01*
X54734214Y-53165733D01*
X55043214Y-52855109D01*
X55397680Y-52502496D01*
X55778481Y-52126753D01*
X56166485Y-51746744D01*
X56542560Y-51381328D01*
X56887574Y-51049367D01*
X57182396Y-50769723D01*
X57407892Y-50561257D01*
X57447830Y-50525459D01*
X57653858Y-50353549D01*
X57786050Y-50284879D01*
X57889569Y-50302217D01*
G37*
G36*
X81026000Y-50292000D02*
G01*
X80429034Y-50292000D01*
X80452350Y-48958500D01*
X80475667Y-47625000D01*
X80750834Y-47598468D01*
X81026000Y-47571937D01*
X81026000Y-50292000D01*
G37*
G36*
X104224667Y-47836666D02*
G01*
X104211293Y-47999533D01*
X104138821Y-48071934D01*
X103958722Y-48090265D01*
X103886000Y-48090666D01*
X103547334Y-48090666D01*
X103547334Y-50292000D01*
X102954667Y-50292000D01*
X102954667Y-48090666D01*
X102573667Y-48090666D01*
X102339384Y-48083303D01*
X102228420Y-48040790D01*
X102194821Y-47932490D01*
X102192667Y-47836666D01*
X102192667Y-47582666D01*
X104224667Y-47582666D01*
X104224667Y-47836666D01*
G37*
G36*
X102500894Y-51737768D02*
G01*
X102610415Y-51753738D01*
X102616000Y-51758851D01*
X102578418Y-51839764D01*
X102476220Y-52039226D01*
X102325232Y-52326781D01*
X102150334Y-52655084D01*
X101941630Y-53055186D01*
X101805277Y-53351371D01*
X101726740Y-53585069D01*
X101691481Y-53797706D01*
X101684667Y-53982233D01*
X101684667Y-54440666D01*
X101092000Y-54440666D01*
X101092000Y-53959714D01*
X101080750Y-53715044D01*
X101037154Y-53487619D01*
X100946444Y-53231909D01*
X100793851Y-52902384D01*
X100668667Y-52654618D01*
X100497308Y-52316749D01*
X100359233Y-52036385D01*
X100270351Y-51846358D01*
X100245334Y-51780904D01*
X100319834Y-51748070D01*
X100502903Y-51731736D01*
X100540499Y-51731333D01*
X100696139Y-51741243D01*
X100810129Y-51792424D01*
X100915317Y-51917053D01*
X101044550Y-52147306D01*
X101123648Y-52302572D01*
X101411630Y-52873810D01*
X101693321Y-52302572D01*
X101841141Y-52011545D01*
X101950150Y-51841157D01*
X102054342Y-51759159D01*
X102187708Y-51733308D01*
X102295506Y-51731333D01*
X102500894Y-51737768D01*
G37*
G36*
X104887233Y-52908050D02*
G01*
X104873138Y-53390369D01*
X104854393Y-53733363D01*
X104826816Y-53967039D01*
X104786223Y-54121404D01*
X104728431Y-54226466D01*
X104698378Y-54262717D01*
X104474706Y-54393783D01*
X104149908Y-54434719D01*
X103780167Y-54382303D01*
X103649878Y-54280509D01*
X103652220Y-54076085D01*
X103681992Y-53985573D01*
X103779554Y-53896212D01*
X103978325Y-53904565D01*
X104224667Y-53953833D01*
X104224667Y-51731333D01*
X104914799Y-51731333D01*
X104887233Y-52908050D01*
G37*
G36*
X94403334Y-53932666D02*
G01*
X95504000Y-53932666D01*
X95504000Y-54440666D01*
X93810667Y-54440666D01*
X93810667Y-51731333D01*
X94403334Y-51731333D01*
X94403334Y-53932666D01*
G37*
G36*
X61357450Y-49578143D02*
G01*
X61491343Y-49605341D01*
X61681574Y-49657298D01*
X61939536Y-49737711D01*
X62276620Y-49850276D01*
X62704219Y-49998690D01*
X63233725Y-50186649D01*
X63876530Y-50417851D01*
X64644025Y-50695992D01*
X65547604Y-51024767D01*
X66598657Y-51407875D01*
X66617573Y-51414772D01*
X71978812Y-53369597D01*
X72189177Y-53784731D01*
X72374155Y-54253879D01*
X72454023Y-54703089D01*
X72424040Y-55091896D01*
X72361993Y-55259630D01*
X72222520Y-55464718D01*
X72022760Y-55686090D01*
X71806174Y-55883129D01*
X71616218Y-56015217D01*
X71519221Y-56047288D01*
X71431292Y-56004443D01*
X71210096Y-55881231D01*
X70867455Y-55684602D01*
X70415186Y-55421502D01*
X69865109Y-55098883D01*
X69229043Y-54723692D01*
X68518807Y-54302878D01*
X67746222Y-53843391D01*
X66923105Y-53352180D01*
X66252725Y-52950958D01*
X65400619Y-52440250D01*
X64591963Y-51955421D01*
X63838338Y-51503424D01*
X63151320Y-51091210D01*
X62542490Y-50725732D01*
X62023427Y-50413943D01*
X61605707Y-50162793D01*
X61300912Y-49979237D01*
X61120618Y-49870225D01*
X61073820Y-49841375D01*
X61096924Y-49765498D01*
X61157428Y-49643013D01*
X61179886Y-49608140D01*
X61213114Y-49583239D01*
X61268505Y-49572008D01*
X61357450Y-49578143D01*
G37*
G36*
X99598203Y-51778309D02*
G01*
X99822669Y-51901143D01*
X100100780Y-52099175D01*
X99916389Y-52248486D01*
X99776409Y-52340535D01*
X99640782Y-52347013D01*
X99436419Y-52274296D01*
X99233706Y-52201649D01*
X99103112Y-52215040D01*
X98963589Y-52328303D01*
X98931087Y-52360549D01*
X98799458Y-52528539D01*
X98737153Y-52730862D01*
X98722582Y-53018651D01*
X98753184Y-53434736D01*
X98848741Y-53707425D01*
X99019004Y-53853407D01*
X99231834Y-53890333D01*
X99431938Y-53874338D01*
X99520265Y-53793815D01*
X99552198Y-53615166D01*
X99552897Y-53423817D01*
X99486642Y-53348920D01*
X99404031Y-53340000D01*
X99276751Y-53302316D01*
X99231520Y-53159359D01*
X99229334Y-53086000D01*
X99237153Y-52940792D01*
X99288397Y-52865212D01*
X99424746Y-52836526D01*
X99687879Y-52832000D01*
X100160667Y-52832000D01*
X100160667Y-53465048D01*
X100156071Y-53793822D01*
X100133868Y-53998011D01*
X100081437Y-54122293D01*
X99986157Y-54211341D01*
X99941201Y-54241895D01*
X99658925Y-54357000D01*
X99299740Y-54412307D01*
X98937226Y-54403868D01*
X98644965Y-54327733D01*
X98616564Y-54312993D01*
X98341057Y-54069110D01*
X98169831Y-53703020D01*
X98099762Y-53207336D01*
X98097607Y-53086000D01*
X98151255Y-52550329D01*
X98310813Y-52142958D01*
X98574196Y-51866543D01*
X98939323Y-51723739D01*
X99181955Y-51703111D01*
X99598203Y-51778309D01*
G37*
G36*
X98497876Y-47667609D02*
G01*
X98607383Y-47709662D01*
X98798901Y-47798509D01*
X98858260Y-47873994D01*
X98811448Y-47983283D01*
X98782314Y-48027162D01*
X98628253Y-48164812D01*
X98496818Y-48190518D01*
X98289440Y-48152214D01*
X98123851Y-48119808D01*
X97926908Y-48130178D01*
X97787352Y-48220282D01*
X97752889Y-48351999D01*
X97773677Y-48399626D01*
X97877164Y-48482262D01*
X98086431Y-48603973D01*
X98305414Y-48713929D01*
X98665800Y-48926505D01*
X98879483Y-49168743D01*
X98969090Y-49470566D01*
X98975334Y-49599811D01*
X98898707Y-49920089D01*
X98679930Y-50161615D01*
X98401337Y-50288237D01*
X98113864Y-50355476D01*
X97891086Y-50360513D01*
X97642737Y-50299861D01*
X97508534Y-50253761D01*
X97257832Y-50156545D01*
X97144977Y-50074888D01*
X97146327Y-49973398D01*
X97227508Y-49833007D01*
X97328844Y-49699877D01*
X97431823Y-49667877D01*
X97605070Y-49723139D01*
X97659591Y-49745698D01*
X97908476Y-49839603D01*
X98063436Y-49857346D01*
X98182270Y-49797954D01*
X98249451Y-49735786D01*
X98336022Y-49582395D01*
X98294853Y-49439453D01*
X98191417Y-49308473D01*
X98124765Y-49276000D01*
X98004401Y-49242358D01*
X97793239Y-49157040D01*
X97673965Y-49102930D01*
X97345015Y-48879749D01*
X97157250Y-48601610D01*
X97117274Y-48295300D01*
X97231692Y-47987606D01*
X97360154Y-47830153D01*
X97671201Y-47633705D01*
X98057356Y-47578855D01*
X98497876Y-47667609D01*
G37*
G36*
X105071334Y-48556333D02*
G01*
X105074457Y-48985642D01*
X105087196Y-49279781D01*
X105114604Y-49472854D01*
X105161731Y-49598962D01*
X105233630Y-49692208D01*
X105240667Y-49699333D01*
X105401741Y-49835978D01*
X105535201Y-49849624D01*
X105716632Y-49746072D01*
X105729828Y-49736865D01*
X105809755Y-49670139D01*
X105863183Y-49581506D01*
X105895409Y-49438780D01*
X105911732Y-49209772D01*
X105917453Y-48862296D01*
X105918000Y-48593865D01*
X105918000Y-47582666D01*
X106510667Y-47582666D01*
X106510667Y-48593154D01*
X106504028Y-49010414D01*
X106485993Y-49382932D01*
X106459384Y-49668038D01*
X106429779Y-49816393D01*
X106245858Y-50078028D01*
X105948529Y-50257019D01*
X105579422Y-50338818D01*
X105180168Y-50308875D01*
X105089275Y-50284901D01*
X104859608Y-50184553D01*
X104693013Y-50027001D01*
X104580656Y-49788146D01*
X104513706Y-49443889D01*
X104483328Y-48970132D01*
X104478983Y-48619833D01*
X104478667Y-47582666D01*
X105071334Y-47582666D01*
X105071334Y-48556333D01*
G37*
G36*
X116332000Y-48090666D02*
G01*
X115316000Y-48090666D01*
X115316000Y-48683333D01*
X115781667Y-48683333D01*
X116047881Y-48687598D01*
X116186444Y-48715549D01*
X116239035Y-48789922D01*
X116247333Y-48933449D01*
X116247334Y-48937333D01*
X116239514Y-49082540D01*
X116188270Y-49158120D01*
X116051921Y-49186806D01*
X115788788Y-49191333D01*
X115316000Y-49191333D01*
X115316000Y-50292000D01*
X114723334Y-50292000D01*
X114723334Y-47582666D01*
X116332000Y-47582666D01*
X116332000Y-48090666D01*
G37*
G36*
X55946906Y-60214206D02*
G01*
X55948089Y-59984500D01*
X56048930Y-59837032D01*
X56082108Y-59812040D01*
X56182543Y-59732710D01*
X56161216Y-59698269D01*
X55996645Y-59690114D01*
X55941172Y-59690000D01*
X55626000Y-59690000D01*
X55626000Y-60240333D01*
X55614037Y-60527915D01*
X55582348Y-60724809D01*
X55541334Y-60790666D01*
X55464905Y-60722676D01*
X55456667Y-60671593D01*
X55394510Y-60588518D01*
X55284550Y-60597529D01*
X55087473Y-60574130D01*
X54899269Y-60446010D01*
X54788510Y-60266445D01*
X54783077Y-60224804D01*
X55037913Y-60224804D01*
X55089778Y-60310888D01*
X55219625Y-60361167D01*
X55360899Y-60253709D01*
X55411327Y-60119286D01*
X55309710Y-60041481D01*
X55188556Y-60028666D01*
X55059512Y-60090386D01*
X55037913Y-60224804D01*
X54783077Y-60224804D01*
X54780630Y-60206044D01*
X54847566Y-59975941D01*
X55052411Y-59825257D01*
X55212889Y-59774878D01*
X55353795Y-59737360D01*
X55366406Y-59715653D01*
X55236174Y-59704234D01*
X55012167Y-59698666D01*
X54525334Y-59690000D01*
X54525334Y-60240333D01*
X54512815Y-60573541D01*
X54472025Y-60751177D01*
X54398110Y-60785375D01*
X54327778Y-60734222D01*
X54297300Y-60625026D01*
X54276806Y-60400881D01*
X54271334Y-60183888D01*
X54258153Y-59919094D01*
X54223903Y-59740185D01*
X54186667Y-59690000D01*
X54111552Y-59621423D01*
X54102000Y-59563000D01*
X54147718Y-59450328D01*
X54186667Y-59436000D01*
X54261133Y-59388292D01*
X54261307Y-59372500D01*
X54276870Y-59292250D01*
X54478910Y-59292250D01*
X54527296Y-59369198D01*
X54722794Y-59415577D01*
X55074394Y-59434932D01*
X55214719Y-59436000D01*
X55569689Y-59428716D01*
X55777214Y-59404526D01*
X55858651Y-59359924D01*
X55859203Y-59330166D01*
X55730440Y-59183541D01*
X55490706Y-59084552D01*
X55193201Y-59039340D01*
X54891123Y-59054046D01*
X54637672Y-59134813D01*
X54568645Y-59181187D01*
X54478910Y-59292250D01*
X54276870Y-59292250D01*
X54303250Y-59156219D01*
X54488913Y-58987555D01*
X54796325Y-58879192D01*
X55177296Y-58843649D01*
X55494449Y-58881209D01*
X55788529Y-58978921D01*
X56014773Y-59115073D01*
X56128419Y-59267948D01*
X56134000Y-59307755D01*
X56162830Y-59370213D01*
X56268773Y-59409116D01*
X56481012Y-59429375D01*
X56828728Y-59435901D01*
X56896000Y-59436000D01*
X57267750Y-59440949D01*
X57499308Y-59459012D01*
X57619611Y-59495011D01*
X57657598Y-59553770D01*
X57658000Y-59563000D01*
X57614425Y-59675703D01*
X57577374Y-59690000D01*
X57531642Y-59767054D01*
X57492791Y-59967800D01*
X57471540Y-60212446D01*
X57439431Y-60531494D01*
X57383309Y-60725068D01*
X57340500Y-60769835D01*
X57280022Y-60739224D01*
X57246177Y-60583827D01*
X57234741Y-60282792D01*
X57234667Y-60247388D01*
X57229519Y-59947253D01*
X57206540Y-59779117D01*
X57154426Y-59705772D01*
X57065334Y-59690000D01*
X56973693Y-59707152D01*
X56922601Y-59783553D01*
X56900545Y-59956620D01*
X56896000Y-60240333D01*
X56887522Y-60549023D01*
X56857226Y-60720594D01*
X56797823Y-60786636D01*
X56769000Y-60790666D01*
X56656220Y-60752752D01*
X56642000Y-60720663D01*
X56570088Y-60681166D01*
X56404351Y-60685540D01*
X56178047Y-60669710D01*
X56033221Y-60529489D01*
X55988554Y-60374388D01*
X56218667Y-60374388D01*
X56278899Y-60445037D01*
X56413215Y-60431220D01*
X56540400Y-60350400D01*
X56606499Y-60214900D01*
X56637660Y-60018240D01*
X56632195Y-59826154D01*
X56588421Y-59704377D01*
X56557334Y-59690000D01*
X56482219Y-59758576D01*
X56472667Y-59817000D01*
X56404894Y-59929248D01*
X56345667Y-59944000D01*
X56231890Y-59991845D01*
X56246422Y-60090576D01*
X56324500Y-60148611D01*
X56386764Y-60204214D01*
X56324500Y-60247388D01*
X56226825Y-60340782D01*
X56218667Y-60374388D01*
X55988554Y-60374388D01*
X55951590Y-60246037D01*
X55946906Y-60214206D01*
G37*
G36*
X64024703Y-42143247D02*
G01*
X64192659Y-42258230D01*
X64411079Y-42431478D01*
X64644947Y-42632639D01*
X64859244Y-42831362D01*
X65018953Y-42997294D01*
X65089056Y-43100085D01*
X65089079Y-43110919D01*
X65020644Y-43194526D01*
X64846536Y-43375894D01*
X64583897Y-43638713D01*
X64249866Y-43966673D01*
X63861585Y-44343462D01*
X63436196Y-44752771D01*
X62990838Y-45178288D01*
X62542653Y-45603703D01*
X62108783Y-46012704D01*
X61706366Y-46388982D01*
X61352546Y-46716226D01*
X61064462Y-46978124D01*
X60859256Y-47158367D01*
X60754068Y-47240643D01*
X60745617Y-47244000D01*
X60604207Y-47184938D01*
X60555001Y-47138166D01*
X60558660Y-47067207D01*
X60628271Y-46914843D01*
X60769639Y-46671995D01*
X60988572Y-46329586D01*
X61290876Y-45878540D01*
X61682358Y-45309777D01*
X62168825Y-44614222D01*
X62176786Y-44602903D01*
X62576536Y-44035247D01*
X62946277Y-43511467D01*
X63274533Y-43047724D01*
X63549828Y-42660179D01*
X63760684Y-42364991D01*
X63895626Y-42178322D01*
X63942229Y-42116881D01*
X64024703Y-42143247D01*
G37*
G36*
X59047526Y-50838845D02*
G01*
X59097334Y-50912776D01*
X59089974Y-51021473D01*
X59069082Y-51278245D01*
X59036436Y-51662527D01*
X58993817Y-52153754D01*
X58943004Y-52731361D01*
X58885777Y-53374784D01*
X58843334Y-53848000D01*
X58782610Y-54527266D01*
X58727089Y-55157011D01*
X58678560Y-55716267D01*
X58638810Y-56184069D01*
X58609629Y-56539450D01*
X58592804Y-56761444D01*
X58589334Y-56825557D01*
X58568382Y-56910697D01*
X58480628Y-56955825D01*
X58288724Y-56971075D01*
X58060167Y-56969136D01*
X57740907Y-56956869D01*
X57461594Y-56937043D01*
X57319334Y-56919634D01*
X57133761Y-56868768D01*
X57045096Y-56822026D01*
X57053249Y-56729769D01*
X57104022Y-56493474D01*
X57192611Y-56131660D01*
X57314213Y-55662847D01*
X57464025Y-55105554D01*
X57637243Y-54478301D01*
X57828262Y-53802415D01*
X58021549Y-53125372D01*
X58199307Y-52501641D01*
X58356360Y-51949465D01*
X58487531Y-51487091D01*
X58587646Y-51132762D01*
X58651527Y-50904725D01*
X58674000Y-50821224D01*
X58674000Y-50821219D01*
X58746702Y-50805246D01*
X58885667Y-50800000D01*
X59047526Y-50838845D01*
G37*
G36*
X58352069Y-50592858D02*
G01*
X58435985Y-50651833D01*
X58469083Y-50696532D01*
X58479718Y-50774227D01*
X58462803Y-50902073D01*
X58413248Y-51097228D01*
X58325965Y-51376848D01*
X58195867Y-51758089D01*
X58017864Y-52258107D01*
X57786869Y-52894060D01*
X57702733Y-53124144D01*
X57481997Y-53721197D01*
X57276937Y-54264531D01*
X57095373Y-54734313D01*
X56945124Y-55110709D01*
X56834008Y-55373888D01*
X56769846Y-55504015D01*
X56760399Y-55514352D01*
X56651611Y-55488708D01*
X56444283Y-55398236D01*
X56218790Y-55281597D01*
X55961625Y-55134685D01*
X55762661Y-55011473D01*
X55676308Y-54948174D01*
X55701345Y-54862594D01*
X55801944Y-54654496D01*
X55965303Y-54345814D01*
X56178621Y-53958479D01*
X56429098Y-53514426D01*
X56703932Y-53035586D01*
X56990323Y-52543893D01*
X57275469Y-52061279D01*
X57546570Y-51609677D01*
X57790823Y-51211019D01*
X57995429Y-50887239D01*
X58147587Y-50660270D01*
X58234494Y-50552043D01*
X58245633Y-50546000D01*
X58352069Y-50592858D01*
G37*
G36*
X59930331Y-59053996D02*
G01*
X59953556Y-59073022D01*
X60000960Y-59206533D01*
X59939206Y-59324550D01*
X59859334Y-59351333D01*
X59750745Y-59289659D01*
X59727774Y-59259289D01*
X59717884Y-59130166D01*
X59807463Y-59043536D01*
X59930331Y-59053996D01*
G37*
G36*
X82184273Y-41882060D02*
G01*
X82320326Y-41996597D01*
X82363026Y-42159467D01*
X82352568Y-42199768D01*
X82236003Y-42306036D01*
X82058179Y-42332197D01*
X81929111Y-42276888D01*
X81871713Y-42119718D01*
X81922916Y-41949606D01*
X82014699Y-41873614D01*
X82184273Y-41882060D01*
G37*
G36*
X62296129Y-59941411D02*
G01*
X62492768Y-59791659D01*
X62630317Y-59750821D01*
X62689744Y-59729749D01*
X62597333Y-59711913D01*
X62424540Y-59702685D01*
X61984080Y-59690000D01*
X61958874Y-60212446D01*
X61926765Y-60531494D01*
X61870642Y-60725068D01*
X61827834Y-60769835D01*
X61747254Y-60725824D01*
X61722000Y-60543722D01*
X61696959Y-60354664D01*
X61602911Y-60286235D01*
X61552667Y-60282666D01*
X61382565Y-60273042D01*
X61320993Y-60261500D01*
X61256444Y-60312746D01*
X61228187Y-60398527D01*
X61237299Y-60506852D01*
X61290528Y-60499363D01*
X61370668Y-60512423D01*
X61383334Y-60569006D01*
X61329460Y-60722223D01*
X61193247Y-60738867D01*
X61140900Y-60713148D01*
X61041913Y-60606738D01*
X60920731Y-60426266D01*
X60822477Y-60244807D01*
X60790667Y-60145988D01*
X60861537Y-60118923D01*
X60950942Y-60113333D01*
X61103618Y-60064614D01*
X61150136Y-60007500D01*
X61156083Y-59814953D01*
X61114713Y-59780814D01*
X61395490Y-59780814D01*
X61434725Y-59894741D01*
X61536762Y-60013294D01*
X61655316Y-60006497D01*
X61720970Y-59882908D01*
X61722000Y-59859333D01*
X61662132Y-59717829D01*
X61552667Y-59690000D01*
X61413755Y-59703563D01*
X61395490Y-59780814D01*
X61114713Y-59780814D01*
X61022969Y-59705106D01*
X60910611Y-59690000D01*
X60745669Y-59644559D01*
X60706000Y-59563000D01*
X60730612Y-59509941D01*
X60821196Y-59473634D01*
X61002877Y-59451160D01*
X61300780Y-59439599D01*
X61740029Y-59436030D01*
X61798740Y-59436000D01*
X62245201Y-59434769D01*
X62548312Y-59428274D01*
X62734055Y-59412306D01*
X62828412Y-59382656D01*
X62857363Y-59335118D01*
X62847081Y-59266215D01*
X62857376Y-59067458D01*
X62907708Y-58969882D01*
X63043360Y-58876530D01*
X63201749Y-58844991D01*
X63313709Y-58882112D01*
X63330667Y-58928000D01*
X63262090Y-59003114D01*
X63203667Y-59012666D01*
X63101524Y-59086267D01*
X63076667Y-59224333D01*
X63105649Y-59383448D01*
X63161334Y-59436000D01*
X63236448Y-59504576D01*
X63246000Y-59563000D01*
X63200283Y-59675671D01*
X63161334Y-59690000D01*
X63117090Y-59767757D01*
X63086799Y-59973739D01*
X63076667Y-60240333D01*
X63068188Y-60549023D01*
X63037892Y-60720594D01*
X62978490Y-60786636D01*
X62949667Y-60790666D01*
X62838610Y-60722503D01*
X62822667Y-60658669D01*
X62781286Y-60571272D01*
X62737243Y-60579468D01*
X62564930Y-60599515D01*
X62368661Y-60513098D01*
X62223893Y-60355921D01*
X62206582Y-60229082D01*
X62422875Y-60229082D01*
X62440005Y-60279977D01*
X62563723Y-60350355D01*
X62716668Y-60317702D01*
X62801525Y-60219211D01*
X62771640Y-60109575D01*
X62648617Y-60049384D01*
X62507284Y-60066632D01*
X62468753Y-60094713D01*
X62422875Y-60229082D01*
X62206582Y-60229082D01*
X62195273Y-60146220D01*
X62296129Y-59941411D01*
G37*
G36*
X94234000Y-50292000D02*
G01*
X93641334Y-50292000D01*
X93641334Y-47582666D01*
X94234000Y-47582666D01*
X94234000Y-50292000D01*
G37*
G36*
X53804662Y-38980754D02*
G01*
X53895645Y-39066737D01*
X53903191Y-39076932D01*
X53971930Y-39188453D01*
X54109768Y-39426784D01*
X54307532Y-39775298D01*
X54556046Y-40217369D01*
X54846136Y-40736369D01*
X55168629Y-41315671D01*
X55514348Y-41938649D01*
X55874121Y-42588675D01*
X56238772Y-43249122D01*
X56599127Y-43903364D01*
X56946011Y-44534773D01*
X57270250Y-45126723D01*
X57562670Y-45662587D01*
X57814096Y-46125737D01*
X58015353Y-46499547D01*
X58157268Y-46767389D01*
X58230664Y-46912637D01*
X58238699Y-46934203D01*
X58154332Y-46994979D01*
X58072236Y-47056641D01*
X58031253Y-47065568D01*
X57966706Y-47037517D01*
X57870198Y-46963171D01*
X57733330Y-46833213D01*
X57547704Y-46638326D01*
X57304924Y-46369193D01*
X56996590Y-46016497D01*
X56614305Y-45570922D01*
X56149671Y-45023150D01*
X55594291Y-44363864D01*
X54939766Y-43583749D01*
X54911306Y-43549782D01*
X54347069Y-42875376D01*
X53815663Y-42238340D01*
X53327048Y-41650740D01*
X52891183Y-41124642D01*
X52518026Y-40672113D01*
X52217538Y-40305218D01*
X51999677Y-40036024D01*
X51874402Y-39876597D01*
X51847377Y-39837645D01*
X51902196Y-39761259D01*
X52082251Y-39641083D01*
X52354545Y-39493621D01*
X52686078Y-39335378D01*
X53043853Y-39182860D01*
X53394871Y-39052571D01*
X53459932Y-39031093D01*
X53679971Y-38970997D01*
X53804662Y-38980754D01*
G37*
G36*
X110351848Y-52298406D02*
G01*
X110381385Y-52662552D01*
X110415514Y-53111415D01*
X110447868Y-53560734D01*
X110454541Y-53657500D01*
X110507977Y-54440666D01*
X109915599Y-54440666D01*
X109851840Y-53572833D01*
X109823391Y-53223992D01*
X109796286Y-52958878D01*
X109774044Y-52808333D01*
X109762512Y-52789666D01*
X109727373Y-52907398D01*
X109658119Y-53140358D01*
X109568755Y-53441425D01*
X109554891Y-53488166D01*
X109459195Y-53799641D01*
X109384508Y-53982581D01*
X109304984Y-54071170D01*
X109194773Y-54099594D01*
X109090761Y-54102000D01*
X108931049Y-54092058D01*
X108831004Y-54036398D01*
X108757241Y-53896267D01*
X108676376Y-53632914D01*
X108671364Y-53615166D01*
X108556468Y-53212863D01*
X108478087Y-52972228D01*
X108426503Y-52892028D01*
X108391998Y-52971033D01*
X108364855Y-53208010D01*
X108337431Y-53572833D01*
X108275096Y-54440666D01*
X107680110Y-54440666D01*
X107727531Y-54038500D01*
X107752212Y-53784455D01*
X107781315Y-53416907D01*
X107810658Y-52991467D01*
X107829396Y-52683833D01*
X107883841Y-51731333D01*
X108606706Y-51731333D01*
X108843086Y-52577711D01*
X108942984Y-52923642D01*
X109027792Y-53195509D01*
X109086975Y-53360826D01*
X109108243Y-53395313D01*
X109143084Y-53306996D01*
X109213575Y-53092569D01*
X109307989Y-52788494D01*
X109373645Y-52570101D01*
X109610270Y-51773666D01*
X110302592Y-51722480D01*
X110351848Y-52298406D01*
G37*
G36*
X114554000Y-52668232D02*
G01*
X114562669Y-53168787D01*
X114593132Y-53522972D01*
X114652073Y-53753076D01*
X114746176Y-53881388D01*
X114882123Y-53930194D01*
X114933178Y-53932666D01*
X115118943Y-53897152D01*
X115251216Y-53777110D01*
X115337342Y-53552294D01*
X115384664Y-53202456D01*
X115400527Y-52707349D01*
X115400667Y-52643827D01*
X115400667Y-51731333D01*
X116006790Y-51731333D01*
X115951000Y-53946977D01*
X115674498Y-54193821D01*
X115449170Y-54358774D01*
X115213399Y-54428239D01*
X114997164Y-54437666D01*
X114708457Y-54412089D01*
X114459400Y-54351403D01*
X114393986Y-54322513D01*
X114227028Y-54205814D01*
X114108867Y-54051553D01*
X114031529Y-53830883D01*
X113987038Y-53514954D01*
X113967417Y-53074919D01*
X113964334Y-52768500D01*
X113961334Y-51731333D01*
X114554000Y-51731333D01*
X114554000Y-52668232D01*
G37*
G36*
X57468835Y-41482639D02*
G01*
X57694382Y-42390893D01*
X57905908Y-43250926D01*
X58100076Y-44048620D01*
X58273547Y-44769860D01*
X58422982Y-45400528D01*
X58545043Y-45926507D01*
X58636391Y-46333681D01*
X58693687Y-46607933D01*
X58713593Y-46735147D01*
X58712672Y-46741924D01*
X58666930Y-46803291D01*
X58617077Y-46833631D01*
X58557743Y-46823054D01*
X58483558Y-46761669D01*
X58389152Y-46639586D01*
X58269155Y-46446914D01*
X58118196Y-46173762D01*
X57930905Y-45810240D01*
X57701912Y-45346457D01*
X57425847Y-44772523D01*
X57097340Y-44078547D01*
X56711020Y-43254638D01*
X56261518Y-42290907D01*
X56054657Y-41846500D01*
X55653625Y-40983792D01*
X55273491Y-40164436D01*
X54920343Y-39401654D01*
X54600266Y-38708670D01*
X54319349Y-38098707D01*
X54083676Y-37584988D01*
X53899336Y-37180737D01*
X53772415Y-36899177D01*
X53708998Y-36753532D01*
X53703065Y-36737624D01*
X53761415Y-36645873D01*
X53988233Y-36560468D01*
X54382767Y-36481568D01*
X54944265Y-36409332D01*
X55499000Y-36357606D01*
X56176334Y-36302096D01*
X57468835Y-41482639D01*
G37*
G36*
X84603167Y-47582798D02*
G01*
X85141756Y-47639684D01*
X85563909Y-47812978D01*
X85880182Y-48107074D01*
X85888315Y-48118041D01*
X85992293Y-48305811D01*
X86045788Y-48543444D01*
X86060906Y-48887390D01*
X86060814Y-48922375D01*
X86017008Y-49439518D01*
X85882068Y-49820889D01*
X85641785Y-50080493D01*
X85281948Y-50232330D01*
X84788346Y-50290404D01*
X84670871Y-50292000D01*
X84074000Y-50292000D01*
X84074000Y-49784000D01*
X84666667Y-49784000D01*
X84878334Y-49784000D01*
X85097338Y-49725113D01*
X85259334Y-49614666D01*
X85391039Y-49378813D01*
X85442460Y-49058808D01*
X85415465Y-48718566D01*
X85311923Y-48422006D01*
X85220849Y-48298484D01*
X85029971Y-48155445D01*
X84849410Y-48090962D01*
X84839849Y-48090666D01*
X84761078Y-48101476D01*
X84710659Y-48154379D01*
X84682310Y-48280086D01*
X84669749Y-48509308D01*
X84666694Y-48872756D01*
X84666667Y-48937333D01*
X84666667Y-49784000D01*
X84074000Y-49784000D01*
X84074000Y-47582666D01*
X84603167Y-47582798D01*
G37*
G36*
X85629881Y-51842330D02*
G01*
X85779779Y-51954263D01*
X85877688Y-52061357D01*
X85852852Y-52145952D01*
X85749358Y-52236864D01*
X85589506Y-52332955D01*
X85434561Y-52310703D01*
X85357213Y-52273702D01*
X85100160Y-52218218D01*
X84877391Y-52324063D01*
X84753274Y-52489707D01*
X84690357Y-52717865D01*
X84670821Y-53034549D01*
X84693254Y-53364987D01*
X84756245Y-53634404D01*
X84775710Y-53678666D01*
X84941626Y-53853603D01*
X85168413Y-53919470D01*
X85389378Y-53862803D01*
X85449817Y-53814754D01*
X85552337Y-53741528D01*
X85652939Y-53778386D01*
X85761962Y-53884615D01*
X85947001Y-54081580D01*
X85718749Y-54261123D01*
X85432918Y-54394917D01*
X85078961Y-54437792D01*
X84734478Y-54385065D01*
X84602437Y-54328463D01*
X84330495Y-54087065D01*
X84140434Y-53735939D01*
X84038426Y-53316825D01*
X84030643Y-52871461D01*
X84123256Y-52441586D01*
X84277545Y-52131256D01*
X84552601Y-51860152D01*
X84899021Y-51718173D01*
X85272787Y-51710503D01*
X85629881Y-51842330D01*
G37*
G36*
X59105895Y-60029360D02*
G01*
X59349479Y-59937973D01*
X59429480Y-59927572D01*
X59634140Y-59882215D01*
X59749552Y-59805787D01*
X59754035Y-59795833D01*
X59722003Y-59733116D01*
X59560785Y-59699351D01*
X59277762Y-59690000D01*
X58766747Y-59690000D01*
X58741540Y-60212446D01*
X58709431Y-60531494D01*
X58653309Y-60725068D01*
X58610500Y-60769835D01*
X58526246Y-60729631D01*
X58504667Y-60611455D01*
X58486826Y-60483211D01*
X58419900Y-60503651D01*
X58403067Y-60519733D01*
X58221518Y-60607983D01*
X58005678Y-60604681D01*
X57849751Y-60515500D01*
X57788326Y-60348672D01*
X57761164Y-60092594D01*
X57767026Y-59811722D01*
X57804671Y-59570514D01*
X57808331Y-59563000D01*
X58081334Y-59563000D01*
X58123667Y-59605333D01*
X58166000Y-59563000D01*
X58123667Y-59520666D01*
X58081334Y-59563000D01*
X57808331Y-59563000D01*
X57870542Y-59435273D01*
X58059085Y-59356468D01*
X58217719Y-59413209D01*
X58292257Y-59583534D01*
X58293000Y-59606492D01*
X58258223Y-59765866D01*
X58132961Y-59802815D01*
X58123667Y-59802092D01*
X57954334Y-59787184D01*
X58123667Y-59912815D01*
X58238101Y-60012308D01*
X58217398Y-60077045D01*
X58144834Y-60122430D01*
X58018207Y-60235754D01*
X58015152Y-60332772D01*
X58117619Y-60367333D01*
X58323580Y-60293861D01*
X58450306Y-60097540D01*
X58476832Y-59814513D01*
X58469828Y-59760123D01*
X58417999Y-59436000D01*
X59308000Y-59436000D01*
X59714226Y-59439886D01*
X59978567Y-59454146D01*
X60128345Y-59482678D01*
X60190883Y-59529381D01*
X60198000Y-59563000D01*
X60130227Y-59675248D01*
X60071000Y-59690000D01*
X59999764Y-59726740D01*
X59960171Y-59858022D01*
X59944930Y-60115434D01*
X59944000Y-60240333D01*
X59932037Y-60527915D01*
X59900348Y-60724809D01*
X59859334Y-60790666D01*
X59803371Y-60716237D01*
X59775398Y-60533223D01*
X59774667Y-60494333D01*
X59752711Y-60269761D01*
X59686967Y-60208648D01*
X59577619Y-60311093D01*
X59540316Y-60367333D01*
X59376861Y-60508625D01*
X59185800Y-60519326D01*
X59029923Y-60398027D01*
X59018926Y-60379029D01*
X58995230Y-60226222D01*
X59210222Y-60226222D01*
X59221845Y-60276556D01*
X59266667Y-60282666D01*
X59336357Y-60251688D01*
X59323111Y-60226222D01*
X59222632Y-60216089D01*
X59210222Y-60226222D01*
X58995230Y-60226222D01*
X58988697Y-60184091D01*
X59105895Y-60029360D01*
G37*
G36*
X70582713Y-59725577D02*
G01*
X70502706Y-59691670D01*
X70452280Y-59690000D01*
X70355689Y-59704916D01*
X70301852Y-59774834D01*
X70278493Y-59937509D01*
X70273335Y-60230694D01*
X70273334Y-60240333D01*
X70264855Y-60549023D01*
X70234559Y-60720594D01*
X70175156Y-60786636D01*
X70146334Y-60790666D01*
X70055051Y-60730457D01*
X70020307Y-60534626D01*
X70019334Y-60475494D01*
X70015197Y-60275425D01*
X69988907Y-60224620D01*
X69919641Y-60303016D01*
X69887533Y-60348494D01*
X69713269Y-60495114D01*
X69522263Y-60519351D01*
X69362373Y-60439977D01*
X69281459Y-60275766D01*
X69286752Y-60226222D01*
X69539556Y-60226222D01*
X69551178Y-60276556D01*
X69596000Y-60282666D01*
X69665690Y-60251688D01*
X69652445Y-60226222D01*
X69551965Y-60216089D01*
X69539556Y-60226222D01*
X69286752Y-60226222D01*
X69298377Y-60117396D01*
X69376735Y-59998737D01*
X69543297Y-59949582D01*
X69686372Y-59944000D01*
X69919704Y-59922299D01*
X70014210Y-59850666D01*
X70019334Y-59817000D01*
X69980320Y-59743256D01*
X69842019Y-59703664D01*
X69572542Y-59690250D01*
X69511334Y-59690000D01*
X69003334Y-59690000D01*
X69003334Y-60247388D01*
X68993730Y-60562736D01*
X68962103Y-60730543D01*
X68904227Y-60771664D01*
X68897500Y-60769835D01*
X68829960Y-60665019D01*
X68782604Y-60418439D01*
X68766460Y-60212446D01*
X68745637Y-59922227D01*
X68709592Y-59763711D01*
X68644605Y-59699276D01*
X68575960Y-59690000D01*
X68486380Y-59708233D01*
X68436431Y-59787750D01*
X68414932Y-59965780D01*
X68410667Y-60240333D01*
X68398704Y-60527915D01*
X68367015Y-60724809D01*
X68326000Y-60790666D01*
X68250538Y-60722240D01*
X68241334Y-60665783D01*
X68196706Y-60583232D01*
X68039701Y-60582151D01*
X67987544Y-60591657D01*
X67715027Y-60585693D01*
X67538843Y-60454864D01*
X67482769Y-60217418D01*
X67483435Y-60204758D01*
X67490178Y-59909262D01*
X67457734Y-59748751D01*
X67378091Y-59691768D01*
X67352334Y-59690000D01*
X67281097Y-59726740D01*
X67241504Y-59858022D01*
X67226263Y-60115434D01*
X67225334Y-60240333D01*
X67215251Y-60566325D01*
X67179392Y-60740257D01*
X67109344Y-60778512D01*
X66996693Y-60697470D01*
X66992614Y-60693414D01*
X66877858Y-60646680D01*
X66707822Y-60719366D01*
X66683763Y-60734806D01*
X66508589Y-60814453D01*
X66420641Y-60790085D01*
X66448882Y-60699686D01*
X66578317Y-60611402D01*
X66787516Y-60516085D01*
X66591440Y-60335876D01*
X66428381Y-60092620D01*
X66370497Y-59887555D01*
X66632667Y-59887555D01*
X66675457Y-60105112D01*
X66773491Y-60188314D01*
X66881266Y-60133114D01*
X66953279Y-59935461D01*
X66955791Y-59916303D01*
X66949195Y-59748201D01*
X66852381Y-59692017D01*
X66807624Y-59690000D01*
X66667982Y-59740604D01*
X66632667Y-59887555D01*
X66370497Y-59887555D01*
X66342472Y-59788270D01*
X66289580Y-59420874D01*
X66922068Y-59447269D01*
X67235291Y-59452360D01*
X67479995Y-59441496D01*
X67609336Y-59417026D01*
X67615723Y-59412499D01*
X67776955Y-59350914D01*
X67948575Y-59403057D01*
X68025789Y-59498758D01*
X68007983Y-59673805D01*
X67898468Y-59795091D01*
X67785975Y-59901614D01*
X67808722Y-59941384D01*
X67850954Y-59944000D01*
X67972278Y-59987688D01*
X67959670Y-60079291D01*
X67860334Y-60143951D01*
X67748208Y-60234856D01*
X67756142Y-60331122D01*
X67858382Y-60367333D01*
X68021086Y-60292239D01*
X68147761Y-60104933D01*
X68209658Y-59862381D01*
X68199366Y-59691665D01*
X68142432Y-59432448D01*
X69857056Y-59455390D01*
X70480365Y-59466593D01*
X70949940Y-59482088D01*
X71281350Y-59503021D01*
X71490166Y-59530538D01*
X71591958Y-59565785D01*
X71606895Y-59584166D01*
X71571702Y-59674970D01*
X71508056Y-59690000D01*
X71435292Y-59720351D01*
X71393944Y-59833493D01*
X71376346Y-60062557D01*
X71374000Y-60269544D01*
X71383696Y-60602571D01*
X71420046Y-60814135D01*
X71493942Y-60951372D01*
X71543334Y-61002333D01*
X71680924Y-61160522D01*
X71705929Y-61269111D01*
X71641122Y-61298666D01*
X71536392Y-61242079D01*
X71418140Y-61131329D01*
X71282338Y-61022582D01*
X71193478Y-61009248D01*
X71139145Y-60980643D01*
X71133542Y-60901418D01*
X71138289Y-60564452D01*
X71087410Y-60351680D01*
X70993000Y-60282666D01*
X70880328Y-60328384D01*
X70866000Y-60367333D01*
X70794866Y-60435433D01*
X70691479Y-60452000D01*
X70586815Y-60435586D01*
X70547375Y-60357014D01*
X70559604Y-60172283D01*
X70574092Y-60071000D01*
X70594169Y-59901666D01*
X70866000Y-59901666D01*
X70910161Y-60071905D01*
X70993000Y-60113333D01*
X71095143Y-60039732D01*
X71120000Y-59901666D01*
X71075840Y-59731428D01*
X70993000Y-59690000D01*
X70890857Y-59763600D01*
X70866000Y-59901666D01*
X70594169Y-59901666D01*
X70601801Y-59837297D01*
X70582713Y-59725577D01*
G37*
G36*
X60149514Y-50722791D02*
G01*
X60242125Y-50845692D01*
X60364421Y-51067225D01*
X60531683Y-51409946D01*
X60637785Y-51635585D01*
X61108121Y-52642218D01*
X60801227Y-52742610D01*
X60575756Y-52818654D01*
X60415941Y-52876563D01*
X60399805Y-52883121D01*
X60338479Y-52821664D01*
X60250838Y-52605468D01*
X60141042Y-52246365D01*
X60036701Y-51850780D01*
X59938622Y-51450595D01*
X59860421Y-51114954D01*
X59809056Y-50875015D01*
X59791482Y-50761938D01*
X59792562Y-50757344D01*
X59883151Y-50718756D01*
X59992225Y-50682660D01*
X60071308Y-50675966D01*
X60149514Y-50722791D01*
G37*
G36*
X80429681Y-43095482D02*
G01*
X80389387Y-43095333D01*
X80154909Y-43086472D01*
X80044058Y-43042985D01*
X80011381Y-42939512D01*
X80010000Y-42883666D01*
X80010000Y-42672000D01*
X84412667Y-42672000D01*
X84412667Y-42883666D01*
X84385014Y-43035388D01*
X84267844Y-43090516D01*
X84160784Y-43095333D01*
X83987473Y-43110913D01*
X83937761Y-43193042D01*
X83959077Y-43346218D01*
X83963910Y-43749364D01*
X83809620Y-44097962D01*
X83678341Y-44244503D01*
X83538462Y-44398602D01*
X83522200Y-44509065D01*
X83560956Y-44570921D01*
X83698924Y-44654369D01*
X83776208Y-44650510D01*
X83879136Y-44682575D01*
X83954611Y-44813295D01*
X83971722Y-44972029D01*
X83947468Y-45041909D01*
X83813794Y-45119074D01*
X83610743Y-45098714D01*
X83387102Y-45004592D01*
X83191660Y-44860470D01*
X83073205Y-44690112D01*
X83058000Y-44608681D01*
X83005507Y-44469198D01*
X82923369Y-44356900D01*
X82831572Y-44152289D01*
X82843435Y-44035797D01*
X82918387Y-43916591D01*
X83069144Y-43899998D01*
X83144644Y-43912762D01*
X83335859Y-43922735D01*
X83448625Y-43825292D01*
X83492168Y-43740365D01*
X83550201Y-43504972D01*
X83496739Y-43307000D01*
X83425855Y-43188293D01*
X83319564Y-43124640D01*
X83129894Y-43099290D01*
X82890482Y-43095333D01*
X82380667Y-43095333D01*
X82380667Y-45127333D01*
X82126667Y-45127333D01*
X81981459Y-45119513D01*
X81905879Y-45068269D01*
X81877194Y-44931920D01*
X81872667Y-44668787D01*
X81872667Y-44661666D01*
X81868402Y-44395452D01*
X81840450Y-44256889D01*
X81766078Y-44204298D01*
X81622551Y-44196000D01*
X81618667Y-44196000D01*
X81431503Y-44168420D01*
X81366578Y-44068334D01*
X81364667Y-44033179D01*
X81348341Y-43949230D01*
X81280557Y-43968600D01*
X81133106Y-44102112D01*
X81100472Y-44134553D01*
X80936044Y-44324653D01*
X80893697Y-44458263D01*
X80921202Y-44530207D01*
X81053778Y-44631323D01*
X81132833Y-44639137D01*
X81240472Y-44691315D01*
X81318464Y-44836959D01*
X81334092Y-45000231D01*
X81313253Y-45057359D01*
X81187816Y-45121527D01*
X80985653Y-45118770D01*
X80781356Y-45058165D01*
X80670701Y-44979166D01*
X80504723Y-44750478D01*
X80354584Y-44483872D01*
X80244692Y-44230837D01*
X80199455Y-44042861D01*
X80205103Y-43996966D01*
X80316013Y-43901363D01*
X80518330Y-43843547D01*
X80533619Y-43841893D01*
X80755177Y-43775097D01*
X80850875Y-43616831D01*
X80831301Y-43347090D01*
X80820218Y-43300303D01*
X80765449Y-43171637D01*
X80754605Y-43165869D01*
X81301025Y-43165869D01*
X81313275Y-43229258D01*
X81354625Y-43420544D01*
X81364667Y-43567924D01*
X81393465Y-43714603D01*
X81513548Y-43768114D01*
X81618667Y-43772666D01*
X81781534Y-43759292D01*
X81853935Y-43686820D01*
X81872266Y-43506721D01*
X81872667Y-43434000D01*
X81863887Y-43217190D01*
X81808184Y-43120843D01*
X81661510Y-43096114D01*
X81567275Y-43095333D01*
X81366928Y-43110046D01*
X81301025Y-43165869D01*
X80754605Y-43165869D01*
X80652537Y-43111578D01*
X80429681Y-43095482D01*
G37*
G36*
X88407541Y-39944352D02*
G01*
X88481899Y-39884588D01*
X88600054Y-39878000D01*
X88883322Y-39833025D01*
X89081985Y-39714566D01*
X89154000Y-39553287D01*
X89103422Y-39368225D01*
X88938561Y-39255633D01*
X88639724Y-39205508D01*
X88459733Y-39200666D01*
X87968667Y-39200666D01*
X87968667Y-41317333D01*
X87545334Y-41317333D01*
X87545334Y-39200666D01*
X86868000Y-39200666D01*
X86868000Y-41317333D01*
X86656334Y-41317333D01*
X86548671Y-41309419D01*
X86485562Y-41261899D01*
X86455116Y-41139104D01*
X86445445Y-40905366D01*
X86444667Y-40682333D01*
X86444667Y-40047333D01*
X86108979Y-40047333D01*
X85857715Y-40074082D01*
X85714024Y-40169735D01*
X85676935Y-40227376D01*
X85636776Y-40415645D01*
X85672086Y-40619252D01*
X85762749Y-40770623D01*
X85850185Y-40809333D01*
X85926393Y-40872505D01*
X85915086Y-41022381D01*
X85861274Y-41135893D01*
X85731841Y-41212216D01*
X85557098Y-41166157D01*
X85383257Y-41017806D01*
X85300738Y-40892204D01*
X85183766Y-40503472D01*
X85236012Y-40114282D01*
X85302543Y-39960972D01*
X85486023Y-39711592D01*
X85738838Y-39578467D01*
X86100434Y-39539333D01*
X86324218Y-39525617D01*
X86424112Y-39469962D01*
X86444667Y-39370000D01*
X86433386Y-39294019D01*
X86379449Y-39244924D01*
X86252715Y-39216892D01*
X86023041Y-39204099D01*
X85660286Y-39200724D01*
X85568095Y-39200666D01*
X84691524Y-39200666D01*
X84731827Y-39620114D01*
X84745227Y-39887550D01*
X84704714Y-40063500D01*
X84586710Y-40223073D01*
X84521483Y-40290209D01*
X84364069Y-40505706D01*
X84342248Y-40681076D01*
X84452579Y-40788716D01*
X84586207Y-40809333D01*
X84707526Y-40874845D01*
X84755106Y-41024243D01*
X84724303Y-41186817D01*
X84617722Y-41289252D01*
X84445999Y-41274568D01*
X84234347Y-41149161D01*
X84029558Y-40947751D01*
X83904667Y-40760182D01*
X83781524Y-40560248D01*
X83667225Y-40427508D01*
X83591194Y-40288969D01*
X83646311Y-40149346D01*
X83802316Y-40058753D01*
X83896792Y-40047333D01*
X84160465Y-39986746D01*
X84303935Y-39811276D01*
X84328000Y-39655447D01*
X84267506Y-39418553D01*
X84079069Y-39270676D01*
X83752256Y-39205279D01*
X83602286Y-39200666D01*
X83142667Y-39200666D01*
X83142667Y-41317333D01*
X82719334Y-41317333D01*
X82719334Y-39200666D01*
X82042000Y-39200666D01*
X82042000Y-41317333D01*
X81830334Y-41317333D01*
X81704711Y-41303608D01*
X81642042Y-41233562D01*
X81620672Y-41063893D01*
X81618667Y-40894000D01*
X81613700Y-40643465D01*
X81579694Y-40518543D01*
X81487986Y-40475512D01*
X81341150Y-40470666D01*
X81060200Y-40533072D01*
X80918645Y-40640000D01*
X80702770Y-40787455D01*
X80468164Y-40779387D01*
X80312381Y-40676285D01*
X80190541Y-40458669D01*
X80232889Y-40231459D01*
X80348667Y-40089666D01*
X80487749Y-39914851D01*
X80503071Y-39776739D01*
X80393428Y-39710313D01*
X80361789Y-39708666D01*
X80137609Y-39639396D01*
X79993652Y-39463673D01*
X79941019Y-39229622D01*
X79946922Y-39200666D01*
X80348667Y-39200666D01*
X80413096Y-39282873D01*
X80433334Y-39285333D01*
X80515540Y-39220904D01*
X80518000Y-39200666D01*
X80453571Y-39118460D01*
X80433334Y-39116000D01*
X80351127Y-39180429D01*
X80348667Y-39200666D01*
X79946922Y-39200666D01*
X79990809Y-38985373D01*
X80148418Y-38783478D01*
X80382499Y-38638528D01*
X80574255Y-38635360D01*
X80777832Y-38776589D01*
X80818182Y-38815818D01*
X80945594Y-38977299D01*
X81008223Y-39172049D01*
X81025929Y-39464794D01*
X81026000Y-39493151D01*
X81026000Y-39962666D01*
X81322334Y-39962666D01*
X81504414Y-39954533D01*
X81590634Y-39899410D01*
X81616839Y-39751213D01*
X81618667Y-39581666D01*
X81602046Y-39330544D01*
X81545533Y-39216158D01*
X81491667Y-39200666D01*
X81389524Y-39127065D01*
X81364667Y-38989000D01*
X81364667Y-38777333D01*
X86343887Y-38777333D01*
X86299010Y-38442753D01*
X86290327Y-38264266D01*
X86756425Y-38264266D01*
X86764541Y-38509759D01*
X86781226Y-38560123D01*
X86863926Y-38703939D01*
X87003963Y-38765885D01*
X87204571Y-38777333D01*
X87423135Y-38766541D01*
X87520643Y-38712964D01*
X87545015Y-38584795D01*
X87545334Y-38551166D01*
X87477880Y-38284197D01*
X87304001Y-38089553D01*
X87069523Y-38015333D01*
X86865809Y-38084863D01*
X86756425Y-38264266D01*
X86290327Y-38264266D01*
X86287506Y-38206280D01*
X86352637Y-38032684D01*
X86512221Y-37850086D01*
X86828752Y-37634134D01*
X87166798Y-37580818D01*
X87500900Y-37690086D01*
X87708154Y-37852512D01*
X87893431Y-38085479D01*
X87964018Y-38331192D01*
X87968667Y-38443082D01*
X87968667Y-38773138D01*
X89344500Y-38796402D01*
X89855254Y-38805786D01*
X90221420Y-38816453D01*
X90467726Y-38832171D01*
X90618899Y-38856708D01*
X90699668Y-38893831D01*
X90734759Y-38947309D01*
X90747389Y-39010166D01*
X90736032Y-39152459D01*
X90615212Y-39198958D01*
X90556889Y-39200666D01*
X90339334Y-39200666D01*
X90339334Y-41317333D01*
X90127667Y-41317333D01*
X89991092Y-41298747D01*
X89930531Y-41211205D01*
X89916064Y-41007030D01*
X89916000Y-40980036D01*
X89916000Y-40642739D01*
X89624163Y-40781907D01*
X89273761Y-40868177D01*
X88947075Y-40800992D01*
X88672279Y-40596167D01*
X88477543Y-40269523D01*
X88474303Y-40258938D01*
X88933352Y-40258938D01*
X88942334Y-40301333D01*
X89055170Y-40359093D01*
X89259413Y-40385786D01*
X89279852Y-40386000D01*
X89547905Y-40331221D01*
X89744580Y-40157756D01*
X89855740Y-39939265D01*
X89904339Y-39682312D01*
X89890996Y-39440638D01*
X89816331Y-39267984D01*
X89733749Y-39217944D01*
X89640140Y-39235535D01*
X89603893Y-39361186D01*
X89602670Y-39503220D01*
X89570290Y-39768259D01*
X89427810Y-39970833D01*
X89378033Y-40015839D01*
X89188644Y-40150373D01*
X89032131Y-40215531D01*
X89017282Y-40216666D01*
X88933352Y-40258938D01*
X88474303Y-40258938D01*
X88428976Y-40110833D01*
X88407541Y-39944352D01*
G37*
G36*
X57272050Y-49286154D02*
G01*
X57310897Y-49386255D01*
X57332451Y-49483704D01*
X57322074Y-49542375D01*
X57260882Y-49613231D01*
X57133189Y-49704983D01*
X56923311Y-49826340D01*
X56615560Y-49986015D01*
X56194252Y-50192716D01*
X55643701Y-50455155D01*
X55245000Y-50642906D01*
X54687796Y-50903148D01*
X54178681Y-51138295D01*
X53738311Y-51339019D01*
X53387342Y-51495991D01*
X53146428Y-51599880D01*
X53036224Y-51641358D01*
X53033657Y-51641701D01*
X52962718Y-51569621D01*
X52873938Y-51377291D01*
X52800824Y-51154278D01*
X52726334Y-50867770D01*
X52676174Y-50634576D01*
X52662667Y-50529517D01*
X52698644Y-50479680D01*
X52816225Y-50418181D01*
X53029884Y-50340569D01*
X53354095Y-50242392D01*
X53803333Y-50119198D01*
X54392072Y-49966537D01*
X54951766Y-49825559D01*
X55547513Y-49678178D01*
X56087733Y-49547172D01*
X56551242Y-49437466D01*
X56916856Y-49353983D01*
X57163392Y-49301648D01*
X57269665Y-49285387D01*
X57272050Y-49286154D01*
G37*
G36*
X74443443Y-42086582D02*
G01*
X74872859Y-42694112D01*
X75214627Y-43408067D01*
X75319907Y-43697580D01*
X75450851Y-44109387D01*
X75513393Y-44393552D01*
X75504509Y-44578637D01*
X75421175Y-44693202D01*
X75260368Y-44765811D01*
X75205167Y-44781427D01*
X75074789Y-44814694D01*
X74793128Y-44885671D01*
X74373201Y-44991102D01*
X73828027Y-45127729D01*
X73170625Y-45292296D01*
X72414015Y-45481544D01*
X71571213Y-45692218D01*
X70655241Y-45921060D01*
X69679115Y-46164813D01*
X68655855Y-46420221D01*
X68241334Y-46523653D01*
X67208180Y-46781516D01*
X66220779Y-47028131D01*
X65291707Y-47260347D01*
X64433543Y-47475012D01*
X63658863Y-47668976D01*
X62980245Y-47839085D01*
X62410266Y-47982190D01*
X61961503Y-48095137D01*
X61646535Y-48174776D01*
X61477937Y-48217955D01*
X61453662Y-48224501D01*
X61315153Y-48194621D01*
X61254751Y-48085682D01*
X61237364Y-47915673D01*
X61269090Y-47838349D01*
X61355179Y-47793385D01*
X61583488Y-47682563D01*
X61942606Y-47511241D01*
X62421124Y-47284778D01*
X63007633Y-47008534D01*
X63690723Y-46687868D01*
X64458985Y-46328138D01*
X65301009Y-45934704D01*
X66205384Y-45512925D01*
X67160703Y-45068160D01*
X67769832Y-44784954D01*
X74198664Y-41797497D01*
X74443443Y-42086582D01*
G37*
G36*
X61034184Y-50080437D02*
G01*
X61150497Y-50131857D01*
X61314404Y-50222563D01*
X61536756Y-50359530D01*
X61828406Y-50549732D01*
X62200207Y-50800144D01*
X62663011Y-51117741D01*
X63227671Y-51509497D01*
X63905040Y-51982387D01*
X64705969Y-52543385D01*
X65030142Y-52770711D01*
X65769627Y-53289368D01*
X66472202Y-53782124D01*
X67124812Y-54239824D01*
X67714402Y-54653313D01*
X68227918Y-55013436D01*
X68652307Y-55311037D01*
X68974512Y-55536963D01*
X69181481Y-55682058D01*
X69255006Y-55733570D01*
X69464345Y-55880000D01*
X69255006Y-55876358D01*
X69067667Y-55848435D01*
X68784886Y-55779137D01*
X68495334Y-55692138D01*
X68272155Y-55605371D01*
X67924810Y-55453250D01*
X67479599Y-55248098D01*
X66962824Y-55002239D01*
X66400784Y-54727995D01*
X65842407Y-54449128D01*
X63739813Y-53386696D01*
X62224875Y-51808355D01*
X61764887Y-51327997D01*
X61410928Y-50954138D01*
X61151084Y-50671773D01*
X60973441Y-50465897D01*
X60866085Y-50321505D01*
X60817104Y-50223591D01*
X60814583Y-50157149D01*
X60846610Y-50107175D01*
X60862277Y-50092148D01*
X60900927Y-50067557D01*
X60954611Y-50061329D01*
X61034184Y-50080437D01*
G37*
G36*
X53931758Y-47230114D02*
G01*
X54172847Y-47282243D01*
X54524839Y-47375501D01*
X54960438Y-47498756D01*
X55639435Y-47693168D01*
X56173036Y-47846445D01*
X56578310Y-47965193D01*
X56872327Y-48056020D01*
X57072155Y-48125531D01*
X57194862Y-48180335D01*
X57257516Y-48227039D01*
X57277187Y-48272248D01*
X57270943Y-48322570D01*
X57255853Y-48384612D01*
X57255373Y-48387083D01*
X57192566Y-48541863D01*
X57118963Y-48587927D01*
X57010285Y-48577671D01*
X56757995Y-48554781D01*
X56387162Y-48521503D01*
X55922851Y-48480082D01*
X55390132Y-48432764D01*
X55075667Y-48404915D01*
X54519977Y-48354567D01*
X54022714Y-48307242D01*
X53608012Y-48265424D01*
X53300008Y-48231596D01*
X53122834Y-48208242D01*
X53089636Y-48200568D01*
X53101877Y-48112944D01*
X53182326Y-47933060D01*
X53304211Y-47708844D01*
X53440763Y-47488225D01*
X53565211Y-47319131D01*
X53605772Y-47276504D01*
X53675033Y-47231644D01*
X53774758Y-47214714D01*
X53931758Y-47230114D01*
G37*
G36*
X110744000Y-48090666D02*
G01*
X109643334Y-48090666D01*
X109643334Y-48683333D01*
X110109000Y-48683333D01*
X110375214Y-48687598D01*
X110513777Y-48715549D01*
X110566368Y-48789922D01*
X110574666Y-48933449D01*
X110574667Y-48937333D01*
X110566847Y-49082540D01*
X110515603Y-49158120D01*
X110379254Y-49186806D01*
X110116121Y-49191333D01*
X109643334Y-49191333D01*
X109643334Y-49784000D01*
X110744000Y-49784000D01*
X110744000Y-50292000D01*
X109050667Y-50292000D01*
X109050667Y-47582666D01*
X110744000Y-47582666D01*
X110744000Y-48090666D01*
G37*
G36*
X57832836Y-38470889D02*
G01*
X58134281Y-38497303D01*
X58473353Y-38533948D01*
X58806741Y-38576084D01*
X59091136Y-38618971D01*
X59283226Y-38657871D01*
X59301365Y-38663059D01*
X59344090Y-38681830D01*
X59378086Y-38720298D01*
X59403938Y-38795210D01*
X59422235Y-38923318D01*
X59433562Y-39121371D01*
X59438508Y-39406118D01*
X59437658Y-39794310D01*
X59431600Y-40302695D01*
X59420920Y-40948023D01*
X59407329Y-41687166D01*
X59393900Y-42432705D01*
X59381627Y-43169607D01*
X59370912Y-43869331D01*
X59362159Y-44503337D01*
X59355769Y-45043084D01*
X59352145Y-45460033D01*
X59351464Y-45646629D01*
X59350317Y-46067161D01*
X59342937Y-46348197D01*
X59323212Y-46519574D01*
X59285032Y-46611129D01*
X59222287Y-46652700D01*
X59141533Y-46671698D01*
X58957996Y-46662177D01*
X58893471Y-46575735D01*
X58861283Y-46429388D01*
X58806337Y-46143551D01*
X58731974Y-45737874D01*
X58641531Y-45232009D01*
X58538345Y-44645604D01*
X58425756Y-43998311D01*
X58307102Y-43309779D01*
X58185721Y-42599661D01*
X58064951Y-41887605D01*
X57948130Y-41193262D01*
X57838596Y-40536282D01*
X57739689Y-39936317D01*
X57654745Y-39413016D01*
X57587104Y-38986030D01*
X57540103Y-38675009D01*
X57517081Y-38499603D01*
X57516071Y-38467706D01*
X57612329Y-38459443D01*
X57832836Y-38470889D01*
G37*
G36*
X102593101Y-39874772D02*
G01*
X102753568Y-39622538D01*
X102998498Y-39459979D01*
X103192702Y-39422146D01*
X103383171Y-39385756D01*
X103462398Y-39309081D01*
X103462474Y-39306500D01*
X103406569Y-39250445D01*
X103226189Y-39216443D01*
X102902709Y-39201755D01*
X102743000Y-39200666D01*
X102023334Y-39200666D01*
X102023334Y-41317333D01*
X101605212Y-41317333D01*
X101581439Y-40280166D01*
X101557667Y-39243000D01*
X101328195Y-39216533D01*
X101193485Y-39208670D01*
X101131925Y-39253061D01*
X101125072Y-39390290D01*
X101148650Y-39611622D01*
X101165395Y-40061582D01*
X101088399Y-40397773D01*
X100920513Y-40642153D01*
X100672421Y-40787058D01*
X100392800Y-40800519D01*
X100127655Y-40701633D01*
X99922993Y-40509494D01*
X99824818Y-40243199D01*
X99822000Y-40186194D01*
X99823045Y-40182329D01*
X100289398Y-40182329D01*
X100298153Y-40255795D01*
X100410605Y-40370933D01*
X100559151Y-40362280D01*
X100630893Y-40293956D01*
X100636199Y-40166379D01*
X100532390Y-40076232D01*
X100379452Y-40075219D01*
X100289398Y-40182329D01*
X99823045Y-40182329D01*
X99894053Y-39919782D01*
X100077433Y-39699392D01*
X100322974Y-39570228D01*
X100505012Y-39558226D01*
X100673084Y-39574124D01*
X100702888Y-39529733D01*
X100638229Y-39418932D01*
X100539959Y-39318276D01*
X100381437Y-39258600D01*
X100117769Y-39226550D01*
X99962878Y-39218025D01*
X99403940Y-39193050D01*
X99356334Y-41275000D01*
X98933000Y-41275000D01*
X98909228Y-40237833D01*
X98885455Y-39200666D01*
X98213334Y-39200666D01*
X98213334Y-41317333D01*
X97790000Y-41317333D01*
X97790000Y-39200666D01*
X97117879Y-39200666D01*
X97094106Y-40237833D01*
X97082891Y-40671501D01*
X97068830Y-40964543D01*
X97045986Y-41145637D01*
X97008424Y-41243463D01*
X96950207Y-41286698D01*
X96873659Y-41302864D01*
X96701578Y-41277021D01*
X96631479Y-41156720D01*
X96566774Y-41035702D01*
X96442584Y-41059567D01*
X96431554Y-41065356D01*
X96146282Y-41145088D01*
X95830285Y-41128335D01*
X95561017Y-41023073D01*
X95494171Y-40968837D01*
X95373239Y-40798199D01*
X95346905Y-40583921D01*
X95359112Y-40460853D01*
X95369519Y-40240118D01*
X95340593Y-40100061D01*
X95326608Y-40084686D01*
X95241361Y-39949956D01*
X95250211Y-39878000D01*
X95673334Y-39878000D01*
X95745790Y-39941645D01*
X95885000Y-39962666D01*
X96046122Y-39997636D01*
X96095773Y-40135326D01*
X96096667Y-40174333D01*
X96056980Y-40340314D01*
X95927334Y-40386000D01*
X95787216Y-40446972D01*
X95761657Y-40581442D01*
X95814445Y-40668222D01*
X95980964Y-40728749D01*
X96196173Y-40680166D01*
X96396131Y-40539805D01*
X96429188Y-40501581D01*
X96535992Y-40317498D01*
X96590145Y-40077120D01*
X96604667Y-39739581D01*
X96599168Y-39445506D01*
X96574761Y-39282857D01*
X96519582Y-39213875D01*
X96435334Y-39200666D01*
X96318625Y-39233814D01*
X96271535Y-39363222D01*
X96266000Y-39497000D01*
X96252894Y-39695611D01*
X96178947Y-39777064D01*
X95992222Y-39793296D01*
X95969667Y-39793333D01*
X95773799Y-39814598D01*
X95675893Y-39866888D01*
X95673334Y-39878000D01*
X95250211Y-39878000D01*
X95264499Y-39761820D01*
X95369812Y-39569626D01*
X95531093Y-39422725D01*
X95706164Y-39370000D01*
X95804583Y-39332307D01*
X95800334Y-39285333D01*
X95694550Y-39241634D01*
X95470049Y-39211057D01*
X95202670Y-39200666D01*
X94657334Y-39200666D01*
X94657334Y-41317333D01*
X94234000Y-41317333D01*
X94234000Y-39200666D01*
X93561879Y-39200666D01*
X93538106Y-40237833D01*
X93526760Y-40671720D01*
X93512427Y-40964939D01*
X93489342Y-41146132D01*
X93451737Y-41243943D01*
X93393845Y-41287013D01*
X93323834Y-41302055D01*
X93174690Y-41286015D01*
X93133337Y-41155889D01*
X93133334Y-41153888D01*
X93120971Y-41037434D01*
X93064642Y-40993273D01*
X92935485Y-41025114D01*
X92704641Y-41136663D01*
X92526647Y-41231833D01*
X92275828Y-41355138D01*
X92085628Y-41425450D01*
X92003612Y-41429389D01*
X91949370Y-41285924D01*
X92060798Y-41127559D01*
X92339178Y-40952443D01*
X92730355Y-40753641D01*
X92462806Y-40642818D01*
X92192294Y-40483266D01*
X92030110Y-40255225D01*
X91957096Y-39923232D01*
X91948000Y-39689827D01*
X91944834Y-39602198D01*
X92371334Y-39602198D01*
X92412788Y-39937830D01*
X92524900Y-40151034D01*
X92689288Y-40228529D01*
X92887574Y-40157033D01*
X92998817Y-40055638D01*
X93110535Y-39812045D01*
X93117773Y-39568805D01*
X93090909Y-39363721D01*
X93021366Y-39265378D01*
X92858187Y-39227402D01*
X92731167Y-39216965D01*
X92371334Y-39190930D01*
X92371334Y-39602198D01*
X91944834Y-39602198D01*
X91937568Y-39401096D01*
X91900741Y-39248782D01*
X91829226Y-39200939D01*
X91821000Y-39200666D01*
X91807488Y-39190930D01*
X91718857Y-39127065D01*
X91694000Y-38989000D01*
X91694000Y-38784181D01*
X99314000Y-38784181D01*
X100012500Y-38759590D01*
X100355098Y-38745195D01*
X100563735Y-38723581D01*
X100673711Y-38682603D01*
X100720327Y-38610119D01*
X100737001Y-38510353D01*
X100689460Y-38279080D01*
X100501781Y-38111972D01*
X100196023Y-38024555D01*
X100033667Y-38015333D01*
X99670871Y-38067949D01*
X99427885Y-38219093D01*
X99318733Y-38458702D01*
X99314000Y-38531558D01*
X99314000Y-38784181D01*
X91694000Y-38784181D01*
X91694000Y-38777333D01*
X94175578Y-38777333D01*
X94017620Y-38602791D01*
X93867323Y-38488443D01*
X93658799Y-38449348D01*
X93477688Y-38454625D01*
X93229291Y-38457747D01*
X93105075Y-38414644D01*
X93067542Y-38340933D01*
X93113870Y-38214711D01*
X93316931Y-38109393D01*
X93335168Y-38103244D01*
X93681654Y-38070569D01*
X94009551Y-38204078D01*
X94311183Y-38499796D01*
X94490611Y-38735000D01*
X94435260Y-38481000D01*
X94343770Y-38171363D01*
X94220792Y-37996162D01*
X94039610Y-37920566D01*
X94001199Y-37915126D01*
X93813399Y-37851103D01*
X93768858Y-37748585D01*
X93863103Y-37651837D01*
X94032171Y-37608647D01*
X94291422Y-37662257D01*
X94526683Y-37851615D01*
X94707435Y-38143261D01*
X94795202Y-38445218D01*
X94848309Y-38777333D01*
X96319155Y-38777333D01*
X96796938Y-38774585D01*
X97209898Y-38766963D01*
X97530840Y-38755400D01*
X97732570Y-38740828D01*
X97790000Y-38726896D01*
X97733852Y-38572214D01*
X97597445Y-38370167D01*
X97428841Y-38183883D01*
X97304773Y-38089531D01*
X97111579Y-38024525D01*
X96942606Y-38080809D01*
X96940629Y-38082040D01*
X96803084Y-38134441D01*
X96708549Y-38049073D01*
X96685979Y-38009064D01*
X96646455Y-37808605D01*
X96754718Y-37664651D01*
X96993589Y-37595482D01*
X97077878Y-37592000D01*
X97354215Y-37666935D01*
X97637411Y-37866796D01*
X97886186Y-38154160D01*
X98054023Y-38476836D01*
X98144761Y-38676092D01*
X98265720Y-38760139D01*
X98484342Y-38777333D01*
X98694284Y-38766030D01*
X98784862Y-38705374D01*
X98805792Y-38555246D01*
X98806000Y-38517767D01*
X98856795Y-38191039D01*
X99025924Y-37949544D01*
X99338505Y-37757584D01*
X99341998Y-37755994D01*
X99774335Y-37623091D01*
X100197546Y-37604520D01*
X100582148Y-37688776D01*
X100898655Y-37864352D01*
X101117583Y-38119741D01*
X101209448Y-38443436D01*
X101210534Y-38485211D01*
X101210534Y-38777333D01*
X103354518Y-38777333D01*
X103314355Y-38567230D01*
X103315804Y-38473175D01*
X103717053Y-38473175D01*
X103740072Y-38663122D01*
X103773111Y-38720888D01*
X103877996Y-38748466D01*
X104097482Y-38766520D01*
X104386045Y-38775258D01*
X104698161Y-38774886D01*
X104988304Y-38765611D01*
X105210951Y-38747640D01*
X105320577Y-38721181D01*
X105325017Y-38713833D01*
X105284401Y-38605771D01*
X105184807Y-38421521D01*
X105162236Y-38383895D01*
X104929145Y-38142714D01*
X104613756Y-37997037D01*
X104269883Y-37957583D01*
X103951345Y-38035068D01*
X103822974Y-38117173D01*
X103747171Y-38261115D01*
X103717053Y-38473175D01*
X103315804Y-38473175D01*
X103319652Y-38223355D01*
X103460306Y-37942823D01*
X103710352Y-37737495D01*
X104043829Y-37619236D01*
X104434774Y-37599906D01*
X104857225Y-37691369D01*
X105052875Y-37772891D01*
X105355692Y-37974289D01*
X105594410Y-38235152D01*
X105730639Y-38508211D01*
X105748350Y-38629166D01*
X105812550Y-38749090D01*
X105960334Y-38777333D01*
X106121455Y-38812302D01*
X106171106Y-38949993D01*
X106172000Y-38989000D01*
X106137031Y-39150121D01*
X105999340Y-39199772D01*
X105960334Y-39200666D01*
X105748667Y-39200666D01*
X105748667Y-41317333D01*
X105325334Y-41317333D01*
X105325334Y-39200666D01*
X104648000Y-39200666D01*
X104291714Y-39208010D01*
X104078516Y-39232961D01*
X103982678Y-39279895D01*
X103970667Y-39315925D01*
X104038213Y-39397555D01*
X104163053Y-39394407D01*
X104382693Y-39426946D01*
X104621612Y-39570553D01*
X104824230Y-39784409D01*
X104910864Y-39943647D01*
X104949127Y-40255074D01*
X104854556Y-40556901D01*
X104656936Y-40804780D01*
X104386053Y-40954362D01*
X104215703Y-40978666D01*
X104017062Y-41032229D01*
X103946135Y-41148000D01*
X103832401Y-41291122D01*
X103716667Y-41317333D01*
X103541899Y-41247558D01*
X103487199Y-41148000D01*
X103383024Y-41011071D01*
X103210337Y-40978666D01*
X102967226Y-40910292D01*
X102754546Y-40755454D01*
X102579982Y-40482637D01*
X102537792Y-40219488D01*
X102954667Y-40219488D01*
X102983009Y-40439230D01*
X103093659Y-40536999D01*
X103265111Y-40555333D01*
X103387334Y-40537214D01*
X103445238Y-40452904D01*
X103462118Y-40257473D01*
X103462667Y-40174333D01*
X103459717Y-40117888D01*
X103970667Y-40117888D01*
X104005661Y-40405560D01*
X104103012Y-40552309D01*
X104251268Y-40548675D01*
X104377067Y-40453733D01*
X104477390Y-40256050D01*
X104454512Y-40040994D01*
X104330991Y-39867222D01*
X104129389Y-39793391D01*
X104123067Y-39793333D01*
X104020153Y-39830586D01*
X103976445Y-39969556D01*
X103970667Y-40117888D01*
X103459717Y-40117888D01*
X103450069Y-39933308D01*
X103401455Y-39819879D01*
X103310267Y-39793333D01*
X103095183Y-39865703D01*
X102973585Y-40064925D01*
X102954667Y-40219488D01*
X102537792Y-40219488D01*
X102530703Y-40175274D01*
X102593101Y-39874772D01*
G37*
G36*
X52259361Y-41490745D02*
G01*
X53224451Y-42475994D01*
X54076353Y-43347805D01*
X54821269Y-44112826D01*
X55465396Y-44777705D01*
X56014936Y-45349089D01*
X56476086Y-45833628D01*
X56855047Y-46237969D01*
X57158019Y-46568760D01*
X57391200Y-46832649D01*
X57560790Y-47036284D01*
X57672989Y-47186314D01*
X57733995Y-47289386D01*
X57750009Y-47352149D01*
X57742743Y-47370908D01*
X57609976Y-47476227D01*
X57541800Y-47494512D01*
X57445987Y-47446541D01*
X57235365Y-47314940D01*
X56932701Y-47114797D01*
X56560767Y-46861201D01*
X56142332Y-46569240D01*
X56093833Y-46534999D01*
X54741333Y-45578974D01*
X54767277Y-45219650D01*
X54769441Y-44998100D01*
X54717153Y-44833572D01*
X54580986Y-44662697D01*
X54447812Y-44531746D01*
X54206078Y-44346440D01*
X53810716Y-44103152D01*
X53266233Y-43804458D01*
X52577138Y-43452931D01*
X52446103Y-43388186D01*
X51786696Y-43059056D01*
X51266804Y-42786857D01*
X50870916Y-42560387D01*
X50583525Y-42368448D01*
X50389121Y-42199841D01*
X50272195Y-42043366D01*
X50217239Y-41887823D01*
X50207334Y-41771509D01*
X50282734Y-41330426D01*
X50513687Y-40888208D01*
X50746202Y-40597666D01*
X51051722Y-40259000D01*
X52259361Y-41490745D01*
G37*
G36*
X112150314Y-48450379D02*
G01*
X112306373Y-48047728D01*
X112568516Y-47775049D01*
X112938418Y-47630022D01*
X113092642Y-47609076D01*
X113536335Y-47638907D01*
X113884120Y-47805927D01*
X114130359Y-48104061D01*
X114269412Y-48527232D01*
X114300000Y-48910240D01*
X114252918Y-49452486D01*
X114113345Y-49864379D01*
X113883792Y-50138927D01*
X113850361Y-50162284D01*
X113554827Y-50287427D01*
X113203855Y-50343884D01*
X112906529Y-50318618D01*
X112540119Y-50136960D01*
X112281260Y-49827811D01*
X112133826Y-49397563D01*
X112111410Y-49134737D01*
X112702316Y-49134737D01*
X112777521Y-49438368D01*
X112938163Y-49691868D01*
X112950056Y-49704055D01*
X113116323Y-49839435D01*
X113258662Y-49845325D01*
X113444510Y-49723483D01*
X113452345Y-49717158D01*
X113603624Y-49507719D01*
X113683642Y-49215190D01*
X113696361Y-48886001D01*
X113645741Y-48566580D01*
X113535743Y-48303355D01*
X113370328Y-48142755D01*
X113316343Y-48122927D01*
X113089293Y-48137939D01*
X112906036Y-48282577D01*
X112774903Y-48520890D01*
X112704220Y-48816927D01*
X112702316Y-49134737D01*
X112111410Y-49134737D01*
X112098667Y-48985318D01*
X112150314Y-48450379D01*
G37*
G36*
X105985217Y-51773666D02*
G01*
X106623110Y-51773666D01*
X107073801Y-53001333D01*
X107229817Y-53432705D01*
X107362565Y-53811912D01*
X107461820Y-54108783D01*
X107517361Y-54293145D01*
X107525579Y-54334833D01*
X107449968Y-54411181D01*
X107247321Y-54440655D01*
X107242581Y-54440666D01*
X107038966Y-54417701D01*
X106932897Y-54314389D01*
X106879933Y-54165500D01*
X106824527Y-54008346D01*
X106741315Y-53923136D01*
X106581902Y-53883669D01*
X106325234Y-53865176D01*
X105849099Y-53840020D01*
X105749984Y-54140343D01*
X105663925Y-54341397D01*
X105545622Y-54425104D01*
X105361101Y-54440666D01*
X105167820Y-54421589D01*
X105073232Y-54374815D01*
X105071334Y-54366309D01*
X105098906Y-54264953D01*
X105175027Y-54033540D01*
X105289804Y-53700941D01*
X105433344Y-53296026D01*
X105460110Y-53221812D01*
X106029903Y-53221812D01*
X106044364Y-53303056D01*
X106188422Y-53337046D01*
X106295647Y-53340000D01*
X106496955Y-53329693D01*
X106568441Y-53278950D01*
X106549282Y-53158034D01*
X106546611Y-53149500D01*
X106476334Y-52934480D01*
X106390132Y-52679770D01*
X106388023Y-52673655D01*
X106289569Y-52388310D01*
X106182412Y-52745968D01*
X106105913Y-52994063D01*
X106043639Y-53183796D01*
X106029903Y-53221812D01*
X105460110Y-53221812D01*
X105528275Y-53032809D01*
X105985217Y-51773666D01*
G37*
G36*
X63747043Y-39320742D02*
G01*
X64496738Y-40066963D01*
X62462318Y-43464981D01*
X62048885Y-44154906D01*
X61661276Y-44800546D01*
X61308302Y-45387311D01*
X60998772Y-45900612D01*
X60741495Y-46325860D01*
X60545282Y-46648467D01*
X60418942Y-46853841D01*
X60371898Y-46926817D01*
X60270080Y-46933242D01*
X60155890Y-46873632D01*
X60121176Y-46840643D01*
X60100204Y-46791295D01*
X60097242Y-46711915D01*
X60116561Y-46588833D01*
X60162433Y-46408377D01*
X60239126Y-46156878D01*
X60350911Y-45820663D01*
X60502060Y-45386061D01*
X60696841Y-44839402D01*
X60939526Y-44167014D01*
X61234384Y-43355227D01*
X61379156Y-42957482D01*
X61660821Y-42184527D01*
X61928141Y-41452149D01*
X62174866Y-40777386D01*
X62394747Y-40177276D01*
X62581534Y-39668855D01*
X62728977Y-39269162D01*
X62830825Y-38995232D01*
X62879891Y-38866426D01*
X62997348Y-38574520D01*
X63747043Y-39320742D01*
G37*
G36*
X87037334Y-50292000D02*
G01*
X86444667Y-50292000D01*
X86444667Y-47582666D01*
X87037334Y-47582666D01*
X87037334Y-50292000D01*
G37*
G36*
X65968732Y-43600690D02*
G01*
X66213885Y-43707607D01*
X66559424Y-43820087D01*
X66938534Y-43916896D01*
X67013233Y-43932656D01*
X67722614Y-44076274D01*
X64454981Y-45892970D01*
X63773411Y-46271749D01*
X63137743Y-46624728D01*
X62563190Y-46943479D01*
X62064969Y-47219574D01*
X61658294Y-47444587D01*
X61358379Y-47610089D01*
X61180441Y-47707653D01*
X61136511Y-47731054D01*
X61059239Y-47685193D01*
X60974638Y-47574642D01*
X60900089Y-47433565D01*
X60890634Y-47377601D01*
X60959495Y-47320755D01*
X61143559Y-47167451D01*
X61428182Y-46929923D01*
X61798720Y-46620404D01*
X62240528Y-46251125D01*
X62738962Y-45834320D01*
X63275639Y-45385350D01*
X65633611Y-43412342D01*
X65968732Y-43600690D01*
G37*
G36*
X60683182Y-50438123D02*
G01*
X60835637Y-50607016D01*
X61056420Y-50860132D01*
X61325830Y-51174257D01*
X61624172Y-51526174D01*
X61931746Y-51892671D01*
X62228856Y-52250531D01*
X62495803Y-52576542D01*
X62680645Y-52806684D01*
X62770687Y-52935480D01*
X62758541Y-52984668D01*
X62625522Y-52958959D01*
X62395147Y-52878678D01*
X62096952Y-52786760D01*
X61780203Y-52713647D01*
X61760147Y-52710077D01*
X61624007Y-52681131D01*
X61513674Y-52631929D01*
X61408937Y-52538063D01*
X61289588Y-52375123D01*
X61135418Y-52118700D01*
X60926216Y-51744385D01*
X60857854Y-51620266D01*
X60632811Y-51206737D01*
X60482757Y-50915171D01*
X60398331Y-50720703D01*
X60370172Y-50598468D01*
X60388919Y-50523599D01*
X60429536Y-50482500D01*
X60565031Y-50395836D01*
X60618750Y-50376666D01*
X60683182Y-50438123D01*
G37*
G36*
X95782560Y-52233697D02*
G01*
X96030241Y-51923830D01*
X96372720Y-51741943D01*
X96732683Y-51696994D01*
X97159406Y-51774904D01*
X97482793Y-51985514D01*
X97699867Y-52325131D01*
X97807645Y-52790064D01*
X97819700Y-53043666D01*
X97765453Y-53563838D01*
X97605975Y-53973514D01*
X97347437Y-54258135D01*
X97288735Y-54296220D01*
X96964238Y-54409965D01*
X96586591Y-54431605D01*
X96243027Y-54358173D01*
X96189495Y-54333585D01*
X95900893Y-54115022D01*
X95715140Y-53797689D01*
X95620749Y-53358982D01*
X95607956Y-53189126D01*
X95621192Y-52961604D01*
X96219986Y-52961604D01*
X96225528Y-53300259D01*
X96302413Y-53605079D01*
X96413781Y-53786295D01*
X96620195Y-53906727D01*
X96851893Y-53890731D01*
X97048399Y-53747889D01*
X97093076Y-53678666D01*
X97160156Y-53435773D01*
X97178290Y-53083988D01*
X97173391Y-52967573D01*
X97108121Y-52577345D01*
X96974332Y-52320493D01*
X96780588Y-52207628D01*
X96579375Y-52231269D01*
X96402112Y-52378246D01*
X96280581Y-52637979D01*
X96219986Y-52961604D01*
X95621192Y-52961604D01*
X95638768Y-52659482D01*
X95782560Y-52233697D01*
G37*
G36*
X83820000Y-52239333D02*
G01*
X82719334Y-52239333D01*
X82719334Y-52493333D01*
X82727153Y-52638540D01*
X82778397Y-52714120D01*
X82914746Y-52742806D01*
X83177879Y-52747333D01*
X83185000Y-52747333D01*
X83451214Y-52751598D01*
X83589777Y-52779549D01*
X83642368Y-52853922D01*
X83650666Y-52997449D01*
X83650667Y-53001333D01*
X83642847Y-53146540D01*
X83591603Y-53222120D01*
X83455254Y-53250806D01*
X83192121Y-53255333D01*
X82719334Y-53255333D01*
X82719334Y-53932666D01*
X83820000Y-53932666D01*
X83820000Y-54440666D01*
X82126667Y-54440666D01*
X82126667Y-51731333D01*
X83820000Y-51731333D01*
X83820000Y-52239333D01*
G37*
D13*
%TO.C,J7*%
X210100000Y-65160000D02*
X210100000Y-65920000D01*
X210100000Y-62620000D02*
X210100000Y-63380000D01*
X201110000Y-63380000D02*
X201440000Y-63380000D01*
X201440000Y-66810000D02*
X204100000Y-66810000D01*
X204100000Y-65160000D02*
X210100000Y-65160000D01*
X198730000Y-63000000D02*
X198730000Y-61730000D01*
X210100000Y-65920000D02*
X204100000Y-65920000D01*
X201042929Y-65160000D02*
X201440000Y-65160000D01*
X201440000Y-64270000D02*
X204100000Y-64270000D01*
X210100000Y-67700000D02*
X210100000Y-68460000D01*
X210100000Y-68460000D02*
X204100000Y-68460000D01*
X204100000Y-63280000D02*
X210100000Y-63280000D01*
X204100000Y-69410000D02*
X204100000Y-61670000D01*
X204100000Y-62920000D02*
X210100000Y-62920000D01*
X198730000Y-61730000D02*
X200000000Y-61730000D01*
X201042929Y-68460000D02*
X201440000Y-68460000D01*
X204100000Y-62620000D02*
X210100000Y-62620000D01*
X201440000Y-69410000D02*
X204100000Y-69410000D01*
X210100000Y-63380000D02*
X204100000Y-63380000D01*
X201042929Y-67700000D02*
X201440000Y-67700000D01*
X201440000Y-61670000D02*
X201440000Y-69410000D01*
X201110000Y-62620000D02*
X201440000Y-62620000D01*
X204100000Y-63040000D02*
X210100000Y-63040000D01*
X204100000Y-63160000D02*
X210100000Y-63160000D01*
X204100000Y-61670000D02*
X201440000Y-61670000D01*
X204100000Y-67700000D02*
X210100000Y-67700000D01*
X201042929Y-65920000D02*
X201440000Y-65920000D01*
X204100000Y-62800000D02*
X210100000Y-62800000D01*
X204100000Y-62680000D02*
X210100000Y-62680000D01*
D14*
%TO.C,D4*%
X141200000Y-152175000D02*
X141200000Y-152705000D01*
X137000000Y-147745000D02*
X137000000Y-148325000D01*
X141200000Y-152705000D02*
X137000000Y-152705000D01*
X137000000Y-152705000D02*
X137000000Y-152125000D01*
X141200000Y-148325000D02*
X141200000Y-147745000D01*
X141200000Y-147745000D02*
X137000000Y-147745000D01*
D15*
X143700000Y-151475000D02*
G75*
G03*
X143700000Y-151475000I-100000J0D01*
G01*
D13*
%TO.C,R5*%
X117745276Y-115477500D02*
X118254724Y-115477500D01*
X117745276Y-116522500D02*
X118254724Y-116522500D01*
%TO.C,J9*%
X167420000Y-19275000D02*
X167420000Y-13275000D01*
X166470000Y-24645000D02*
X166470000Y-23375000D01*
X167360000Y-13275000D02*
X168120000Y-13275000D01*
X172440000Y-22332071D02*
X172440000Y-21935000D01*
X171550000Y-21935000D02*
X171550000Y-19275000D01*
X173200000Y-22332071D02*
X173200000Y-21935000D01*
X167360000Y-19275000D02*
X167360000Y-13275000D01*
X167660000Y-19275000D02*
X167660000Y-13275000D01*
X168120000Y-13275000D02*
X168120000Y-19275000D01*
X169900000Y-22332071D02*
X169900000Y-21935000D01*
X168120000Y-22265000D02*
X168120000Y-21935000D01*
X167900000Y-19275000D02*
X167900000Y-13275000D01*
X167780000Y-19275000D02*
X167780000Y-13275000D01*
X166410000Y-21935000D02*
X174150000Y-21935000D01*
X169010000Y-21935000D02*
X169010000Y-19275000D01*
X173200000Y-13275000D02*
X173200000Y-19275000D01*
X170660000Y-22332071D02*
X170660000Y-21935000D01*
X172440000Y-19275000D02*
X172440000Y-13275000D01*
X169900000Y-19275000D02*
X169900000Y-13275000D01*
X174150000Y-21935000D02*
X174150000Y-19275000D01*
X172440000Y-13275000D02*
X173200000Y-13275000D01*
X170660000Y-13275000D02*
X170660000Y-19275000D01*
X167540000Y-19275000D02*
X167540000Y-13275000D01*
X167740000Y-24645000D02*
X166470000Y-24645000D01*
X166410000Y-19275000D02*
X166410000Y-21935000D01*
X169900000Y-13275000D02*
X170660000Y-13275000D01*
X167360000Y-22265000D02*
X167360000Y-21935000D01*
X174150000Y-19275000D02*
X166410000Y-19275000D01*
X168020000Y-19275000D02*
X168020000Y-13275000D01*
%TO.C,J19*%
X183380000Y-21957071D02*
X183380000Y-21560000D01*
X180080000Y-21957071D02*
X180080000Y-21560000D01*
X180840000Y-21957071D02*
X180840000Y-21560000D01*
X181730000Y-21560000D02*
X181730000Y-18900000D01*
X180080000Y-18900000D02*
X180080000Y-12900000D01*
X184330000Y-21560000D02*
X184330000Y-18900000D01*
X177600000Y-18900000D02*
X177600000Y-12900000D01*
X182620000Y-12900000D02*
X183380000Y-12900000D01*
X177960000Y-18900000D02*
X177960000Y-12900000D01*
X179190000Y-21560000D02*
X179190000Y-18900000D01*
X183380000Y-12900000D02*
X183380000Y-18900000D01*
X184330000Y-18900000D02*
X176590000Y-18900000D01*
X177540000Y-21890000D02*
X177540000Y-21560000D01*
X180080000Y-12900000D02*
X180840000Y-12900000D01*
X176650000Y-24270000D02*
X176650000Y-23000000D01*
X182620000Y-18900000D02*
X182620000Y-12900000D01*
X178300000Y-21890000D02*
X178300000Y-21560000D01*
X178200000Y-18900000D02*
X178200000Y-12900000D01*
X177540000Y-12900000D02*
X178300000Y-12900000D01*
X177840000Y-18900000D02*
X177840000Y-12900000D01*
X177540000Y-18900000D02*
X177540000Y-12900000D01*
X178080000Y-18900000D02*
X178080000Y-12900000D01*
X176590000Y-18900000D02*
X176590000Y-21560000D01*
X177920000Y-24270000D02*
X176650000Y-24270000D01*
X177720000Y-18900000D02*
X177720000Y-12900000D01*
X176590000Y-21560000D02*
X184330000Y-21560000D01*
X178300000Y-12900000D02*
X178300000Y-18900000D01*
X180840000Y-12900000D02*
X180840000Y-18900000D01*
X182620000Y-21957071D02*
X182620000Y-21560000D01*
%TD*%
M02*
