%TF.GenerationSoftware,KiCad,Pcbnew,6.0.4-6f826c9f35~116~ubuntu18.04.1*%
%TF.CreationDate,2022-03-30T21:42:36+05:30*%
%TF.ProjectId,dg Monitor,6467204d-6f6e-4697-946f-722e6b696361,rev?*%
%TF.SameCoordinates,Original*%
%TF.FileFunction,Soldermask,Bot*%
%TF.FilePolarity,Negative*%
%FSLAX46Y46*%
G04 Gerber Fmt 4.6, Leading zero omitted, Abs format (unit mm)*
G04 Created by KiCad (PCBNEW 6.0.4-6f826c9f35~116~ubuntu18.04.1) date 2022-03-30 21:42:36*
%MOMM*%
%LPD*%
G01*
G04 APERTURE LIST*
%ADD10C,5.300000*%
%ADD11R,1.700000X1.700000*%
%ADD12O,1.700000X1.700000*%
%ADD13R,2.743200X2.743200*%
%ADD14C,2.743200*%
%ADD15O,1.600000X1.600000*%
%ADD16R,1.600000X1.600000*%
%ADD17C,3.200000*%
%ADD18R,1.218000X1.218000*%
%ADD19C,1.218000*%
%ADD20C,3.000000*%
%ADD21R,1.130000X1.130000*%
%ADD22C,1.130000*%
%ADD23R,1.500000X1.500000*%
%ADD24C,1.500000*%
G04 APERTURE END LIST*
D10*
%TO.C,H3*%
X191500000Y-43000000D03*
%TD*%
%TO.C,H4*%
X175000000Y-163500000D03*
%TD*%
%TO.C,H2*%
X42000000Y-163000000D03*
%TD*%
%TO.C,H1*%
X43000000Y-43000000D03*
%TD*%
D11*
%TO.C,J11*%
X188200000Y-23375000D03*
D12*
X190740000Y-23375000D03*
X193280000Y-23375000D03*
X195820000Y-23375000D03*
%TD*%
D13*
%TO.C,J14*%
X58925000Y-86999500D03*
D14*
X58925000Y-95254500D03*
%TD*%
D13*
%TO.C,J1*%
X186624500Y-149000500D03*
D14*
X194879500Y-149000500D03*
%TD*%
D11*
%TO.C,J5*%
X200000000Y-40000000D03*
D12*
X200000000Y-42540000D03*
X200000000Y-45080000D03*
%TD*%
D15*
%TO.C,A1*%
X67810500Y-73244500D03*
X70350500Y-73244500D03*
X72890500Y-73244500D03*
X75430500Y-73244500D03*
X77970500Y-73244500D03*
X80510500Y-73244500D03*
X83050500Y-73244500D03*
X85590500Y-73244500D03*
X88130500Y-73244500D03*
X90670500Y-73244500D03*
X94730500Y-73244500D03*
X97270500Y-73244500D03*
X99810500Y-73244500D03*
X102350500Y-73244500D03*
X104890500Y-73244500D03*
X107430500Y-73244500D03*
X109970500Y-73244500D03*
X112510500Y-73244500D03*
X112510500Y-24984500D03*
X109970500Y-24984500D03*
X107430500Y-24984500D03*
X104890500Y-24984500D03*
X102350500Y-24984500D03*
X99810500Y-24984500D03*
X94730500Y-24984500D03*
X92190500Y-24984500D03*
X89650500Y-24984500D03*
X87110500Y-24984500D03*
X84570500Y-24984500D03*
X82030500Y-24984500D03*
X79490500Y-24984500D03*
D16*
X76950500Y-24984500D03*
D17*
X62980500Y-24984500D03*
X115050500Y-58004500D03*
X115050500Y-30064500D03*
X64250500Y-73244500D03*
%TD*%
D18*
%TO.C,RV3*%
X162000000Y-92540000D03*
D19*
X162000000Y-90000000D03*
X162000000Y-87460000D03*
%TD*%
D20*
%TO.C,T3*%
X105000000Y-133000000D03*
X105000000Y-113000000D03*
X85000000Y-118000000D03*
X85000000Y-128000000D03*
X105000000Y-123000000D03*
X85000000Y-123000000D03*
X105000000Y-118000000D03*
X105000000Y-128000000D03*
X85000000Y-113000000D03*
X85000000Y-133000000D03*
%TD*%
D13*
%TO.C,J15*%
X58799500Y-148999500D03*
D14*
X58799500Y-157254500D03*
%TD*%
D11*
%TO.C,J10*%
X199625000Y-89200000D03*
D12*
X199625000Y-91740000D03*
X199625000Y-94280000D03*
X199625000Y-96820000D03*
%TD*%
D11*
%TO.C,J20*%
X146395000Y-24000000D03*
D12*
X148935000Y-24000000D03*
X151475000Y-24000000D03*
%TD*%
D18*
%TO.C,RV1*%
X161000000Y-120540000D03*
D19*
X161000000Y-118000000D03*
X161000000Y-115460000D03*
%TD*%
D11*
%TO.C,J13*%
X200000000Y-75000000D03*
D12*
X200000000Y-77540000D03*
X200000000Y-80080000D03*
%TD*%
D11*
%TO.C,J21*%
X158475000Y-24000000D03*
D12*
X161015000Y-24000000D03*
X163555000Y-24000000D03*
%TD*%
D13*
%TO.C,J16*%
X58799500Y-116999500D03*
D14*
X58799500Y-125254500D03*
%TD*%
D20*
%TO.C,T1*%
X104996000Y-161000000D03*
X104996000Y-141000000D03*
X84996000Y-146000000D03*
X84996000Y-156000000D03*
X104996000Y-151000000D03*
X84996000Y-151000000D03*
X104996000Y-146000000D03*
X104996000Y-156000000D03*
X84996000Y-141000000D03*
X84996000Y-161000000D03*
%TD*%
D11*
%TO.C,J6*%
X200000000Y-51475000D03*
D12*
X200000000Y-54015000D03*
X200000000Y-56555000D03*
%TD*%
D21*
%TO.C,U2*%
X156970000Y-61890000D03*
D22*
X156970000Y-59350000D03*
X156970000Y-56810000D03*
X156970000Y-54270000D03*
X156970000Y-51730000D03*
X156970000Y-49190000D03*
X156970000Y-46650000D03*
X156970000Y-44110000D03*
X149030000Y-44110000D03*
X149030000Y-46650000D03*
X149030000Y-49190000D03*
X149030000Y-51730000D03*
X149030000Y-54270000D03*
X149030000Y-56810000D03*
X149030000Y-59350000D03*
X149030000Y-61890000D03*
%TD*%
D11*
%TO.C,J12*%
X200000000Y-28000000D03*
D12*
X200000000Y-30540000D03*
X200000000Y-33080000D03*
%TD*%
D23*
%TO.C,PS1*%
X185625000Y-139600000D03*
D24*
X191625000Y-139600000D03*
X179625000Y-106000000D03*
X197625000Y-106000000D03*
%TD*%
D11*
%TO.C,J8*%
X121475000Y-27375000D03*
D12*
X124015000Y-27375000D03*
X126555000Y-27375000D03*
%TD*%
D20*
%TO.C,T2*%
X105000000Y-102000000D03*
X105000000Y-82000000D03*
X85000000Y-87000000D03*
X85000000Y-97000000D03*
X105000000Y-92000000D03*
X85000000Y-92000000D03*
X105000000Y-87000000D03*
X105000000Y-97000000D03*
X85000000Y-82000000D03*
X85000000Y-102000000D03*
%TD*%
D11*
%TO.C,J17*%
X134475000Y-24000000D03*
D12*
X137015000Y-24000000D03*
X139555000Y-24000000D03*
%TD*%
D18*
%TO.C,RV2*%
X162000000Y-151540000D03*
D19*
X162000000Y-149000000D03*
X162000000Y-146460000D03*
%TD*%
D11*
%TO.C,J7*%
X200000000Y-63000000D03*
D12*
X200000000Y-65540000D03*
X200000000Y-68080000D03*
%TD*%
D11*
%TO.C,J9*%
X167740000Y-23375000D03*
D12*
X170280000Y-23375000D03*
X172820000Y-23375000D03*
%TD*%
D11*
%TO.C,J19*%
X177920000Y-23000000D03*
D12*
X180460000Y-23000000D03*
X183000000Y-23000000D03*
%TD*%
M02*
