M48
; DRILL file {KiCad 6.0.4-6f826c9f35~116~ubuntu18.04.1} date Wed Mar 30 21:42:18 2022
; FORMAT={-:-/ absolute / inch / decimal}
; #@! TF.CreationDate,2022-03-30T21:42:18+05:30
; #@! TF.GenerationSoftware,Kicad,Pcbnew,6.0.4-6f826c9f35~116~ubuntu18.04.1
; #@! TF.FileFunction,Plated,1,2,PTH
FMAT,2
INCH
; #@! TA.AperFunction,Plated,PTH,ViaDrill
T1C0.0157
; #@! TA.AperFunction,Plated,PTH,ViaDrill
T2C0.0236
; #@! TA.AperFunction,Plated,PTH,ComponentDrill
T3C0.0280
; #@! TA.AperFunction,Plated,PTH,ComponentDrill
T4C0.0307
; #@! TA.AperFunction,Plated,PTH,ComponentDrill
T5C0.0394
; #@! TA.AperFunction,Plated,PTH,ComponentDrill
T6C0.0720
; #@! TA.AperFunction,Plated,PTH,ComponentDrill
T7C0.0787
%
G90
G05
T1
X7.0123Y-0.9629
X7.8158Y-2.418
X7.8158Y-2.5168
X7.8315Y-1.9129
T2
X5.4257Y-1.1024
X7.5538Y-0.987
X7.5984Y-1.0338
T3
X6.3386Y-4.5457
X6.3386Y-4.6457
X6.3386Y-4.7457
X6.378Y-3.4433
X6.378Y-3.5433
X6.378Y-3.6433
X6.378Y-5.7661
X6.378Y-5.8661
X6.378Y-5.9661
T4
X5.8673Y-1.7366
X5.8673Y-1.8366
X5.8673Y-1.9366
X5.8673Y-2.0366
X5.8673Y-2.1366
X5.8673Y-2.2366
X5.8673Y-2.3366
X5.8673Y-2.4366
X6.1799Y-1.7366
X6.1799Y-1.8366
X6.1799Y-1.9366
X6.1799Y-2.0366
X6.1799Y-2.1366
X6.1799Y-2.2366
X6.1799Y-2.3366
X6.1799Y-2.4366
T5
X2.6697Y-2.8836
X2.7697Y-2.8836
X2.8697Y-2.8836
X2.9697Y-2.8836
X3.0295Y-0.9836
X3.0697Y-2.8836
X3.1295Y-0.9836
X3.1697Y-2.8836
X3.2295Y-0.9836
X3.2697Y-2.8836
X3.3295Y-0.9836
X3.3697Y-2.8836
X3.4295Y-0.9836
X3.4697Y-2.8836
X3.5295Y-0.9836
X3.5697Y-2.8836
X3.6295Y-0.9836
X3.7295Y-0.9836
X3.7295Y-2.8836
X3.8295Y-2.8836
X3.9295Y-0.9836
X3.9295Y-2.8836
X4.0295Y-0.9836
X4.0295Y-2.8836
X4.1295Y-0.9836
X4.1295Y-2.8836
X4.2295Y-0.9836
X4.2295Y-2.8836
X4.3295Y-0.9836
X4.3295Y-2.8836
X4.4295Y-0.9836
X4.4295Y-2.8836
X4.7825Y-1.0778
X4.8825Y-1.0778
X4.9825Y-1.0778
X5.2943Y-0.9449
X5.3943Y-0.9449
X5.4943Y-0.9449
X5.7636Y-0.9449
X5.8636Y-0.9449
X5.9636Y-0.9449
X6.2392Y-0.9449
X6.3392Y-0.9449
X6.4392Y-0.9449
X6.6039Y-0.9203
X6.7039Y-0.9203
X6.8039Y-0.9203
X7.0047Y-0.9055
X7.0719Y-4.1732
X7.1047Y-0.9055
X7.2047Y-0.9055
X7.3081Y-5.4961
X7.4094Y-0.9203
X7.5094Y-0.9203
X7.5443Y-5.4961
X7.6094Y-0.9203
X7.7094Y-0.9203
X7.7805Y-4.1732
X7.8593Y-3.5118
X7.8593Y-3.6118
X7.8593Y-3.7118
X7.8593Y-3.8118
X7.874Y-1.1024
X7.874Y-1.2024
X7.874Y-1.3024
X7.874Y-1.5748
X7.874Y-1.6748
X7.874Y-1.7748
X7.874Y-2.0266
X7.874Y-2.1266
X7.874Y-2.2266
X7.874Y-2.4803
X7.874Y-2.5803
X7.874Y-2.6803
X7.874Y-2.9528
X7.874Y-3.0528
X7.874Y-3.1528
T6
X2.3149Y-4.6063
X2.3149Y-4.9313
X2.3149Y-5.8661
X2.3149Y-6.1911
X2.3199Y-3.4252
X2.3199Y-3.7502
X7.3474Y-5.8662
X7.6724Y-5.8662
T7
X3.3463Y-5.5512
X3.3463Y-5.748
X3.3463Y-5.9449
X3.3463Y-6.1417
X3.3463Y-6.3386
X3.3465Y-3.2283
X3.3465Y-3.4252
X3.3465Y-3.622
X3.3465Y-3.8189
X3.3465Y-4.0157
X3.3465Y-4.4488
X3.3465Y-4.6457
X3.3465Y-4.8425
X3.3465Y-5.0394
X3.3465Y-5.2362
X4.1337Y-5.5512
X4.1337Y-5.748
X4.1337Y-5.9449
X4.1337Y-6.1417
X4.1337Y-6.3386
X4.1339Y-3.2283
X4.1339Y-3.4252
X4.1339Y-3.622
X4.1339Y-3.8189
X4.1339Y-4.0157
X4.1339Y-4.4488
X4.1339Y-4.6457
X4.1339Y-4.8425
X4.1339Y-5.0394
X4.1339Y-5.2362
T0
M30
